<?xml version="1.0" encoding="UTF-8" standalone="no"?>
<!-- Created with Inkscape (http://www.inkscape.org/) -->

<svg
   xmlns:dc="http://purl.org/dc/elements/1.1/"
   xmlns:cc="http://creativecommons.org/ns#"
   xmlns:rdf="http://www.w3.org/1999/02/22-rdf-syntax-ns#"
   xmlns:svg="http://www.w3.org/2000/svg"
   xmlns="http://www.w3.org/2000/svg"
   xmlns:sodipodi="http://sodipodi.sourceforge.net/DTD/sodipodi-0.dtd"
   xmlns:inkscape="http://www.inkscape.org/namespaces/inkscape"
   width="744.09448819"
   height="1052.3622047"
   id="svg2"
   version="1.1"
   inkscape:version="0.48.5 r10040"
   sodipodi:docname="chronometer.svg">
  <defs
     id="defs4" />
  <sodipodi:namedview
     id="base"
     pagecolor="#ffffff"
     bordercolor="#666666"
     borderopacity="1.0"
     inkscape:pageopacity="0.0"
     inkscape:pageshadow="2"
     inkscape:zoom="0.35"
     inkscape:cx="-162.76587"
     inkscape:cy="348.09648"
     inkscape:document-units="px"
     inkscape:current-layer="layer1"
     showgrid="false"
     showguides="true"
     inkscape:guide-bbox="true"
     inkscape:window-width="1361"
     inkscape:window-height="855"
     inkscape:window-x="4"
     inkscape:window-y="0"
     inkscape:window-maximized="0">
    <sodipodi:guide
       position="0,0"
       orientation="0,744.09448"
       id="guide4206" />
    <sodipodi:guide
       position="744.09448,0"
       orientation="-1052.3622,0"
       id="guide4208" />
    <sodipodi:guide
       position="744.09448,1052.3622"
       orientation="0,-744.09448"
       id="guide4210" />
    <sodipodi:guide
       position="0,1052.3622"
       orientation="1052.3622,0"
       id="guide4212" />
  </sodipodi:namedview>
  <metadata
     id="metadata7">
    <rdf:RDF>
      <cc:Work
         rdf:about="">
        <dc:format>image/svg+xml</dc:format>
        <dc:type
           rdf:resource="http://purl.org/dc/dcmitype/StillImage" />
        <dc:title></dc:title>
      </cc:Work>
    </rdf:RDF>
  </metadata>
  <g
     inkscape:label="Layer 1"
     inkscape:groupmode="layer"
     id="layer1">
    <g
       id="g3915"
       transform="matrix(0.6191354,0,0,0.6191354,256.27434,-301.53134)"
       inkscape:export-filename="/Users/Vincent/Desktop/bike-friend/new-android/art/chronometer_512.png"
       inkscape:export-xdpi="102.74612"
       inkscape:export-ydpi="102.74612">
      <path
         transform="matrix(1.3989647,0,0,1.3989647,-103.7752,587.25133)"
         d="m 342.14285,189.50504 c 0,69.03559 -55.9644,125 -125,125 -69.03559,0 -124.999997,-55.96441 -124.999997,-125 0,-69.0356 55.964407,-125.000005 124.999997,-125.000005 69.0356,0 125,55.964405 125,125.000005 z"
         sodipodi:ry="125"
         sodipodi:rx="125"
         sodipodi:cy="189.50504"
         sodipodi:cx="217.14285"
         id="path3761"
         style="fill:none;stroke:#000000;stroke-width:27;stroke-linecap:round;stroke-linejoin:round;stroke-miterlimit:4;stroke-opacity:1;stroke-dasharray:none;stroke-dashoffset:0"
         sodipodi:type="arc" />
      <rect
         y="722.46313"
         x="199.40356"
         height="124.14774"
         width="0.94440722"
         id="rect3763"
         style="fill:none;stroke:#000000;stroke-width:15;stroke-linecap:round;stroke-linejoin:round;stroke-miterlimit:4;stroke-opacity:1;stroke-dasharray:none;stroke-dashoffset:0" />
      <rect
         transform="matrix(0,1,-1,0,0,0)"
         style="fill:none;stroke:#000000;stroke-width:20;stroke-linecap:round;stroke-linejoin:round;stroke-miterlimit:4;stroke-opacity:1;stroke-dasharray:none;stroke-dashoffset:0"
         id="rect3789"
         width="18.037842"
         height="134.31998"
         x="607.63007"
         y="-265.29315" />
      <rect
         style="fill:none;stroke:#000000;stroke-width:22.70220375;stroke-linecap:round;stroke-linejoin:miter;stroke-miterlimit:4;stroke-opacity:1;stroke-dasharray:none;stroke-dashoffset:0"
         id="rect3802"
         width="7.692266"
         height="28.094814"
         x="193.91434"
         y="632.12738" />
      <rect
         y="681.37622"
         x="197.93149"
         height="21.213203"
         width="2.5253813"
         id="rect3804"
         style="fill:none;stroke:#000000;stroke-width:10;stroke-linecap:round;stroke-linejoin:miter;stroke-miterlimit:4;stroke-opacity:1;stroke-dasharray:none;stroke-dashoffset:0" />
      <rect
         style="fill:none;stroke:#000000;stroke-width:10;stroke-linecap:round;stroke-linejoin:miter;stroke-miterlimit:4;stroke-opacity:1;stroke-dasharray:none;stroke-dashoffset:0"
         id="rect3833"
         width="2.5253813"
         height="21.213203"
         x="197.93149"
         y="1001.3762" />
      <rect
         transform="matrix(0,1,-1,0,0,0)"
         style="fill:none;stroke:#000000;stroke-width:10;stroke-linecap:round;stroke-linejoin:miter;stroke-miterlimit:4;stroke-opacity:1;stroke-dasharray:none;stroke-dashoffset:0"
         id="rect3847"
         width="2.5253813"
         height="21.213203"
         x="850.72015"
         y="-368.37219" />
      <rect
         transform="matrix(0,1,-1,0,0,0)"
         y="-48.372208"
         x="850.72015"
         height="21.213203"
         width="2.5253813"
         id="rect3849"
         style="fill:none;stroke:#000000;stroke-width:10;stroke-linecap:round;stroke-linejoin:miter;stroke-miterlimit:4;stroke-opacity:1;stroke-dasharray:none;stroke-dashoffset:0" />
      <rect
         transform="matrix(0.70710678,0.70710678,-0.70710678,0.70710678,0,0)"
         style="fill:none;stroke:#000000;stroke-width:10;stroke-linecap:round;stroke-linejoin:miter;stroke-miterlimit:4;stroke-opacity:1;stroke-dasharray:none;stroke-dashoffset:0"
         id="rect3865"
         width="2.5253813"
         height="21.213203"
         x="741.02155"
         y="291.99484" />
      <rect
         transform="matrix(0.70710678,0.70710678,-0.70710678,0.70710678,0,0)"
         y="611.99481"
         x="741.02155"
         height="21.213203"
         width="2.5253813"
         id="rect3867"
         style="fill:none;stroke:#000000;stroke-width:10;stroke-linecap:round;stroke-linejoin:miter;stroke-miterlimit:4;stroke-opacity:1;stroke-dasharray:none;stroke-dashoffset:0" />
      <rect
         y="-912.89081"
         x="461.33878"
         height="21.213203"
         width="2.5253813"
         id="rect3869"
         style="fill:none;stroke:#000000;stroke-width:10;stroke-linecap:round;stroke-linejoin:miter;stroke-miterlimit:4;stroke-opacity:1;stroke-dasharray:none;stroke-dashoffset:0"
         transform="matrix(-0.70710678,0.70710678,-0.70710678,-0.70710678,0,0)" />
      <rect
         style="fill:none;stroke:#000000;stroke-width:10;stroke-linecap:round;stroke-linejoin:miter;stroke-miterlimit:4;stroke-opacity:1;stroke-dasharray:none;stroke-dashoffset:0"
         id="rect3871"
         width="2.5253813"
         height="21.213203"
         x="461.33878"
         y="-592.89081"
         transform="matrix(-0.70710678,0.70710678,-0.70710678,-0.70710678,0,0)" />
      <path
         sodipodi:type="arc"
         style="fill:#000000;fill-opacity:1;stroke:#000000;stroke-width:27;stroke-linecap:round;stroke-linejoin:round;stroke-miterlimit:4;stroke-opacity:1;stroke-dasharray:none;stroke-dashoffset:0"
         id="path3884"
         sodipodi:cx="217.14285"
         sodipodi:cy="189.50504"
         sodipodi:rx="125"
         sodipodi:ry="125"
         d="m 342.14285,189.50504 c 0,69.03559 -55.9644,125 -125,125 -69.03559,0 -124.999997,-55.96441 -124.999997,-125 0,-69.0356 55.964407,-125.000005 124.999997,-125.000005 69.0356,0 125,55.964405 125,125.000005 z"
         transform="matrix(0.15177275,0,0,0.15177275,167.04362,823.60048)" />
      <rect
         transform="matrix(0,1,-1,0,0,0)"
         style="fill:none;stroke:#000000;stroke-width:15;stroke-linecap:round;stroke-linejoin:round;stroke-miterlimit:4;stroke-opacity:1;stroke-dasharray:none;stroke-dashoffset:0"
         id="rect3897"
         width="0.94440722"
         height="82.996971"
         x="851.50677"
         y="-288.2706" />
      <rect
         y="-788.51202"
         x="223.5739"
         height="93.081795"
         width="12.502806"
         id="rect3911"
         style="fill:none;stroke:#000000;stroke-width:13.86128521;stroke-linecap:round;stroke-linejoin:round;stroke-miterlimit:4;stroke-opacity:1;stroke-dasharray:none;stroke-dashoffset:0"
         transform="matrix(-0.69634805,0.71770425,-0.70768016,-0.70653294,0,0)" />
      <rect
         transform="matrix(0.71271097,0.70145782,-0.70145782,0.71271097,0,0)"
         y="247.93262"
         x="738.68634"
         height="20.547775"
         width="5.6259127"
         id="rect3913"
         style="fill:none;stroke:#000000;stroke-width:16.6037693;stroke-linecap:round;stroke-linejoin:miter;stroke-miterlimit:4;stroke-opacity:1;stroke-dasharray:none;stroke-dashoffset:0" />
    </g>
    <path
       style="font-size:medium;font-style:normal;font-variant:normal;font-weight:normal;font-stretch:normal;text-indent:0;text-align:start;text-decoration:none;line-height:normal;letter-spacing:normal;word-spacing:normal;text-transform:none;direction:ltr;block-progression:tb;writing-mode:lr-tb;text-anchor:start;baseline-shift:baseline;color:#000000;fill:#333333;fill-opacity:0.6;stroke:none;stroke-width:27;marker:none;visibility:visible;display:inline;overflow:visible;enable-background:accumulate;font-family:Sans;-inkscape-font-specification:Sans"
       d="m 337.35691,386.89136 a 6.1919731,6.1919731 0 0 0 -6.17235,6.19547 l 0,11.16572 a 6.1919731,6.1919731 0 0 0 6.17235,6.19546 l 31.94828,0 0,14.67957 c -61.07475,5.48784 -109.16046,56.99938 -109.16046,119.47083 0,66.11445 53.86496,119.95631 119.97942,119.95631 66.11445,0 119.9563,-53.84186 119.9563,-119.95631 0,-30.69744 -11.62191,-58.74003 -30.67682,-79.98628 l 2.38109,-2.40421 8.71527,-8.85397 16.48272,16.43649 a 4.3219887,4.2606626 0.0272767 0 0 6.05677,-0.0462 l 5.38636,-5.5713 a 4.3219887,4.2606626 0.0272767 0 0 -0.0693,-6.103 l -40.77913,-40.70978 a 4.3219887,4.2606626 0.0272767 0 0 -6.03365,0.0231 l -5.38636,5.5713 a 4.3219887,4.2606626 0.0272767 0 0 0.0462,6.12612 l 14.56397,14.54086 -8.80773,8.92332 -2.31175,2.35798 c -19.31968,-17.15357 -44.18598,-28.16903 -71.52534,-29.98326 l 0,-14.47151 32.41063,0 a 6.1919731,6.1919731 0 0 0 6.19547,-6.19546 l 0,-11.16572 a 6.1919731,6.1919731 0 0 0 -6.19547,-6.19547 l -83.17649,0 z m 46.11926,61.19182 c 23.58866,0.79984 44.9788,10.00702 61.3074,24.71252 l -3.42137,3.42138 -2.17304,2.19615 2.17304,2.19616 1.13275,1.10964 2.17304,2.17303 2.19615,-2.17303 3.49073,-3.49073 c 15.46106,16.35774 25.23274,38.13782 26.23828,62.25521 l -5.38636,0 -3.09774,0 0,3.09774 0,1.57198 0,3.09774 3.09774,0 5.40947,0 c -0.89163,24.18484 -10.60273,46.049 -26.03021,62.48639 l -3.72191,-3.72191 -2.19615,-2.17303 -2.17304,2.17303 -1.13275,1.10964 -2.17304,2.19615 2.17304,2.19616 3.67567,3.67567 c -16.36032,14.83906 -37.8508,24.1166 -61.5617,24.92058 l 0,-4.25361 0,-3.09773 -3.09773,0 -1.54887,0 -3.09773,0 0,3.09773 0,4.20738 c -24.01148,-1.06332 -45.70183,-10.81368 -62.00093,-26.21516 l 2.33486,-2.33486 2.19615,-2.19616 -2.19615,-2.19615 -1.10964,-1.10964 -2.19615,-2.17303 -2.19616,2.17303 -2.2655,2.26551 c -14.65055,-16.26267 -23.82381,-37.5514 -24.68941,-61.02999 l 2.61227,0 3.09773,0 0,-3.09774 0,-1.57198 0,-3.09774 -3.09773,0 -2.58915,0 c 0.97594,-23.4076 10.21845,-44.61496 24.89746,-60.79882 l 2.03433,2.03434 2.19616,2.17303 2.19615,-2.17303 1.10964,-1.10964 2.19615,-2.19616 -2.19615,-2.19615 -2.08057,-2.08057 c 16.27151,-15.27007 37.85363,-24.94902 61.74664,-26.0071 l 0,3.74502 0,3.09774 3.09773,0 1.54887,0 3.09773,0 0,-3.09774 0,-3.79125 z m -3.74502,11.44312 a 4.6439797,4.6439797 0 0 0 -4.6466,4.6466 l 0,68.38134 c -4.72079,1.96564 -8.04487,6.61142 -8.04487,12.04417 0,7.20936 5.85199,13.06135 13.06135,13.06135 5.54609,0 10.26864,-3.46725 12.15976,-8.34539 l 42.48982,0 a 4.6439797,4.6439797 0 0 0 4.64661,-4.6466 l 0,-0.60106 a 4.6439797,4.6439797 0 0 0 -4.64661,-4.62348 l -42.67476,0 c -1.36407,-3.15481 -3.92221,-5.67711 -7.12016,-6.95835 l 0,-68.31198 a 4.6439797,4.6439797 0 0 0 -4.64661,-4.6466 l -0.57793,0 z"
       id="path3028"
       inkscape:export-filename="/Users/Vincent/Desktop/bike-friend/new-android/art/chronometer_grey_512.png"
       inkscape:export-xdpi="122.76746"
       inkscape:export-ydpi="122.76746"
       inkscape:connector-curvature="0" />
    <path
       inkscape:export-ydpi="432.77457"
       inkscape:export-xdpi="432.77457"
       inkscape:export-filename="/Users/Vincent/Desktop/bike-friend/new-android/art/chronometer_grey_w1200.png"
       id="path3872"
       d="m 337.35691,705.28827 a 6.1919731,6.1919731 0 0 0 -6.17235,6.19547 l 0,11.16572 a 6.1919731,6.1919731 0 0 0 6.17235,6.19547 l 31.94828,0 0,14.67957 c -61.07475,5.48782 -109.16046,56.99935 -109.16046,119.47081 0,66.1145 53.86496,119.9563 119.97942,119.9563 66.11445,0 119.9563,-53.8418 119.9563,-119.9563 0,-30.6974 -11.62191,-58.74004 -30.67682,-79.98625 l 2.38109,-2.40421 8.71527,-8.85401 16.48272,16.43652 a 4.3219887,4.2606626 0.0272767 0 0 6.05677,-0.0459 l 5.38636,-5.57134 a 4.3219887,4.2606626 0.0272767 0 0 -0.0693,-6.103 l -40.77913,-40.70976 a 4.3219887,4.2606626 0.0272767 0 0 -6.03365,0.0231 l -5.38636,5.57135 a 4.3219887,4.2606626 0.0272767 0 0 0.0462,6.12608 l 14.56397,14.54089 -8.80773,8.92333 -2.31175,2.35797 C 440.32845,756.14644 415.46215,745.131 388.12279,743.31675 l 0,-14.47152 32.41063,0 a 6.1919731,6.1919731 0 0 0 6.19547,-6.19547 l 0,-11.16572 a 6.1919731,6.1919731 0 0 0 -6.19547,-6.19546 l -83.17649,0 z m 46.11926,61.1918 c 23.58866,0.7999 44.9788,10.00707 61.3074,24.71256 l -3.42137,3.42138 -2.17304,2.19611 2.17304,2.1962 1.13275,1.10963 2.17304,2.17304 2.19615,-2.17304 3.49073,-3.49077 c 15.46106,16.35774 25.23274,38.13783 26.23828,62.25523 l -5.38636,0 -3.09774,0 0,3.0978 0,1.5719 0,3.0978 3.09774,0 5.40947,0 c -0.89163,24.1848 -10.60273,46.049 -26.03021,62.4863 l -3.72191,-3.7218 -2.19615,-2.1731 -2.17304,2.1731 -1.13275,1.1096 -2.17304,2.1961 2.17304,2.1962 3.67567,3.6756 c -16.36032,14.8391 -37.8508,24.1167 -61.5617,24.9206 l 0,-4.2536 0,-3.0977 -3.09773,0 -1.54887,0 -3.09773,0 0,3.0977 0,4.2074 c -24.01148,-1.0633 -45.70183,-10.8136 -62.00093,-26.2152 l 2.33486,-2.3348 2.19615,-2.1962 -2.19615,-2.1961 -1.10964,-1.1096 -2.19615,-2.1731 -2.19616,2.1731 -2.2655,2.2655 c -14.65055,-16.2627 -23.82381,-37.5514 -24.68941,-61.03 l 2.61227,0 3.09773,0 0,-3.0978 0,-1.5719 0,-3.0978 -3.09773,0 -2.58915,0 c 0.97594,-23.4076 10.21845,-44.61497 24.89746,-60.79879 l 2.03433,2.03433 2.19616,2.17304 2.19615,-2.17304 1.10964,-1.10963 2.19615,-2.1962 -2.19615,-2.19611 -2.08057,-2.08057 c 16.27151,-15.27008 37.85363,-24.94906 61.74664,-26.00714 l 0,3.74502 0,3.09774 3.09773,0 1.54887,0 3.09773,0 0,-3.09774 0,-3.79125 z m -3.74502,11.44316 a 4.6439797,4.6439797 0 0 0 -4.6466,4.64656 l 0,68.38132 c -4.72079,1.9657 -8.04487,6.6115 -8.04487,12.0442 0,7.2094 5.85199,13.0613 13.06135,13.0613 5.54609,0 10.26864,-3.4672 12.15976,-8.3453 l 42.48982,0 a 4.6439797,4.6439797 0 0 0 4.64661,-4.6467 l 0,-0.601 a 4.6439797,4.6439797 0 0 0 -4.64661,-4.6235 l -42.67476,0 c -1.36407,-3.1548 -3.92221,-5.677 -7.12016,-6.9583 l 0,-68.31202 a 4.6439797,4.6439797 0 0 0 -4.64661,-4.64656 l -0.57793,0 z"
       style="font-size:medium;font-style:normal;font-variant:normal;font-weight:normal;font-stretch:normal;text-indent:0;text-align:start;text-decoration:none;line-height:normal;letter-spacing:normal;word-spacing:normal;text-transform:none;direction:ltr;block-progression:tb;writing-mode:lr-tb;text-anchor:start;baseline-shift:baseline;color:#000000;fill:#333333;fill-opacity:0.2;stroke:none;stroke-width:27;marker:none;visibility:visible;display:inline;overflow:visible;enable-background:accumulate;font-family:Sans;-inkscape-font-specification:Sans"
       inkscape:connector-curvature="0" />
  </g>
</svg>
