<?xml version="1.0" encoding="UTF-8" standalone="no"?>
<!-- Created with Inkscape (http://www.inkscape.org/) -->

<svg
   xmlns:osb="http://www.openswatchbook.org/uri/2009/osb"
   xmlns:dc="http://purl.org/dc/elements/1.1/"
   xmlns:cc="http://creativecommons.org/ns#"
   xmlns:rdf="http://www.w3.org/1999/02/22-rdf-syntax-ns#"
   xmlns:svg="http://www.w3.org/2000/svg"
   xmlns="http://www.w3.org/2000/svg"
   xmlns:xlink="http://www.w3.org/1999/xlink"
   xmlns:sodipodi="http://sodipodi.sourceforge.net/DTD/sodipodi-0.dtd"
   xmlns:inkscape="http://www.inkscape.org/namespaces/inkscape"
   width="792pt"
   height="612pt"
   id="svg3023"
   version="1.1"
   inkscape:version="0.48.3.1 r9886"
   sodipodi:docname="cover-bikeFriend.svg">
  <sodipodi:namedview
     inkscape:document-units="in"
     pagecolor="#ffffff"
     bordercolor="#666666"
     borderopacity="1.0"
     inkscape:pageopacity="0.0"
     inkscape:pageshadow="2"
     inkscape:zoom="0.61399264"
     inkscape:cx="473.13173"
     inkscape:cy="394.95602"
     inkscape:current-layer="layer3"
     id="namedview3027"
     showgrid="false"
     inkscape:window-width="1372"
     inkscape:window-height="823"
     inkscape:window-x="15"
     inkscape:window-y="1"
     inkscape:window-maximized="0" />
  <defs
     id="defs3025">
    <linearGradient
       id="linearGradient3952">
      <stop
         style="stop-color:#ffffff;stop-opacity:1;"
         offset="0"
         id="stop3954" />
      <stop
         id="stop3960"
         offset="0.65151513"
         style="stop-color:#ffffff;stop-opacity:0.50196081;" />
      <stop
         style="stop-color:#ffffff;stop-opacity:0;"
         offset="1"
         id="stop3956" />
    </linearGradient>
    <linearGradient
       id="linearGradient3942">
      <stop
         style="stop-color:#000000;stop-opacity:1;"
         offset="0"
         id="stop3944" />
      <stop
         style="stop-color:#000000;stop-opacity:0;"
         offset="1"
         id="stop3946" />
    </linearGradient>
    <linearGradient
       id="linearGradient3920">
      <stop
         style="stop-color:#000000;stop-opacity:0.78431374;"
         offset="0"
         id="stop3922" />
      <stop
         style="stop-color:#000000;stop-opacity:0.78431374;"
         offset="1"
         id="stop3924" />
    </linearGradient>
    <linearGradient
       id="linearGradient3910">
      <stop
         style="stop-color:#ffffff;stop-opacity:1;"
         offset="0"
         id="stop3912" />
      <stop
         style="stop-color:#ea8787;stop-opacity:0;"
         offset="1"
         id="stop3914" />
    </linearGradient>
    <linearGradient
       id="linearGradient3859"
       osb:paint="solid">
      <stop
         style="stop-color:#2aff00;stop-opacity:1;"
         offset="0"
         id="stop3861" />
    </linearGradient>
    <linearGradient
       id="linearGradient6872">
      <stop
         style="stop-color:#bcc937;stop-opacity:0;"
         offset="0"
         id="stop6874" />
      <stop
         id="stop3900"
         offset="0.21212122"
         style="stop-color:#d0e01d;stop-opacity:0.4627451;" />
      <stop
         style="stop-color:#689e5c;stop-opacity:0.93103451;"
         offset="1"
         id="stop6876" />
    </linearGradient>
    <linearGradient
       id="linearGradient3809">
      <stop
         style="stop-color:#ffffff;stop-opacity:1;"
         offset="0"
         id="stop3811" />
      <stop
         id="stop3879"
         offset="0.17355372"
         style="stop-color:#a5f154;stop-opacity:1;" />
      <stop
         id="stop3877"
         offset="0.40909091"
         style="stop-color:#42ca09;stop-opacity:1;" />
      <stop
         style="stop-color:#8aff3e;stop-opacity:1;"
         offset="1"
         id="stop3813" />
    </linearGradient>
    <radialGradient
       inkscape:collect="always"
       xlink:href="#linearGradient6872"
       id="radialGradient3975"
       gradientUnits="userSpaceOnUse"
       cx="251.06047"
       cy="309.52103"
       fx="251.06047"
       fy="309.52103"
       r="56.355194" />
    <radialGradient
       inkscape:collect="always"
       xlink:href="#linearGradient3952"
       id="radialGradient3981"
       gradientUnits="userSpaceOnUse"
       gradientTransform="matrix(1,0,0,0.0748503,0,253.32427)"
       cx="236.08897"
       cy="273.81976"
       fx="236.08897"
       fy="273.81976"
       r="192.32614" />
    <linearGradient
       inkscape:collect="always"
       xlink:href="#linearGradient3809"
       id="linearGradient3988"
       gradientUnits="userSpaceOnUse"
       gradientTransform="matrix(2.1485861,0,0,2.1485861,-375.45247,-442.63845)"
       x1="451.34167"
       y1="309.88077"
       x2="451.25253"
       y2="503.35858" />
    <linearGradient
       inkscape:collect="always"
       xlink:href="#linearGradient3920"
       id="linearGradient3990"
       gradientUnits="userSpaceOnUse"
       gradientTransform="matrix(1.4705696,0,0,1.4705696,-96.805597,-182.18585)"
       x1="355.53472"
       y1="416.98458"
       x2="510.20656"
       y2="416.98458" />
    <radialGradient
       inkscape:collect="always"
       xlink:href="#linearGradient6872"
       id="radialGradient4001"
       gradientUnits="userSpaceOnUse"
       cx="251.06047"
       cy="309.52103"
       fx="251.06047"
       fy="309.52103"
       r="56.355194" />
    <linearGradient
       inkscape:collect="always"
       xlink:href="#linearGradient3809"
       id="linearGradient4003"
       gradientUnits="userSpaceOnUse"
       gradientTransform="matrix(2.1485861,0,0,2.1485861,-375.45247,-442.63845)"
       x1="451.34167"
       y1="309.88077"
       x2="451.25253"
       y2="503.35858" />
    <linearGradient
       inkscape:collect="always"
       xlink:href="#linearGradient3920"
       id="linearGradient4005"
       gradientUnits="userSpaceOnUse"
       gradientTransform="matrix(1.4705696,0,0,1.4705696,-96.805597,-182.18585)"
       x1="355.53472"
       y1="416.98458"
       x2="510.20656"
       y2="416.98458" />
    <radialGradient
       inkscape:collect="always"
       xlink:href="#linearGradient3952"
       id="radialGradient4007"
       gradientUnits="userSpaceOnUse"
       gradientTransform="matrix(1,0,0,0.0748503,0,253.32427)"
       cx="236.08897"
       cy="273.81976"
       fx="236.08897"
       fy="273.81976"
       r="192.32614" />
    <linearGradient
       inkscape:collect="always"
       xlink:href="#linearGradient3809"
       id="linearGradient4014"
       gradientUnits="userSpaceOnUse"
       gradientTransform="matrix(2.1485861,0,0,2.1485861,-375.45247,-442.63845)"
       x1="451.34167"
       y1="309.88077"
       x2="451.25253"
       y2="503.35858" />
    <linearGradient
       inkscape:collect="always"
       xlink:href="#linearGradient3920"
       id="linearGradient4016"
       gradientUnits="userSpaceOnUse"
       gradientTransform="matrix(1.4705696,0,0,1.4705696,-96.805597,-182.18585)"
       x1="355.53472"
       y1="416.98458"
       x2="510.20656"
       y2="416.98458" />
    <linearGradient
       inkscape:collect="always"
       xlink:href="#linearGradient3809"
       id="linearGradient3124"
       gradientUnits="userSpaceOnUse"
       gradientTransform="matrix(2.1485861,0,0,2.1485861,-375.45247,-442.63845)"
       x1="451.34167"
       y1="309.88077"
       x2="451.25253"
       y2="503.35858" />
    <linearGradient
       inkscape:collect="always"
       xlink:href="#linearGradient3920"
       id="linearGradient3126"
       gradientUnits="userSpaceOnUse"
       gradientTransform="matrix(1.4705696,0,0,1.4705696,-96.805597,-182.18585)"
       x1="355.53472"
       y1="416.98458"
       x2="510.20656"
       y2="416.98458" />
    <radialGradient
       inkscape:collect="always"
       xlink:href="#linearGradient3952"
       id="radialGradient3144"
       gradientUnits="userSpaceOnUse"
       gradientTransform="matrix(1,0,0,0.0748503,0,253.32427)"
       cx="236.08897"
       cy="273.81976"
       fx="236.08897"
       fy="273.81976"
       r="192.32614" />
  </defs>
  <metadata
     id="metadata3029">
    <rdf:RDF>
      <cc:Work
         rdf:about="">
        <dc:format>image/svg+xml</dc:format>
        <dc:type
           rdf:resource="http://purl.org/dc/dcmitype/StillImage" />
        <dc:title></dc:title>
      </cc:Work>
    </rdf:RDF>
  </metadata>
  <g
     inkscape:label="Layer"
     inkscape:groupmode="layer"
     id="layer1"
     style="display:inline"
     sodipodi:insensitive="true">
    <path
       transform="matrix(4.8418971,0,0,4.8418971,-782.01143,-1098.1673)"
       d="m 306.91566,309.52103 a 55.855194,55.855194 0 1 1 -111.71038,0 55.855194,55.855194 0 1 1 111.71038,0 z"
       sodipodi:ry="55.855194"
       sodipodi:rx="55.855194"
       sodipodi:cy="309.52103"
       sodipodi:cx="251.06047"
       id="path4056"
       style="fill:#ffffff;fill-opacity:1;fill-rule:evenodd;stroke:#000000;stroke-width:1px;stroke-linecap:butt;stroke-linejoin:miter;stroke-opacity:1;display:inline"
       sodipodi:type="arc"
       inkscape:export-filename="/home/vincent/bikeFriend512-zh.png"
       inkscape:export-xdpi="84.449997"
       inkscape:export-ydpi="84.449997" />
    <path
       sodipodi:type="arc"
       style="fill:url(#radialGradient4001);fill-opacity:1;fill-rule:evenodd;stroke:#000000;stroke-width:1px;stroke-linecap:butt;stroke-linejoin:miter;stroke-opacity:1;display:inline"
       id="path6870"
       sodipodi:cx="251.06047"
       sodipodi:cy="309.52103"
       sodipodi:rx="55.855194"
       sodipodi:ry="55.855194"
       d="m 306.91566,309.52103 a 55.855194,55.855194 0 1 1 -111.71038,0 55.855194,55.855194 0 1 1 111.71038,0 z"
       transform="matrix(4.8418971,0,0,4.8418971,-782.01143,-1098.1673)"
       inkscape:export-filename="/home/vincent/bikeFriend512-zh.png"
       inkscape:export-xdpi="84.449997"
       inkscape:export-ydpi="84.449997" />
    <path
       style="fill:url(#linearGradient3124);fill-opacity:1;stroke:url(#linearGradient3126);stroke-width:5.00632286px;stroke-linecap:butt;stroke-linejoin:miter;stroke-opacity:1;display:inline"
       d="m 602.0951,224.21477 6.84452,4.40009 0.48914,5.86679 15.6448,7.82236 4.88901,2.93341 10.35074,0.83458 1.87195,12.36571 8.8002,0.48888 -1.46668,3.91122 -11.24474,7.82235 -6.8445,8.31132 -2.44459,19.06704 6.35574,16.62254 -2.44455,11.24466 -6.84452,7.3335 -4.40014,19.55593 -8.80011,6.35569 -0.48914,8.8002 -5.86675,6.84458 4.88897,10.75575 -16.62254,63.55684 -12.7114,44.48978 -4.889,1.95563 -5.86676,15.64473 -5.86678,10.26689 -5.86677,1.46668 -1.46669,3.42227 2.44446,4.889 -9.28908,9.2891 -10.75581,7.33353 -1.46663,7.82235 -12.71137,32.75624 -0.48914,35.68956 -4.88899,3.4223 1.46664,10.26689 -1.95553,0 -3.42237,-3.9112 -6.35567,-1.46669 -2.93337,3.42227 -3.91116,-1.46669 0.97777,-5.37789 -3.91116,-5.37785 4.4,-10.75584 -6.35567,-16.13362 -4.4,-15.15585 -29.33399,-16.62251 -12.71131,-17.60038 3.42226,-3.9112 -9.28912,-22.00047 -2.44446,-11.73359 -15.64473,-15.15588 13.20024,-33.24509 0.9778,-19.55596 0.48908,-15.64474 5.37789,-7.82241 -1.46668,-10.26683 8.31133,-5.8668 19.06705,-37.64521 19.06699,-32.75619 10.2669,-10.75578 4.40009,-12.71138 7.82238,-7.82237 4.88899,-1.46668 5.37789,-10.2669 -0.9778,-4.889 14.66696,-19.06704 0.48861,-6.35568 10.26685,-6.3557 18.08931,-6.35569 10.26685,-1.95558 5.86679,-2.93336 -0.48914,-2.44452 5.37785,-9.28905 z"
       id="path4651"
       inkscape:connector-curvature="0"
       sodipodi:nodetypes="cccccccccccccccccccccccccccccccccccccccccccccccccccccccccccccccccccccccccc"
       inkscape:export-filename="/home/vincent/bikeFriend512-zh.png"
       inkscape:export-xdpi="84.449997"
       inkscape:export-ydpi="84.449997" />
    <path
       style="fill:#000000;fill-opacity:1;fill-rule:evenodd;stroke:#000000;stroke-width:3.31055284;stroke-linecap:butt;stroke-linejoin:round;stroke-miterlimit:4;stroke-opacity:1;stroke-dasharray:none;display:inline"
       d="m 502.75579,360.37415 -29.6619,2.98731 c -1.4152,0.1403 0.22105,3.11328 1.24743,4.12535 5.84325,5.76105 29.28699,-2.75191 32.09187,-2.17169 2.80486,0.58022 2.02969,4.11979 1.47697,5.70715 -0.55267,1.58739 -9.16709,7.2542 -7.85068,11.40761 l 6.7159,21.18937 -118.78615,20.20001 -3.32658,-11.94929 18.29611,0.85353 c 4.95641,0.23119 4.15819,-10.95355 4.15819,-10.95355 0,0 -26.66744,-9.09634 -39.64157,-7.39717 -6.16557,0.80743 -16.29934,15.40327 -10.11831,16.07465 5.4535,0.59239 21.62268,1.13805 21.62268,1.13805 l 4.15822,14.65209 -21.34547,22.19158 c -13.5014,-13.25401 -31.80586,-21.33805 -51.97763,-21.33805 -41.62438,0 -75.40217,34.66653 -75.40217,77.386 0,42.71949 33.77779,77.38597 75.40217,77.38597 40.32234,0 72.97207,-32.53291 74.98637,-73.40285 l 45.46311,0 82.88692,-84.49869 3.88103,12.2338 c -23.79926,13.0169 -40.05743,38.68784 -40.05743,68.28177 0,42.71949 33.77785,77.38597 75.40219,77.38597 41.62436,0 75.26359,-34.66648 75.26359,-77.38597 0,-42.71947 -33.63923,-77.386 -75.26359,-77.386 -10.66869,0 -20.73795,2.29476 -29.93911,6.4014 l -16.74328,-51.22577 c -1.06639,-3.41193 6.09991,-6.30876 7.17942,-9.37428 1.24846,-3.54531 0.41705,-8.46918 -2.21773,-11.09577 -1.9202,-1.91429 -7.90057,-1.42253 -7.90057,-1.42253 z m 5.68289,48.65075 2.35631,7.53942 -84.41166,84.7832 -16.49422,0 -20.37522,-72.1226 z m -123.91467,22.33381 19.82084,69.98881 -19.40499,0 c -0.73902,-19.11424 -8.24947,-36.3982 -20.09802,-49.50427 z m -74.70914,9.53101 c 16.42843,0 31.35197,6.62455 42.41375,17.35495 l -41.44347,43.10285 -1.80192,0 c -0.43469,-0.18891 -0.88434,-0.28453 -1.38607,-0.28453 -2.00688,0 -3.60378,1.78116 -3.60378,3.84088 0,2.05968 1.5969,3.69858 3.60378,3.69858 0.2027,0 0.3606,-0.11047 0.55443,-0.14224 0.0462,-0.007 0.0939,0.0108 0.13866,0 l 63.20477,0 c -1.99238,33.23068 -28.79221,59.46202 -61.6801,59.46202 -34.18811,0 -61.95731,-28.35753 -61.95731,-63.44512 0,-35.08758 27.7692,-63.58738 61.95731,-63.58738 z m 242.56219,0 c 34.1881,0 61.81871,28.49979 61.81871,63.58738 0,35.08758 -27.63061,63.44514 -61.81871,63.44514 -34.1881,0 -61.95732,-28.35756 -61.95732,-63.44514 0,-23.41501 12.38278,-43.87423 30.77076,-54.90992 l 9.28669,30.01553 0,0.14224 0.97023,2.84508 18.15749,22.19157 c 0,2.08326 1.57393,3.84084 3.60379,3.84084 2.02985,0 3.74239,-1.75758 3.74239,-3.84084 0,-2.08329 -1.71254,-3.69862 -3.74239,-3.69862 l -15.93981,-20.05775 -10.67274,-34.28315 c 7.85952,-3.70652 16.57313,-5.83237 25.78091,-5.83236 z m -196.96049,20.76902 c 9.41251,10.5942 15.35831,24.3999 16.07839,39.68878 l -54.33393,0 z"
       id="path4464"
       inkscape:connector-curvature="0"
       sodipodi:nodetypes="cccscscccscsscccsssccccssssccscccccccccccccccccssscccssccsssscccccsscccscccc"
       inkscape:export-filename="/home/vincent/bikeFriend512-zh.png"
       inkscape:export-xdpi="84.449997"
       inkscape:export-ydpi="84.449997" />
  </g>
  <g
     inkscape:groupmode="layer"
     id="layer2"
     inkscape:label="English"
     style="display:none"
     sodipodi:insensitive="true">
    <path
       sodipodi:type="arc"
       style="fill:url(#radialGradient4007);fill-opacity:1;fill-rule:evenodd;stroke:none;display:inline"
       id="path3940"
       sodipodi:cx="236.08897"
       sodipodi:cy="273.81976"
       sodipodi:rx="192.32614"
       sodipodi:ry="14.395669"
       d="m 428.41512,273.81976 a 192.32614,14.395669 0 1 1 -384.652287,0 192.32614,14.395669 0 1 1 384.652287,0 z"
       transform="matrix(1.234384,0,0,1.6319586,137.46766,-118.3107)" />
    <text
       xml:space="preserve"
       style="font-size:67.58460999px;font-style:normal;font-variant:normal;font-weight:bold;font-stretch:normal;text-align:start;line-height:125%;letter-spacing:0px;word-spacing:0px;writing-mode:lr-tb;text-anchor:start;fill:#000000;fill-opacity:1;stroke:none;display:inline;font-family:Purisa;-inkscape-font-specification:Purisa Bold"
       x="244.42552"
       y="315.95401"
       id="text3936"
       sodipodi:linespacing="125%"
       transform="scale(0.9628966,1.0385331)"><tspan
         sodipodi:role="line"
         id="tspan3938"
         x="244.42552"
         y="315.95401">bikeFriend</tspan></text>
  </g>
  <g
     inkscape:groupmode="layer"
     id="layer3"
     inkscape:label="Chinese"
     style="display:inline">
    <path
       transform="matrix(1.2882762,0,0,3.1784689,135.10918,-561.35389)"
       d="m 428.41512,273.81976 a 192.32614,14.395669 0 1 1 -384.652287,0 192.32614,14.395669 0 1 1 384.652287,0 z"
       sodipodi:ry="14.395669"
       sodipodi:rx="192.32614"
       sodipodi:cy="273.81976"
       sodipodi:cx="236.08897"
       id="path3141"
       style="fill:url(#radialGradient3144);fill-opacity:1;fill-rule:evenodd;stroke:none;display:inline"
       sodipodi:type="arc"
       inkscape:export-filename="/home/vincent/bikeFriend512-zh.png"
       inkscape:export-xdpi="84.449997"
       inkscape:export-ydpi="84.449997" />
    <text
       transform="scale(0.9628966,1.0385331)"
       sodipodi:linespacing="100%"
       id="text3134"
       y="322.20316"
       x="222.85768"
       style="font-size:90.91645091px;font-style:normal;font-variant:normal;font-weight:normal;font-stretch:normal;text-align:start;line-height:100%;letter-spacing:0px;word-spacing:0px;writing-mode:lr;text-anchor:start;fill:#000000;fill-opacity:1;stroke:none;display:inline;font-family:AR PL UKai TW;-inkscape-font-specification:AR PL UKai TW"
       xml:space="preserve"
       inkscape:export-filename="/home/vincent/bikeFriend512-zh.png"
       inkscape:export-xdpi="84.449997"
       inkscape:export-ydpi="84.449997"><tspan
         y="322.20316"
         x="222.85768"
         id="tspan3136"
         sodipodi:role="line">自行車朋友</tspan></text>
  </g>
</svg>
