<?xml version="1.0" encoding="UTF-8" standalone="no"?>
<!-- Created with Inkscape (http://www.inkscape.org/) -->

<svg
   xmlns:osb="http://www.openswatchbook.org/uri/2009/osb"
   xmlns:dc="http://purl.org/dc/elements/1.1/"
   xmlns:cc="http://creativecommons.org/ns#"
   xmlns:rdf="http://www.w3.org/1999/02/22-rdf-syntax-ns#"
   xmlns:svg="http://www.w3.org/2000/svg"
   xmlns="http://www.w3.org/2000/svg"
   xmlns:sodipodi="http://sodipodi.sourceforge.net/DTD/sodipodi-0.dtd"
   xmlns:inkscape="http://www.inkscape.org/namespaces/inkscape"
   width="744.09448819"
   height="1052.3622047"
   id="svg2"
   version="1.1"
   inkscape:version="0.48.5 r10040"
   sodipodi:docname="parking_bicycle.svg">
  <defs
     id="defs4">
    <linearGradient
       osb:paint="solid"
       id="linearGradient3759">
      <stop
         id="stop3761"
         offset="0"
         style="stop-color:#000000;stop-opacity:1;" />
    </linearGradient>
  </defs>
  <sodipodi:namedview
     id="base"
     pagecolor="#ffffff"
     bordercolor="#666666"
     borderopacity="1.0"
     inkscape:pageopacity="0.0"
     inkscape:pageshadow="2"
     inkscape:zoom="0.35"
     inkscape:cx="-275.34775"
     inkscape:cy="647.70591"
     inkscape:document-units="px"
     inkscape:current-layer="layer1"
     showgrid="false"
     inkscape:window-width="1436"
     inkscape:window-height="856"
     inkscape:window-x="4"
     inkscape:window-y="0"
     inkscape:window-maximized="1" />
  <metadata
     id="metadata7">
    <rdf:RDF>
      <cc:Work
         rdf:about="">
        <dc:format>image/svg+xml</dc:format>
        <dc:type
           rdf:resource="http://purl.org/dc/dcmitype/StillImage" />
        <dc:title></dc:title>
      </cc:Work>
    </rdf:RDF>
  </metadata>
  <g
     inkscape:label="Layer 1"
     inkscape:groupmode="layer"
     id="layer1">
    <path
       style="fill:#000000;fill-opacity:1;stroke:none"
       d="m 187.10715,313.79464 c -13.431,0 -24.25001,10.81901 -24.25001,24.25 l 0,115.78125 c 0,13.43099 10.81901,24.25 24.25001,24.25 l 115.78125,0 c 13.43099,0 24.25,-10.81901 24.25,-24.25 l 0,-115.78125 c 0,-13.43099 -10.81901,-24.25 -24.25,-24.25 l -115.78125,0 z m 13.5625,16.875 38.375,0 c 33.51715,1.3e-4 50.28115,13.48654 50.28125,40.4375 -10e-5,27.52457 -15.40204,41.2813 -46.21875,41.28125 l -17.875,0 0,48.8125 -24.5625,0 0,-130.53125 z m 24.5625,17.625 0,46.46875 12.15625,0 c 17.94992,7e-5 26.90618,-7.88693 26.90625,-23.65625 -7e-5,-15.19572 -9.19853,-22.81239 -27.625,-22.8125 l -11.4375,0 z"
       id="rect2985"
       inkscape:connector-curvature="0"
       inkscape:export-filename="/Users/Vincent/Desktop/bike-friend/new-android/art/ic_action_parking.png"
       inkscape:export-xdpi="280.48999"
       inkscape:export-ydpi="280.48999" />
    <path
       style="fill:#000000;fill-opacity:1;stroke:none"
       d="m 425.67411,312.35268 c -13.43099,0 -24.25,10.81901 -24.25,24.25 l 0,11.34375 c 3.24529,0.34431 6.58928,1.07676 9.625,1.8125 5.13702,1.24501 9.25,2.625 9.25,2.625 l 2.1875,0.71875 0.15625,2.28125 c 0,0 0.17566,1.90042 -0.15625,4.03125 -0.16306,1.0468 -0.426,2.1989 -1.1875,3.4375 l 53.375,-8.84375 -3.59375,-10.71875 c -0.33778,-1.01335 -0.25771,-2.27899 0.125,-3.21875 0.29009,-0.71234 0.71783,-1.11557 1.125,-1.53125 -0.53078,0.13842 -0.91738,0.24306 -1.46875,0.375 -2.21132,0.52913 -4.52834,1.00685 -6.78125,1.09375 -2.25291,0.0869 -4.71348,-0.0136 -6.78125,-2 -0.86043,-0.82668 -1.27632,-1.50136 -1.71875,-2.5625 -0.22122,-0.53057 -0.52556,-1.07729 -0.40625,-2.3125 0.0597,-0.61761 0.30871,-1.51562 1,-2.25 0.69129,-0.73438 1.69309,-1.08734 2.40625,-1.15625 l 17.84375,-1.75 0.0312,0 0.0312,0 c 0,0 0.27533,-0.0439 0.71875,-0.0625 0.44342,-0.0187 1.05493,-0.0121 1.71875,0.0312 1.32763,0.0867 3.01329,-0.0869 4.96875,1.8125 2.85926,2.77734 3.41627,6.63863 2.15625,10.125 -0.5983,1.65547 -1.83205,2.45678 -2.6875,2.90625 -0.46785,0.24581 -0.75592,0.32837 -1.125,0.46875 l 8.53125,26.53125 c 4.97254,-1.72245 10.28071,-2.75 15.84375,-2.75 26.88686,0 48.6875,21.902 48.6875,48.78125 0,26.87928 -21.80064,48.78125 -48.6875,48.78125 -26.88686,0 -48.78125,-21.89438 -48.78125,-48.78125 0,-8.53359 2.28578,-16.489 6.15625,-23.46875 l -28.4375,28.25 -1,0.96875 -1.40625,0 -24.40625,0 c -0.88827,7.48469 -3.46364,14.46408 -7.3125,20.53125 l 0,10.3125 c 0,13.43099 10.81901,24.21875 24.25,24.21875 l 115.78125,0 c 13.43099,0 24.25,-10.78776 24.25,-24.21875 l 0,-115.8125 c 0,-13.43099 -10.81901,-24.25 -24.25,-24.25 l -115.78125,0 z m 51.5,51.5 -64.1875,10.625 10.46875,36.09375 5.96875,0 47.75,-46.71875 z m -73.1875,15.6875 -2.5625,2.59375 0,7.4375 c 3.98268,6.18374 6.60046,13.29579 7.4375,21 l 4.125,0 -9,-31.03125 z m 102.625,2.4375 c -3.9718,0 -7.70603,0.88413 -11.25,2.15625 l 5.1875,16.25 8.53125,10.4375 c 2.08954,0.79791 3.6875,2.77121 3.6875,5.1875 0,3.14472 -2.51157,5.65625 -5.65625,5.65625 -2.54282,0 -4.54534,-1.77959 -5.25,-4.03125 l -10.46875,-12.4375 -0.40625,-0.5 -0.1875,-0.5625 -0.59375,-1.6875 -0.1875,-0.53125 0,-0.15625 -4.0625,-12.71875 c -8.02628,6.18695 -13.1875,15.85678 -13.1875,26.78125 0,18.71153 15.123,33.78125 33.84375,33.78125 18.72077,0 33.75,-15.06048 33.75,-33.78125 0,-18.72075 -15.03847,-33.84375 -33.75,-33.84375 z"
       id="rect3761"
       inkscape:export-filename="/Users/Vincent/Desktop/bike-friend/new-android/art/ic_action_bicycle.png"
       inkscape:export-xdpi="280.48999"
       inkscape:export-ydpi="280.48999"
       inkscape:connector-curvature="0" />
    <rect
       style="fill:#2964bc;fill-opacity:1;stroke:none"
       id="rect4239"
       width="164.28572"
       height="164.28572"
       x="401.42856"
       y="88.790756"
       ry="24.243662" />
    <path
       id="path4241"
       d="m 477.20536,104.34375 c -0.44342,0.0186 -0.71875,0.0625 -0.71875,0.0625 l -0.0312,0 -0.0312,0 -17.84375,1.75 c -0.71316,0.0689 -1.71496,0.42187 -2.40625,1.15625 -0.69129,0.73438 -0.94035,1.63239 -1,2.25 -0.11931,1.23521 0.18503,1.78193 0.40625,2.3125 0.44243,1.06115 0.85832,1.73582 1.71875,2.5625 2.06777,1.98642 4.52834,2.0869 6.78125,2 2.25291,-0.0869 4.56993,-0.56462 6.78125,-1.09375 0.55137,-0.13193 0.93797,-0.23657 1.46875,-0.375 -0.40717,0.41568 -0.83491,0.81891 -1.125,1.53125 -0.38271,0.93976 -0.46278,2.2054 -0.125,3.21875 l 3.59375,10.71875 -53.375,8.84375 c 0.7615,-1.2386 1.02444,-2.3907 1.1875,-3.4375 0.33191,-2.13083 0.15625,-4.03125 0.15625,-4.03125 l -0.15625,-2.28125 -2.1875,-0.71875 c 0,0 -4.11298,-1.37999 -9.25,-2.625 -5.13702,-1.24501 -11.13976,-2.47592 -16.09375,-1.84375 -2.09387,0.26719 -3.49659,1.26281 -4.8125,2.375 -1.31591,1.11219 -2.46515,2.45505 -3.40625,3.84375 -0.9411,1.3887 -1.73791,2.72072 -1.96875,4.59375 -0.11542,0.93651 -0.0849,2.20239 0.71875,3.40625 0.80362,1.20386 2.31044,1.87741 3.46875,2 3.0549,0.32331 8.28462,0.48005 10.75,0.5625 l 1.25,4.3125 -9.28125,9.375 c -8.43209,-7.0012 -19.16866,-11.34375 -30.96875,-11.34375 -26.88689,0 -48.78125,21.89441 -48.78125,48.78125 0,26.88687 21.89436,48.78125 48.78125,48.78125 24.9166,0 45.16508,-18.88048 48.03125,-43.03125 l 24.40615,0 1.40625,0 1,-0.96875 28.4375,-28.25 c -3.87047,6.97975 -6.15625,14.93516 -6.15625,23.46875 0,26.88687 21.89439,48.78125 48.78125,48.78125 26.88686,0 48.6875,-21.90197 48.6875,-48.78125 0,-26.87925 -21.80064,-48.78125 -48.6875,-48.78125 -5.56304,0 -10.87121,1.02755 -15.84375,2.75 l -8.53125,-26.53125 c 0.36908,-0.14038 0.65715,-0.22293 1.125,-0.46875 0.85545,-0.44947 2.0892,-1.25078 2.6875,-2.90625 1.26002,-3.48637 0.70301,-7.34766 -2.15625,-10.125 -1.95546,-1.89944 -3.64112,-1.72576 -4.96875,-1.8125 -0.66382,-0.0434 -1.27533,-0.0499 -1.71875,-0.0312 z m -0.0312,35.9375 -47.75,46.71875 -5.96875,0 -10.46875,-36.09375 64.1875,-10.625 z m -73.1875,15.6875 9,31.03125 -4.125,0 c -1.03868,-9.56013 -4.78794,-18.22751 -10.53125,-25.3125 l 5.65625,-5.71875 z m -43.28125,2.4375 c 7.71413,0 14.69832,2.71119 20.375,7.0625 l -21.15625,21.5 c -0.19181,-0.0205 -0.37526,-0.125 -0.5625,-0.125 -3.17902,0 -5.59375,2.6347 -5.59375,5.65625 0,3.02155 2.57222,5.59375 5.59375,5.59375 1.00047,0 0.83971,-0.0768 0.65625,-0.0937 l 33.78125,0 c -2.73371,15.91998 -16.35263,28.03125 -33.09375,28.03125 -18.72078,0 -33.84375,-15.06972 -33.84375,-33.78125 0,-18.71151 15.13221,-33.84375 33.84375,-33.84375 z m 145.90625,0 c 18.71153,0 33.75,15.123 33.75,33.84375 0,18.72077 -15.02923,33.78125 -33.75,33.78125 -18.72075,0 -33.84375,-15.06972 -33.84375,-33.78125 0,-10.92447 5.16122,-20.5943 13.1875,-26.78125 l 4.0625,12.71875 0,0.15625 0.1875,0.53125 0.59375,1.6875 0.1875,0.5625 0.40625,0.5 10.46875,12.4375 c 0.70466,2.25166 2.70718,4.03125 5.25,4.03125 3.14468,0 5.65625,-2.51153 5.65625,-5.65625 0,-2.41629 -1.59796,-4.38959 -3.6875,-5.1875 l -8.53125,-10.4375 -5.1875,-16.25 c 3.54397,-1.27212 7.2782,-2.15625 11.25,-2.15625 z m -118.8125,13.9375 c 3.12081,4.2494 5.24174,9.21479 6.09375,14.65625 l -20.5625,0 14.46875,-14.65625 z"
       style="fill:#db0000;fill-opacity:1;fill-rule:evenodd;stroke:none"
       inkscape:connector-curvature="0" />
    <path
       inkscape:export-ydpi="280.48999"
       inkscape:export-xdpi="280.48999"
       inkscape:export-filename="/Users/Vincent/Desktop/bike-friend/new-android/art/ic_action_parking_grey.png"
       inkscape:connector-curvature="0"
       id="path3320"
       d="m 187.10715,548.08036 c -13.431,0 -24.25001,10.81901 -24.25001,24.25 l 0,115.78124 c 0,13.43099 10.81901,24.25 24.25001,24.25 l 115.78125,0 c 13.43099,0 24.25,-10.81901 24.25,-24.25 l 0,-115.78124 c 0,-13.43099 -10.81901,-24.25 -24.25,-24.25 l -115.78125,0 z m 13.5625,16.875 38.375,0 c 33.51715,1.3e-4 50.28115,13.48654 50.28125,40.43749 -10e-5,27.52457 -15.40204,41.2813 -46.21875,41.28125 l -17.875,0 0,48.8125 -24.5625,0 0,-130.53124 z m 24.5625,17.625 0,46.46874 12.15625,0 c 17.94992,7e-5 26.90618,-7.88693 26.90625,-23.65625 -7e-5,-15.19572 -9.19853,-22.81238 -27.625,-22.81249 l -11.4375,0 z"
       style="fill:#333333;fill-opacity:0.6;stroke:none" />
    <path
       inkscape:export-ydpi="280.48999"
       inkscape:export-xdpi="280.48999"
       inkscape:export-filename="/Users/Vincent/Desktop/bike-friend/new-android/art/ic_action_bicycle_grey.png"
       id="path3322"
       d="m 425.67411,546.63839 c -13.43099,0 -24.25,10.81902 -24.25,24.25 l 0,11.34375 c 3.24529,0.34432 6.58928,1.07676 9.625,1.8125 5.13702,1.24501 9.25,2.625 9.25,2.625 l 2.1875,0.71875 0.15625,2.28125 c 0,0 0.17566,1.90042 -0.15625,4.03125 -0.16306,1.0468 -0.426,2.1989 -1.1875,3.4375 l 53.375,-8.84375 -3.59375,-10.71875 c -0.33778,-1.01335 -0.25771,-2.27899 0.125,-3.21875 0.29009,-0.71234 0.71783,-1.11556 1.125,-1.53125 -0.53078,0.13843 -0.91738,0.24307 -1.46875,0.375 -2.21132,0.52914 -4.52834,1.00685 -6.78125,1.09375 -2.25291,0.0869 -4.71348,-0.0136 -6.78125,-2 -0.86043,-0.82668 -1.27632,-1.50135 -1.71875,-2.5625 -0.22122,-0.53057 -0.52556,-1.07728 -0.40625,-2.3125 0.0596,-0.6176 0.30871,-1.51562 1,-2.25 0.69129,-0.73437 1.69309,-1.08734 2.40625,-1.15625 l 17.84375,-1.75 0.0312,0 0.0312,0 c 0,0 0.27533,-0.0438 0.71875,-0.0625 0.44342,-0.0186 1.05493,-0.0121 1.71875,0.0312 1.32763,0.0867 3.01329,-0.0869 4.96875,1.8125 2.85926,2.77735 3.41627,6.63864 2.15625,10.125 -0.5983,1.65548 -1.83205,2.45679 -2.6875,2.90625 -0.46785,0.24582 -0.75592,0.32838 -1.125,0.46875 l 8.53125,26.53125 c 4.97254,-1.72245 10.28071,-2.75 15.84375,-2.75 26.88686,0 48.6875,21.902 48.6875,48.78125 0,26.87928 -21.80064,48.78125 -48.6875,48.78125 -26.88686,0 -48.78125,-21.89438 -48.78125,-48.78125 0,-8.53359 2.28578,-16.489 6.15625,-23.46875 l -28.4375,28.25 -1,0.96875 -1.40625,0 -24.40625,0 c -0.88827,7.48469 -3.46364,14.46408 -7.3125,20.53125 l 0,10.3125 c 0,13.43099 10.81901,24.21875 24.25,24.21875 l 115.78125,0 c 13.43099,0 24.25,-10.78776 24.25,-24.21875 l 0,-115.8125 c 0,-13.43098 -10.81901,-24.25 -24.25,-24.25 l -115.78125,0 z m 51.5,51.5 -64.1875,10.625 10.46875,36.09375 5.96875,0 47.75,-46.71875 z m -73.1875,15.6875 -2.5625,2.59375 0,7.4375 c 3.98268,6.18374 6.60046,13.29579 7.4375,21 l 4.125,0 -9,-31.03125 z m 102.625,2.4375 c -3.9718,0 -7.70603,0.88413 -11.25,2.15625 l 5.1875,16.25 8.53125,10.4375 c 2.08954,0.79791 3.6875,2.77121 3.6875,5.1875 0,3.14472 -2.51157,5.65625 -5.65625,5.65625 -2.54282,0 -4.54534,-1.77959 -5.25,-4.03125 l -10.46875,-12.4375 -0.40625,-0.5 -0.1875,-0.5625 -0.59375,-1.6875 -0.1875,-0.53125 0,-0.15625 -4.0625,-12.71875 c -8.02628,6.18695 -13.1875,15.85678 -13.1875,26.78125 0,18.71153 15.123,33.78125 33.84375,33.78125 18.72077,0 33.75,-15.06048 33.75,-33.78125 0,-18.72075 -15.03847,-33.84375 -33.75,-33.84375 z"
       style="fill:#333333;fill-opacity:0.6;stroke:none"
       inkscape:connector-curvature="0" />
  </g>
</svg>
