<?xml version="1.0" encoding="UTF-8" standalone="no"?>
<!-- Created with Inkscape (http://www.inkscape.org/) -->

<svg
   xmlns:dc="http://purl.org/dc/elements/1.1/"
   xmlns:cc="http://creativecommons.org/ns#"
   xmlns:rdf="http://www.w3.org/1999/02/22-rdf-syntax-ns#"
   xmlns:svg="http://www.w3.org/2000/svg"
   xmlns="http://www.w3.org/2000/svg"
   xmlns:xlink="http://www.w3.org/1999/xlink"
   xmlns:sodipodi="http://sodipodi.sourceforge.net/DTD/sodipodi-0.dtd"
   xmlns:inkscape="http://www.inkscape.org/namespaces/inkscape"
   width="744.09448819"
   height="1052.3622047"
   id="svg2985"
   version="1.1"
   inkscape:version="0.48.5 r10040"
   sodipodi:docname="pbike-like.svg">
  <defs
     id="defs2987">
    <linearGradient
       inkscape:collect="always"
       id="linearGradient6349">
      <stop
         style="stop-color:#f0a98a;stop-opacity:1;"
         offset="0"
         id="stop6351" />
      <stop
         style="stop-color:#f0a98a;stop-opacity:0;"
         offset="1"
         id="stop6353" />
    </linearGradient>
    <linearGradient
       id="linearGradient3971">
      <stop
         style="stop-color:#303030;stop-opacity:1;"
         offset="0"
         id="stop3973" />
      <stop
         style="stop-color:#b3b3b3;stop-opacity:1;"
         offset="1"
         id="stop3975" />
    </linearGradient>
    <linearGradient
       id="linearGradient3963">
      <stop
         style="stop-color:#a8a8a8;stop-opacity:1;"
         offset="0"
         id="stop3965" />
      <stop
         id="stop3979"
         offset="0.4642857"
         style="stop-color:#f6f6f6;stop-opacity:1;" />
      <stop
         style="stop-color:#ffffff;stop-opacity:1;"
         offset="1"
         id="stop3967" />
    </linearGradient>
    <linearGradient
       inkscape:collect="always"
       xlink:href="#linearGradient6349"
       id="linearGradient6355"
       x1="146.78572"
       y1="740.11646"
       x2="592.32918"
       y2="740.11646"
       gradientUnits="userSpaceOnUse"
       gradientTransform="matrix(0.92866159,0,0,1,-1076.1674,-363.41613)" />
  </defs>
  <sodipodi:namedview
     id="base"
     pagecolor="#ffffff"
     bordercolor="#666666"
     borderopacity="1.0"
     inkscape:pageopacity="0.0"
     inkscape:pageshadow="2"
     inkscape:zoom="0.7"
     inkscape:cx="328.13622"
     inkscape:cy="355.93651"
     inkscape:document-units="px"
     inkscape:current-layer="layer1"
     showgrid="false"
     inkscape:window-width="1436"
     inkscape:window-height="855"
     inkscape:window-x="5"
     inkscape:window-y="8"
     inkscape:window-maximized="0" />
  <metadata
     id="metadata2990">
    <rdf:RDF>
      <cc:Work
         rdf:about="">
        <dc:format>image/svg+xml</dc:format>
        <dc:type
           rdf:resource="http://purl.org/dc/dcmitype/StillImage" />
        <dc:title></dc:title>
      </cc:Work>
    </rdf:RDF>
  </metadata>
  <g
     inkscape:label="Layer 1"
     inkscape:groupmode="layer"
     id="layer1"
     style="display:inline">
    <g
       id="g6365"
       inkscape:export-xdpi="109.98"
       inkscape:export-ydpi="109.98">
      <rect
         transform="matrix(0,-1,1,0,0,0)"
         ry="64.444405"
         y="174.45457"
         x="-932.88818"
         height="404.49146"
         width="399.82916"
         id="rect4015"
         style="fill:url(#linearGradient6355);fill-opacity:1;stroke:#808080;stroke-width:14.45506382;stroke-linecap:round;stroke-linejoin:round;stroke-miterlimit:4;stroke-opacity:1;stroke-dasharray:none;stroke-dashoffset:0" />
      <g
         style="fill:#272426;fill-opacity:1"
         transform="matrix(0.87919567,0,0,0.87919567,-76.814532,347.77156)"
         id="g6339">
        <path
           style="fill:#272426;fill-opacity:1;stroke:none"
           d="m 525.49107,241.71429 c -17.41958,0 -34.04077,3.40069 -49.25,9.5625 16.2849,10.70622 28.15215,27.53491 32.375,47.21875 5.43031,-1.22375 11.07487,-1.90625 16.875,-1.90625 42.19467,0 76.40625,34.18033 76.40625,76.375 0,42.19467 -34.21158,76.40625 -76.40625,76.40625 -18.26601,0 -35.04242,-6.40108 -48.1875,-17.09375 l 0,62.78125 c 14.92328,5.89472 31.16904,9.15625 48.1875,9.15625 72.48829,0 131.25,-58.76171 131.25,-131.25 0,-72.48829 -58.76171,-131.25 -131.25,-131.25 z"
           id="path6305"
           inkscape:connector-curvature="0" />
        <g
           style="fill:#272426;fill-opacity:1"
           id="g6320">
          <path
             inkscape:connector-curvature="0"
             id="rect6303"
             d="m 462.28125,335.21875 c -5.8796,9.84185 -16.63985,16.4375 -28.9375,16.4375 -12.15789,0 -22.79676,-6.43723 -28.71875,-16.09375 -5.56114,7.88673 -8.90625,18.10408 -8.90625,29.28125 l 0,233.625 c 0,25.11296 16.87089,45.3125 37.84375,45.3125 20.97286,0 37.875,-20.19954 37.875,-45.3125 l 0,-233.625 c 0,-11.34084 -3.44805,-21.69203 -9.15625,-29.625 z"
             style="fill:#272426;fill-opacity:1;stroke:none" />
          <path
             inkscape:connector-curvature="0"
             id="path5520"
             d="m 433.34375,250.3125 c -37.37875,0 -67.65625,30.2775 -67.65625,67.65625 0,37.37875 30.2775,67.6875 67.65625,67.6875 37.37875,0 67.6875,-30.30875 67.6875,-67.6875 0,-37.37875 -30.30875,-67.65625 -67.6875,-67.65625 z m 0,34 c 18.60187,0 33.6875,15.05438 33.6875,33.65625 0,18.60187 -15.08563,33.6875 -33.6875,33.6875 -18.60187,0 -33.65625,-15.08563 -33.65625,-33.6875 0,-18.60187 15.05438,-33.65625 33.65625,-33.65625 z"
             style="fill:#272426;fill-opacity:1;stroke:none" />
        </g>
      </g>
    </g>
  </g>
</svg>
