<?xml version="1.0" encoding="UTF-8" standalone="no"?>
<!-- Created with Inkscape (http://www.inkscape.org/) -->

<svg
   xmlns:dc="http://purl.org/dc/elements/1.1/"
   xmlns:cc="http://creativecommons.org/ns#"
   xmlns:rdf="http://www.w3.org/1999/02/22-rdf-syntax-ns#"
   xmlns:svg="http://www.w3.org/2000/svg"
   xmlns="http://www.w3.org/2000/svg"
   xmlns:xlink="http://www.w3.org/1999/xlink"
   xmlns:sodipodi="http://sodipodi.sourceforge.net/DTD/sodipodi-0.dtd"
   xmlns:inkscape="http://www.inkscape.org/namespaces/inkscape"
   width="744.09448819"
   height="1052.3622047"
   id="svg2"
   version="1.1"
   inkscape:version="0.48.5 r10040"
   sodipodi:docname="stars.svg">
  <defs
     id="defs4">
    <linearGradient
       id="linearGradient3830">
      <stop
         style="stop-color:#98960a;stop-opacity:1;"
         offset="0"
         id="stop3832" />
      <stop
         id="stop3838"
         offset="0.25"
         style="stop-color:#f0ed10;stop-opacity:1;" />
      <stop
         style="stop-color:#f8f794;stop-opacity:1;"
         offset="0.75"
         id="stop3840" />
      <stop
         style="stop-color:#ffffff;stop-opacity:1;"
         offset="1"
         id="stop3834" />
    </linearGradient>
    <linearGradient
       inkscape:collect="always"
       xlink:href="#linearGradient3830"
       id="linearGradient3836"
       x1="324.77771"
       y1="413.1918"
       x2="324.77771"
       y2="193.97963"
       gradientUnits="userSpaceOnUse" />
    <linearGradient
       inkscape:collect="always"
       xlink:href="#linearGradient3830"
       id="linearGradient3873"
       gradientUnits="userSpaceOnUse"
       x1="324.77771"
       y1="413.1918"
       x2="324.77771"
       y2="193.97963" />
    <linearGradient
       inkscape:collect="always"
       xlink:href="#linearGradient3830"
       id="linearGradient3898"
       gradientUnits="userSpaceOnUse"
       x1="324.77771"
       y1="413.1918"
       x2="324.77771"
       y2="193.97963" />
  </defs>
  <sodipodi:namedview
     id="base"
     pagecolor="#ffffff"
     bordercolor="#666666"
     borderopacity="1.0"
     inkscape:pageopacity="0.0"
     inkscape:pageshadow="2"
     inkscape:zoom="0.24748737"
     inkscape:cx="245.47543"
     inkscape:cy="642.52715"
     inkscape:document-units="px"
     inkscape:current-layer="layer1"
     showgrid="false"
     inkscape:window-width="1436"
     inkscape:window-height="856"
     inkscape:window-x="4"
     inkscape:window-y="0"
     inkscape:window-maximized="1" />
  <metadata
     id="metadata7">
    <rdf:RDF>
      <cc:Work
         rdf:about="">
        <dc:format>image/svg+xml</dc:format>
        <dc:type
           rdf:resource="http://purl.org/dc/dcmitype/StillImage" />
        <dc:title></dc:title>
      </cc:Work>
    </rdf:RDF>
  </metadata>
  <g
     inkscape:label="Layer 1"
     inkscape:groupmode="layer"
     id="layer1">
    <g
       id="g3886"
       inkscape:export-filename="/Users/Vincent/Desktop/wip_stars.png"
       inkscape:export-xdpi="59.163654"
       inkscape:export-ydpi="59.163654"
       transform="matrix(1.5576862,0,0,1.5576862,-229.16487,-68.49987)">
      <path
         transform="translate(64.649763,-60.609153)"
         inkscape:transform-center-y="-11.196125"
         d="m 325.26914,195.68317 c 10.8075,0 27.13606,61.51093 35.87952,67.86342 8.74345,6.35249 72.28962,2.87396 75.62932,13.1525 3.3397,10.27855 -50.11486,44.81586 -53.45456,55.0944 -3.33971,10.27855 19.60542,69.63962 10.86197,75.99211 -8.74346,6.35249 -58.10875,-33.8132 -68.91626,-33.8132 -10.8075,0 -60.1728,40.16569 -68.91625,33.8132 -8.74346,-6.35249 14.20167,-65.71356 10.86197,-75.99211 -3.3397,-10.27855 -56.79426,-44.81586 -53.45456,-55.0944 3.3397,-10.27855 66.88587,-6.80001 75.62933,-13.1525 8.74345,-6.35249 25.07202,-67.86342 35.87952,-67.86342 z"
         inkscape:randomized="0"
         inkscape:rounded="0.14078783"
         inkscape:flatsided="false"
         sodipodi:arg2="-0.94247777"
         sodipodi:arg1="-1.5707963"
         sodipodi:r2="61.041885"
         sodipodi:r1="117.24734"
         sodipodi:cy="312.93051"
         sodipodi:cx="325.26913"
         sodipodi:sides="5"
         id="path5451"
         style="fill:url(#linearGradient3898);fill-opacity:1;stroke:#000000;stroke-width:10;stroke-linecap:round;stroke-linejoin:round;stroke-miterlimit:4;stroke-opacity:1;stroke-dasharray:none;stroke-dashoffset:0"
         sodipodi:type="star" />
      <g
         transform="translate(0.27603675,0)"
         id="g3878">
        <path
           sodipodi:type="arc"
           style="fill:#000000;fill-opacity:1;stroke:none"
           id="path5459"
           sodipodi:cx="352.85715"
           sodipodi:cy="240.93361"
           sodipodi:rx="8.6655197"
           sodipodi:ry="29.185465"
           d="m 361.52267,240.93361 c 0,16.11869 -3.87969,29.18546 -8.66552,29.18546 -4.78584,0 -8.66552,-13.06677 -8.66552,-29.18546 0,-16.11869 3.87968,-29.18547 8.66552,-29.18547 4.78583,0 8.66552,13.06678 8.66552,29.18547 z"
           transform="matrix(1,0,0,0.68183771,17.857143,78.08456)" />
        <path
           transform="matrix(1,0,0,0.68183771,55.714286,78.08456)"
           d="m 361.52267,240.93361 c 0,16.11869 -3.87969,29.18546 -8.66552,29.18546 -4.78584,0 -8.66552,-13.06677 -8.66552,-29.18546 0,-16.11869 3.87968,-29.18547 8.66552,-29.18547 4.78583,0 8.66552,13.06678 8.66552,29.18547 z"
           sodipodi:ry="29.185465"
           sodipodi:rx="8.6655197"
           sodipodi:cy="240.93361"
           sodipodi:cx="352.85715"
           id="path5461"
           style="fill:#000000;fill-opacity:1;stroke:none"
           sodipodi:type="arc" />
      </g>
    </g>
    <g
       id="g3892"
       inkscape:export-filename="/Users/Vincent/Desktop/wip_stars.png"
       inkscape:export-xdpi="59.163654"
       inkscape:export-ydpi="59.163654"
       transform="matrix(1.5576862,0,0,1.5576862,-229.16487,-68.49987)">
      <path
         sodipodi:type="star"
         style="fill:#bebebe;fill-opacity:1;stroke:#646464;stroke-width:10;stroke-linecap:round;stroke-linejoin:round;stroke-miterlimit:4;stroke-opacity:1;stroke-dasharray:none;stroke-dashoffset:0"
         id="path3853"
         sodipodi:sides="5"
         sodipodi:cx="325.26913"
         sodipodi:cy="312.93051"
         sodipodi:r1="117.24734"
         sodipodi:r2="61.041885"
         sodipodi:arg1="-1.5707963"
         sodipodi:arg2="-0.94247777"
         inkscape:flatsided="false"
         inkscape:rounded="0.14078783"
         inkscape:randomized="0"
         d="m 325.26914,195.68317 c 10.8075,0 27.13606,61.51093 35.87952,67.86342 8.74345,6.35249 72.28962,2.87396 75.62932,13.1525 3.3397,10.27855 -50.11486,44.81586 -53.45456,55.0944 -3.33971,10.27855 19.60542,69.63962 10.86197,75.99211 -8.74346,6.35249 -58.10875,-33.8132 -68.91626,-33.8132 -10.8075,0 -60.1728,40.16569 -68.91625,33.8132 -8.74346,-6.35249 14.20167,-65.71356 10.86197,-75.99211 -3.3397,-10.27855 -56.79426,-44.81586 -53.45456,-55.0944 3.3397,-10.27855 66.88587,-6.80001 75.62933,-13.1525 8.74345,-6.35249 25.07202,-67.86342 35.87952,-67.86342 z"
         inkscape:transform-center-y="-11.196125"
         transform="translate(64.649763,216.53371)" />
      <g
         transform="translate(0.27603675,0)"
         id="g3882">
        <path
           transform="matrix(1,0,0,0.68183771,17.857143,355.22742)"
           d="m 361.52267,240.93361 c 0,16.11869 -3.87969,29.18546 -8.66552,29.18546 -4.78584,0 -8.66552,-13.06677 -8.66552,-29.18546 0,-16.11869 3.87968,-29.18547 8.66552,-29.18547 4.78583,0 8.66552,13.06678 8.66552,29.18547 z"
           sodipodi:ry="29.185465"
           sodipodi:rx="8.6655197"
           sodipodi:cy="240.93361"
           sodipodi:cx="352.85715"
           id="path3855"
           style="fill:#646464;fill-opacity:1;stroke:none"
           sodipodi:type="arc" />
        <path
           sodipodi:type="arc"
           style="fill:#646464;fill-opacity:1;stroke:none"
           id="path3857"
           sodipodi:cx="352.85715"
           sodipodi:cy="240.93361"
           sodipodi:rx="8.6655197"
           sodipodi:ry="29.185465"
           d="m 361.52267,240.93361 c 0,16.11869 -3.87969,29.18546 -8.66552,29.18546 -4.78584,0 -8.66552,-13.06677 -8.66552,-29.18546 0,-16.11869 3.87968,-29.18547 8.66552,-29.18547 4.78583,0 8.66552,13.06678 8.66552,29.18547 z"
           transform="matrix(1,0,0,0.68183771,55.714286,355.22742)" />
      </g>
    </g>
  </g>
</svg>
