<?xml version="1.0" encoding="UTF-8" standalone="no"?>
<!-- Created with Inkscape (http://www.inkscape.org/) -->

<svg
   xmlns:dc="http://purl.org/dc/elements/1.1/"
   xmlns:cc="http://creativecommons.org/ns#"
   xmlns:rdf="http://www.w3.org/1999/02/22-rdf-syntax-ns#"
   xmlns:svg="http://www.w3.org/2000/svg"
   xmlns="http://www.w3.org/2000/svg"
   xmlns:sodipodi="http://sodipodi.sourceforge.net/DTD/sodipodi-0.dtd"
   xmlns:inkscape="http://www.inkscape.org/namespaces/inkscape"
   width="744.09448819"
   height="1052.3622047"
   id="svg2"
   version="1.1"
   inkscape:version="0.48.5 r10040"
   sodipodi:docname="chronometer.svg">
  <defs
     id="defs4" />
  <sodipodi:namedview
     id="base"
     pagecolor="#ffffff"
     bordercolor="#666666"
     borderopacity="1.0"
     inkscape:pageopacity="0.0"
     inkscape:pageshadow="2"
     inkscape:zoom="0.35"
     inkscape:cx="342.94842"
     inkscape:cy="348.09648"
     inkscape:document-units="px"
     inkscape:current-layer="layer1"
     showgrid="false"
     showguides="true"
     inkscape:guide-bbox="true"
     inkscape:window-width="1361"
     inkscape:window-height="855"
     inkscape:window-x="4"
     inkscape:window-y="0"
     inkscape:window-maximized="0">
    <sodipodi:guide
       position="0,0"
       orientation="0,744.09448"
       id="guide4206" />
    <sodipodi:guide
       position="744.09448,0"
       orientation="-1052.3622,0"
       id="guide4208" />
    <sodipodi:guide
       position="744.09448,1052.3622"
       orientation="0,-744.09448"
       id="guide4210" />
    <sodipodi:guide
       position="0,1052.3622"
       orientation="1052.3622,0"
       id="guide4212" />
  </sodipodi:namedview>
  <metadata
     id="metadata7">
    <rdf:RDF>
      <cc:Work
         rdf:about="">
        <dc:format>image/svg+xml</dc:format>
        <dc:type
           rdf:resource="http://purl.org/dc/dcmitype/StillImage" />
        <dc:title></dc:title>
      </cc:Work>
    </rdf:RDF>
  </metadata>
  <g
     inkscape:label="Layer 1"
     inkscape:groupmode="layer"
     id="layer1">
    <g
       id="g3915"
       transform="matrix(0.83694372,0,0,0.83694372,211.01803,-406.83839)"
       inkscape:export-filename="/Users/Vincent/Desktop/bike-friend/new-android/art/chronometer_512.png"
       inkscape:export-xdpi="102.74612"
       inkscape:export-ydpi="102.74612">
      <path
         transform="matrix(1.3989647,0,0,1.3989647,-103.7752,587.25133)"
         d="m 342.14285,189.50504 c 0,69.03559 -55.9644,125 -125,125 -69.03559,0 -124.999997,-55.96441 -124.999997,-125 0,-69.0356 55.964407,-125.000005 124.999997,-125.000005 69.0356,0 125,55.964405 125,125.000005 z"
         sodipodi:ry="125"
         sodipodi:rx="125"
         sodipodi:cy="189.50504"
         sodipodi:cx="217.14285"
         id="path3761"
         style="fill:none;stroke:#000000;stroke-width:27;stroke-linecap:round;stroke-linejoin:round;stroke-miterlimit:4;stroke-opacity:1;stroke-dasharray:none;stroke-dashoffset:0"
         sodipodi:type="arc" />
      <rect
         y="722.46313"
         x="199.40356"
         height="124.14774"
         width="0.94440722"
         id="rect3763"
         style="fill:none;stroke:#000000;stroke-width:15;stroke-linecap:round;stroke-linejoin:round;stroke-miterlimit:4;stroke-opacity:1;stroke-dasharray:none;stroke-dashoffset:0" />
      <rect
         transform="matrix(0,1,-1,0,0,0)"
         style="fill:none;stroke:#000000;stroke-width:20;stroke-linecap:round;stroke-linejoin:round;stroke-miterlimit:4;stroke-opacity:1;stroke-dasharray:none;stroke-dashoffset:0"
         id="rect3789"
         width="18.037842"
         height="134.31998"
         x="607.63007"
         y="-265.29315" />
      <rect
         style="fill:none;stroke:#000000;stroke-width:22.70220375;stroke-linecap:round;stroke-linejoin:miter;stroke-miterlimit:4;stroke-opacity:1;stroke-dasharray:none;stroke-dashoffset:0"
         id="rect3802"
         width="7.692266"
         height="28.094814"
         x="193.91434"
         y="632.12738" />
      <rect
         y="681.37622"
         x="197.93149"
         height="21.213203"
         width="2.5253813"
         id="rect3804"
         style="fill:none;stroke:#000000;stroke-width:10;stroke-linecap:round;stroke-linejoin:miter;stroke-miterlimit:4;stroke-opacity:1;stroke-dasharray:none;stroke-dashoffset:0" />
      <rect
         style="fill:none;stroke:#000000;stroke-width:10;stroke-linecap:round;stroke-linejoin:miter;stroke-miterlimit:4;stroke-opacity:1;stroke-dasharray:none;stroke-dashoffset:0"
         id="rect3833"
         width="2.5253813"
         height="21.213203"
         x="197.93149"
         y="1001.3762" />
      <rect
         transform="matrix(0,1,-1,0,0,0)"
         style="fill:none;stroke:#000000;stroke-width:10;stroke-linecap:round;stroke-linejoin:miter;stroke-miterlimit:4;stroke-opacity:1;stroke-dasharray:none;stroke-dashoffset:0"
         id="rect3847"
         width="2.5253813"
         height="21.213203"
         x="850.72015"
         y="-368.37219" />
      <rect
         transform="matrix(0,1,-1,0,0,0)"
         y="-48.372208"
         x="850.72015"
         height="21.213203"
         width="2.5253813"
         id="rect3849"
         style="fill:none;stroke:#000000;stroke-width:10;stroke-linecap:round;stroke-linejoin:miter;stroke-miterlimit:4;stroke-opacity:1;stroke-dasharray:none;stroke-dashoffset:0" />
      <rect
         transform="matrix(0.70710678,0.70710678,-0.70710678,0.70710678,0,0)"
         style="fill:none;stroke:#000000;stroke-width:10;stroke-linecap:round;stroke-linejoin:miter;stroke-miterlimit:4;stroke-opacity:1;stroke-dasharray:none;stroke-dashoffset:0"
         id="rect3865"
         width="2.5253813"
         height="21.213203"
         x="741.02155"
         y="291.99484" />
      <rect
         transform="matrix(0.70710678,0.70710678,-0.70710678,0.70710678,0,0)"
         y="611.99481"
         x="741.02155"
         height="21.213203"
         width="2.5253813"
         id="rect3867"
         style="fill:none;stroke:#000000;stroke-width:10;stroke-linecap:round;stroke-linejoin:miter;stroke-miterlimit:4;stroke-opacity:1;stroke-dasharray:none;stroke-dashoffset:0" />
      <rect
         y="-912.89081"
         x="461.33878"
         height="21.213203"
         width="2.5253813"
         id="rect3869"
         style="fill:none;stroke:#000000;stroke-width:10;stroke-linecap:round;stroke-linejoin:miter;stroke-miterlimit:4;stroke-opacity:1;stroke-dasharray:none;stroke-dashoffset:0"
         transform="matrix(-0.70710678,0.70710678,-0.70710678,-0.70710678,0,0)" />
      <rect
         style="fill:none;stroke:#000000;stroke-width:10;stroke-linecap:round;stroke-linejoin:miter;stroke-miterlimit:4;stroke-opacity:1;stroke-dasharray:none;stroke-dashoffset:0"
         id="rect3871"
         width="2.5253813"
         height="21.213203"
         x="461.33878"
         y="-592.89081"
         transform="matrix(-0.70710678,0.70710678,-0.70710678,-0.70710678,0,0)" />
      <path
         sodipodi:type="arc"
         style="fill:#000000;fill-opacity:1;stroke:#000000;stroke-width:27;stroke-linecap:round;stroke-linejoin:round;stroke-miterlimit:4;stroke-opacity:1;stroke-dasharray:none;stroke-dashoffset:0"
         id="path3884"
         sodipodi:cx="217.14285"
         sodipodi:cy="189.50504"
         sodipodi:rx="125"
         sodipodi:ry="125"
         d="m 342.14285,189.50504 c 0,69.03559 -55.9644,125 -125,125 -69.03559,0 -124.999997,-55.96441 -124.999997,-125 0,-69.0356 55.964407,-125.000005 124.999997,-125.000005 69.0356,0 125,55.964405 125,125.000005 z"
         transform="matrix(0.15177275,0,0,0.15177275,167.04362,823.60048)" />
      <rect
         transform="matrix(0,1,-1,0,0,0)"
         style="fill:none;stroke:#000000;stroke-width:15;stroke-linecap:round;stroke-linejoin:round;stroke-miterlimit:4;stroke-opacity:1;stroke-dasharray:none;stroke-dashoffset:0"
         id="rect3897"
         width="0.94440722"
         height="82.996971"
         x="851.50677"
         y="-288.2706" />
      <rect
         y="-788.51202"
         x="223.5739"
         height="93.081795"
         width="12.502806"
         id="rect3911"
         style="fill:none;stroke:#000000;stroke-width:13.86128521;stroke-linecap:round;stroke-linejoin:round;stroke-miterlimit:4;stroke-opacity:1;stroke-dasharray:none;stroke-dashoffset:0"
         transform="matrix(-0.69634805,0.71770425,-0.70768016,-0.70653294,0,0)" />
      <rect
         transform="matrix(0.71271097,0.70145782,-0.70145782,0.71271097,0,0)"
         y="247.93262"
         x="738.68634"
         height="20.547775"
         width="5.6259127"
         id="rect3913"
         style="fill:none;stroke:#000000;stroke-width:16.6037693;stroke-linecap:round;stroke-linejoin:miter;stroke-miterlimit:4;stroke-opacity:1;stroke-dasharray:none;stroke-dashoffset:0" />
    </g>
    <path
       style="font-size:medium;font-style:normal;font-variant:normal;font-weight:normal;font-stretch:normal;text-indent:0;text-align:start;text-decoration:none;line-height:normal;letter-spacing:normal;word-spacing:normal;text-transform:none;direction:ltr;block-progression:tb;writing-mode:lr-tb;text-anchor:start;baseline-shift:baseline;color:#000000;fill:#333333;fill-opacity:0.60000002;stroke:none;stroke-width:27;marker:none;visibility:visible;display:inline;overflow:visible;enable-background:accumulate;font-family:Sans;-inkscape-font-specification:Sans"
       d="M 320.625 533.34375 A 8.3702742 8.3702742 0 0 0 312.28125 541.71875 L 312.28125 556.8125 A 8.3702742 8.3702742 0 0 0 320.625 565.1875 L 363.8125 565.1875 L 363.8125 585.03125 C 281.25199 592.44969 216.25 662.08269 216.25 746.53125 C 216.25 835.90439 289.06435 908.6875 378.4375 908.6875 C 467.81064 908.6875 540.59375 835.90439 540.59375 746.53125 C 540.59375 705.03462 524.88332 667.1268 499.125 638.40625 L 502.34375 635.15625 L 514.125 623.1875 L 536.40625 645.40625 A 5.8424398 5.7595395 0.027276704 0 0 544.59375 645.34375 L 551.875 637.8125 A 5.8424398 5.7595395 0.027276704 0 0 551.78125 629.5625 L 496.65625 574.53125 A 5.8424398 5.7595395 0.027276704 0 0 488.5 574.5625 L 481.21875 582.09375 A 5.8424398 5.7595395 0.027276704 0 0 481.28125 590.375 L 500.96875 610.03125 L 489.0625 622.09375 L 485.9375 625.28125 C 459.82131 602.0931 426.20719 587.20246 389.25 584.75 L 389.25 565.1875 L 433.0625 565.1875 A 8.3702742 8.3702742 0 0 0 441.4375 556.8125 L 441.4375 541.71875 A 8.3702742 8.3702742 0 0 0 433.0625 533.34375 L 320.625 533.34375 z M 382.96875 616.0625 C 414.85576 617.14372 443.77084 629.58993 465.84375 649.46875 L 461.21875 654.09375 L 458.28125 657.0625 L 461.21875 660.03125 L 462.75 661.53125 L 465.6875 664.46875 L 468.65625 661.53125 L 473.375 656.8125 C 494.27517 678.9248 507.48447 708.367 508.84375 740.96875 L 501.5625 740.96875 L 497.375 740.96875 L 497.375 745.15625 L 497.375 747.28125 L 497.375 751.46875 L 501.5625 751.46875 L 508.875 751.46875 C 507.6697 784.16168 494.54229 813.71753 473.6875 835.9375 L 468.65625 830.90625 L 465.6875 827.96875 L 462.75 830.90625 L 461.21875 832.40625 L 458.28125 835.375 L 461.21875 838.34375 L 466.1875 843.3125 C 444.07172 863.37186 415.02101 875.91318 382.96875 877 L 382.96875 871.25 L 382.96875 867.0625 L 378.78125 867.0625 L 376.6875 867.0625 L 372.5 867.0625 L 372.5 871.25 L 372.5 876.9375 C 340.04142 875.50011 310.72053 862.31964 288.6875 841.5 L 291.84375 838.34375 L 294.8125 835.375 L 291.84375 832.40625 L 290.34375 830.90625 L 287.375 827.96875 L 284.40625 830.90625 L 281.34375 833.96875 C 261.53922 811.98496 249.13886 783.20698 247.96875 751.46875 L 251.5 751.46875 L 255.6875 751.46875 L 255.6875 747.28125 L 255.6875 745.15625 L 255.6875 740.96875 L 251.5 740.96875 L 248 740.96875 C 249.31928 709.32648 261.81325 680.6585 281.65625 658.78125 L 284.40625 661.53125 L 287.375 664.46875 L 290.34375 661.53125 L 291.84375 660.03125 L 294.8125 657.0625 L 291.84375 654.09375 L 289.03125 651.28125 C 311.02699 630.63926 340.20157 617.5553 372.5 616.125 L 372.5 621.1875 L 372.5 625.375 L 376.6875 625.375 L 378.78125 625.375 L 382.96875 625.375 L 382.96875 621.1875 L 382.96875 616.0625 z M 377.90625 631.53125 A 6.2777054 6.2777054 0 0 0 371.625 637.8125 L 371.625 730.25 C 365.24347 732.90714 360.75 739.18729 360.75 746.53125 C 360.75 756.27682 368.66068 764.1875 378.40625 764.1875 C 385.90343 764.1875 392.28734 759.50049 394.84375 752.90625 L 452.28125 752.90625 A 6.2777054 6.2777054 0 0 0 458.5625 746.625 L 458.5625 745.8125 A 6.2777054 6.2777054 0 0 0 452.28125 739.5625 L 394.59375 739.5625 C 392.74981 735.29785 389.29172 731.88822 384.96875 730.15625 L 384.96875 637.8125 A 6.2777054 6.2777054 0 0 0 378.6875 631.53125 L 377.90625 631.53125 z "
       id="path3028"
       inkscape:export-filename="/Users/Vincent/Desktop/bike-friend/new-android/art/chronometer_grey_512.png"
       inkscape:export-xdpi="122.76746"
       inkscape:export-ydpi="122.76746" />
  </g>
</svg>
