<?xml version="1.0" encoding="UTF-8" standalone="no"?>
<!-- Created with Inkscape (http://www.inkscape.org/) -->

<svg
   xmlns:dc="http://purl.org/dc/elements/1.1/"
   xmlns:cc="http://creativecommons.org/ns#"
   xmlns:rdf="http://www.w3.org/1999/02/22-rdf-syntax-ns#"
   xmlns:svg="http://www.w3.org/2000/svg"
   xmlns="http://www.w3.org/2000/svg"
   xmlns:sodipodi="http://sodipodi.sourceforge.net/DTD/sodipodi-0.dtd"
   xmlns:inkscape="http://www.inkscape.org/namespaces/inkscape"
   width="744.09448819"
   height="1052.3622047"
   id="svg2"
   version="1.1"
   inkscape:version="0.48.5 r10040"
   sodipodi:docname="lost_and_found.svg">
  <defs
     id="defs4" />
  <sodipodi:namedview
     id="base"
     pagecolor="#ffffff"
     bordercolor="#666666"
     borderopacity="1.0"
     inkscape:pageopacity="0.0"
     inkscape:pageshadow="2"
     inkscape:zoom="0.7"
     inkscape:cx="258.95832"
     inkscape:cy="687.97105"
     inkscape:document-units="px"
     inkscape:current-layer="layer1"
     showgrid="false"
     inkscape:window-width="1436"
     inkscape:window-height="856"
     inkscape:window-x="26"
     inkscape:window-y="19"
     inkscape:window-maximized="0" />
  <metadata
     id="metadata7">
    <rdf:RDF>
      <cc:Work
         rdf:about="">
        <dc:format>image/svg+xml</dc:format>
        <dc:type
           rdf:resource="http://purl.org/dc/dcmitype/StillImage" />
        <dc:title />
      </cc:Work>
    </rdf:RDF>
  </metadata>
  <g
     inkscape:label="Layer 1"
     inkscape:groupmode="layer"
     id="layer1"
     style="display:inline">
    <g
       id="g3850" />
    <path
       style="fill:#000000;fill-opacity:1;stroke:none"
       d="m 352.44877,138.84602 c -68.53597,0.69179 -135.89673,32.55082 -179.51773,92.09431 -4.68792,6.39909 -8.92797,12.99413 -12.84493,19.69557 14.48595,3.97115 28.69508,10.63669 41.80443,20.2405 28.55259,20.91733 45.73395,50.99445 49.74494,81.42912 27.13003,-4.2089 57.01331,1.71052 83.21962,18.37215 l -82.90823,113.19115 -0.1557,0.15569 c -12.0947,15.53898 -34.78039,18.43 -51.22405,6.38355 -16.50564,-12.09192 -20.51269,-34.68249 -9.18608,-50.91266 l -0.0777,-0.0777 c 4.52653,-6.24838 3.19578,-14.89662 -3.03607,-19.46203 -6.25244,-4.58046 -15.03724,-3.21636 -19.61773,3.03608 -0.4062,0.55447 -0.77626,1.12313 -1.08987,1.71265 -18.74351,28.21714 -11.49432,66.93851 16.89304,87.73482 28.96306,21.21808 69.05994,15.73991 89.99241,-12.06646 l -0.0777,-0.0777 82.28545,-112.25697 c 18.14994,17.92569 29.83585,40.07616 34.17532,62.74557 27.93965,-2.67932 58.1257,5.17906 83.9981,24.13292 17.73846,12.99505 31.15673,29.45331 39.70254,47.40949 7.69254,-7.79173 14.89973,-16.20389 21.56392,-25.30063 73.46696,-100.28376 51.70654,-241.1951 -48.57722,-314.66204 -40.74026,-29.84594 -88.17342,-43.99041 -135.06646,-43.51709 z m 65.00317,42.81646 c 50.84301,0 86.2557,30.94747 86.2557,74.81202 0,19.93844 -5.98847,38.85316 -18.45,57.29621 -7.97538,11.96307 -7.97299,11.98856 -38.37912,45.38544 -18.9415,23.42768 -26.90408,45.85366 -27.40253,76.75824 l -10.97658,0 c 0.99693,-49.34763 3.9772,-62.80594 22.42025,-100.19051 22.43074,-44.86149 25.45633,-54.87243 25.45633,-77.30317 0,-37.38458 -17.96893,-60.33228 -47.87658,-60.33228 -23.92612,0 -42.34937,14.48669 -42.34937,32.92974 0,6.97846 1.02363,8.51098 9.49747,20.47406 4.48614,5.98152 6.46139,11.40996 6.46139,16.89303 0,11.4646 -9.523,20.47406 -21.48608,20.47406 -15.45228,0 -27.40253,-15.93328 -27.40253,-37.36709 0,-38.87996 37.87479,-69.82975 84.23165,-69.82975 z m 0.54494,292.63102 c -15.95074,0 -28.41456,12.41733 -28.41456,27.86962 0,15.45229 12.41733,27.94747 27.86962,27.94747 15.45229,0 27.94747,-12.49518 27.94747,-27.94747 0,-14.95383 -12.4487,-27.86962 -27.40253,-27.86962 z"
       id="path3755"
       inkscape:export-filename="/Users/Vincent/Desktop/bike-friend/new-android/art/lost_and_found_512.png"
       inkscape:export-xdpi="271.74127"
       inkscape:export-ydpi="271.74127"
       inkscape:connector-curvature="0" />
  </g>
  <g
     inkscape:groupmode="layer"
     id="layer2"
     inkscape:label="Layer"
     style="display:inline" />
</svg>
