<?xml version="1.0" encoding="UTF-8" standalone="no"?>
<!-- Created with Inkscape (http://www.inkscape.org/) -->

<svg
   xmlns:dc="http://purl.org/dc/elements/1.1/"
   xmlns:cc="http://creativecommons.org/ns#"
   xmlns:rdf="http://www.w3.org/1999/02/22-rdf-syntax-ns#"
   xmlns:svg="http://www.w3.org/2000/svg"
   xmlns="http://www.w3.org/2000/svg"
   xmlns:sodipodi="http://sodipodi.sourceforge.net/DTD/sodipodi-0.dtd"
   xmlns:inkscape="http://www.inkscape.org/namespaces/inkscape"
   width="744.09448819"
   height="1052.3622047"
   id="svg2"
   version="1.1"
   inkscape:version="0.48.5 r10040"
   sodipodi:docname="lost_and_found.svg">
  <defs
     id="defs4" />
  <sodipodi:namedview
     id="base"
     pagecolor="#ffffff"
     bordercolor="#666666"
     borderopacity="1.0"
     inkscape:pageopacity="0.0"
     inkscape:pageshadow="2"
     inkscape:zoom="0.98994949"
     inkscape:cx="258.95832"
     inkscape:cy="687.97105"
     inkscape:document-units="px"
     inkscape:current-layer="layer1"
     showgrid="false"
     inkscape:window-width="1436"
     inkscape:window-height="856"
     inkscape:window-x="26"
     inkscape:window-y="19"
     inkscape:window-maximized="0" />
  <metadata
     id="metadata7">
    <rdf:RDF>
      <cc:Work
         rdf:about="">
        <dc:format>image/svg+xml</dc:format>
        <dc:type
           rdf:resource="http://purl.org/dc/dcmitype/StillImage" />
        <dc:title></dc:title>
      </cc:Work>
    </rdf:RDF>
  </metadata>
  <g
     inkscape:label="Layer 1"
     inkscape:groupmode="layer"
     id="layer1"
     style="display:inline">
    <g
       id="g3850" />
    <path
       style="fill:#000000;fill-opacity:1;stroke:none"
       d="M 241.28125 253.125 C 213.76935 253.4027 186.72921 266.19164 169.21875 290.09375 C 167.33691 292.66249 165.63486 295.30989 164.0625 298 C 169.87749 299.59411 175.58136 302.26981 180.84375 306.125 C 192.30541 314.52169 199.2024 326.59533 200.8125 338.8125 C 211.70311 337.12295 223.69894 339.49914 234.21875 346.1875 L 200.9375 391.625 L 200.875 391.6875 C 196.01991 397.9252 186.91336 399.08572 180.3125 394.25 C 173.68676 389.39603 172.07824 380.32766 176.625 373.8125 L 176.59375 373.78125 C 178.4108 371.27301 177.87661 367.80141 175.375 365.96875 C 172.86513 364.13005 169.33871 364.67763 167.5 367.1875 C 167.33694 367.41008 167.18839 367.63835 167.0625 367.875 C 159.53843 379.202 162.44842 394.74564 173.84375 403.09375 C 185.47018 411.61117 201.56598 409.41211 209.96875 398.25 L 209.9375 398.21875 L 242.96875 353.15625 C 250.25455 360.35203 254.94554 369.24373 256.6875 378.34375 C 267.90311 377.26821 280.02048 380.42274 290.40625 388.03125 C 297.52687 393.24776 302.91327 399.85448 306.34375 407.0625 C 309.43171 403.93472 312.32484 400.55789 315 396.90625 C 344.49131 356.65007 335.75618 300.08505 295.5 270.59375 C 279.14593 258.61291 260.10518 252.935 241.28125 253.125 z M 267.375 270.3125 C 287.78454 270.3125 302 282.73552 302 300.34375 C 302 308.34749 299.59609 315.94029 294.59375 323.34375 C 291.39225 328.146 291.39321 328.15623 279.1875 341.5625 C 271.58395 350.9669 268.38759 359.9692 268.1875 372.375 L 263.78125 372.375 C 264.18144 352.56574 265.37779 347.16327 272.78125 332.15625 C 281.78546 314.14783 283 310.12921 283 301.125 C 283 286.11798 275.78686 276.90625 263.78125 276.90625 C 254.17676 276.90625 246.78125 282.72154 246.78125 290.125 C 246.78125 292.92631 247.19216 293.5415 250.59375 298.34375 C 252.39459 300.74487 253.1875 302.92397 253.1875 305.125 C 253.1875 309.72715 249.36475 313.34375 244.5625 313.34375 C 238.3596 313.34375 233.5625 306.94777 233.5625 298.34375 C 233.5625 282.73645 248.7663 270.3125 267.375 270.3125 z M 267.59375 387.78125 C 261.19076 387.78125 256.1875 392.76585 256.1875 398.96875 C 256.1875 405.17165 261.1721 410.1875 267.375 410.1875 C 273.5779 410.1875 278.59375 405.17165 278.59375 398.96875 C 278.59375 392.96594 273.59656 387.78125 267.59375 387.78125 z "
       id="path3755"
       inkscape:export-filename="/Users/Vincent/Desktop/bike-friend/new-android/art/lost_and_found_512.png"
       inkscape:export-xdpi="271.74127"
       inkscape:export-ydpi="271.74127" />
  </g>
  <g
     inkscape:groupmode="layer"
     id="layer2"
     inkscape:label="Layer"
     style="display:inline" />
</svg>
