<?xml version="1.0" encoding="UTF-8" standalone="no"?>
<!-- Created with Inkscape (http://www.inkscape.org/) -->

<svg
   xmlns:dc="http://purl.org/dc/elements/1.1/"
   xmlns:cc="http://creativecommons.org/ns#"
   xmlns:rdf="http://www.w3.org/1999/02/22-rdf-syntax-ns#"
   xmlns:svg="http://www.w3.org/2000/svg"
   xmlns="http://www.w3.org/2000/svg"
   xmlns:xlink="http://www.w3.org/1999/xlink"
   xmlns:sodipodi="http://sodipodi.sourceforge.net/DTD/sodipodi-0.dtd"
   xmlns:inkscape="http://www.inkscape.org/namespaces/inkscape"
   width="744.09448819"
   height="1052.3622047"
   id="svg2985"
   version="1.1"
   inkscape:version="0.48.5 r10040"
   sodipodi:docname="map_markers.svg">
  <defs
     id="defs2987">
    <linearGradient
       id="linearGradient4992">
      <stop
         id="stop4994"
         offset="0"
         style="stop-color:#f7f7f7;stop-opacity:1;" />
      <stop
         style="stop-color:#ffe3e3;stop-opacity:1;"
         offset="0.43526787"
         id="stop4996" />
      <stop
         id="stop4998"
         offset="0.8125"
         style="stop-color:#ff9595;stop-opacity:1;" />
      <stop
         id="stop5000"
         offset="1"
         style="stop-color:#ff4e4e;stop-opacity:1;" />
    </linearGradient>
    <linearGradient
       id="linearGradient4976">
      <stop
         id="stop4978"
         offset="0"
         style="stop-color:#f7f7f7;stop-opacity:1;" />
      <stop
         style="stop-color:#feffe3;stop-opacity:1;"
         offset="0.43526787"
         id="stop4980" />
      <stop
         id="stop4982"
         offset="0.8125"
         style="stop-color:#fbff95;stop-opacity:1;" />
      <stop
         id="stop4984"
         offset="1"
         style="stop-color:#faff4e;stop-opacity:1;" />
    </linearGradient>
    <linearGradient
       id="linearGradient4829">
      <stop
         style="stop-color:#f7f7f7;stop-opacity:1;"
         offset="0"
         id="stop4831" />
      <stop
         id="stop4837"
         offset="0.43526787"
         style="stop-color:#e3ffe4;stop-opacity:1;" />
      <stop
         style="stop-color:#95ff97;stop-opacity:1;"
         offset="0.8125"
         id="stop4839" />
      <stop
         style="stop-color:#4eff52;stop-opacity:1;"
         offset="1"
         id="stop4833" />
    </linearGradient>
    <linearGradient
       id="linearGradient3971">
      <stop
         style="stop-color:#303030;stop-opacity:1;"
         offset="0"
         id="stop3973" />
      <stop
         style="stop-color:#b3b3b3;stop-opacity:1;"
         offset="1"
         id="stop3975" />
    </linearGradient>
    <linearGradient
       id="linearGradient3963">
      <stop
         style="stop-color:#a8a8a8;stop-opacity:1;"
         offset="0"
         id="stop3965" />
      <stop
         id="stop3979"
         offset="0.4642857"
         style="stop-color:#f6f6f6;stop-opacity:1;" />
      <stop
         style="stop-color:#ffffff;stop-opacity:1;"
         offset="1"
         id="stop3967" />
    </linearGradient>
    <radialGradient
       inkscape:collect="always"
       xlink:href="#linearGradient4829"
       id="radialGradient5069"
       gradientUnits="userSpaceOnUse"
       gradientTransform="matrix(1.0017527,0,0,1.0017527,-728.96127,-840.06877)"
       cx="-393.9595"
       cy="613.95599"
       fx="-393.9595"
       fy="613.95599"
       r="223.67264" />
    <radialGradient
       inkscape:collect="always"
       xlink:href="#linearGradient4976"
       id="radialGradient5071"
       gradientUnits="userSpaceOnUse"
       gradientTransform="matrix(1.0017527,0,0,1.0017527,-177.5327,-840.06877)"
       cx="-393.9595"
       cy="613.95599"
       fx="-393.9595"
       fy="613.95599"
       r="223.67264" />
    <radialGradient
       inkscape:collect="always"
       xlink:href="#linearGradient4992"
       id="radialGradient5073"
       gradientUnits="userSpaceOnUse"
       gradientTransform="matrix(1.0017527,0,0,1.0017527,356.75301,-840.06877)"
       cx="-393.9595"
       cy="613.95599"
       fx="-393.9595"
       fy="613.95599"
       r="223.67264" />
  </defs>
  <sodipodi:namedview
     id="base"
     pagecolor="#ffffff"
     bordercolor="#666666"
     borderopacity="1.0"
     inkscape:pageopacity="0.0"
     inkscape:pageshadow="2"
     inkscape:zoom="0.24748738"
     inkscape:cx="-494.10871"
     inkscape:cy="1036.2277"
     inkscape:document-units="px"
     inkscape:current-layer="layer1"
     showgrid="false"
     inkscape:window-width="1436"
     inkscape:window-height="856"
     inkscape:window-x="4"
     inkscape:window-y="0"
     inkscape:window-maximized="1" />
  <metadata
     id="metadata2990">
    <rdf:RDF>
      <cc:Work
         rdf:about="">
        <dc:format>image/svg+xml</dc:format>
        <dc:type
           rdf:resource="http://purl.org/dc/dcmitype/StillImage" />
        <dc:title></dc:title>
      </cc:Work>
    </rdf:RDF>
  </metadata>
  <g
     inkscape:groupmode="layer"
     id="layer2"
     inkscape:label="Layer" />
  <g
     inkscape:label="Layer 1"
     inkscape:groupmode="layer"
     id="layer1">
    <g
       id="g3128">
      <g
         transform="matrix(1.2717457,0,0,1.2717457,-140.37629,-114.51818)"
         style="fill:#19669d;fill-opacity:1;stroke:none"
         id="g3838">
        <path
           style="fill:#19669d;fill-opacity:1;stroke:none"
           id="path3007"
           d="m 508.41575,303.85087 c -0.30432,5.76926 -0.268,11.55132 -0.26479,17.32692 0.24473,5.76167 -0.0588,11.49068 -0.55129,17.22749 -0.23034,5.11027 -1.36307,10.11878 -2.65583,15.05017 -0.76794,2.26069 -1.75947,4.43392 -2.68282,6.63294 0,0 -18.92814,8.71291 -18.92814,8.71291 l 0,0 c 0.90492,-2.14487 1.85702,-4.26681 2.80695,-6.39213 1.39242,-4.82738 2.69395,-9.7295 2.94633,-14.76998 0.4915,-5.70462 0.92162,-11.39163 0.74258,-17.12576 0.003,-5.68554 0.0449,-11.37825 -0.26479,-17.05709 0,0 18.8518,-9.60547 18.8518,-9.60547 z"
           inkscape:connector-curvature="0" />
        <path
           style="fill:#19669d;fill-opacity:1;stroke:none"
           id="path3009"
           d="m 500.07324,269.21715 c 3.02912,1.54539 4.85405,3.70267 6.21962,6.76895 1.25099,3.30293 1.76897,6.81593 1.99164,10.32367 -0.0703,10.90319 -10.57858,11.39866 -20.58634,17.26524 -2.90311,0.64852 -4.69192,-0.1046 -6.71479,-2.189 -2.61352,-2.89654 -3.83665,-6.60181 -4.7649,-10.31401 -0.88752,-3.33996 -0.76546,-6.59275 0.32333,-9.85246 3.9784,-7.45499 13.8512,-9.67348 20.7357,-13.51865 0.40119,-0.22407 0.89118,-0.25152 1.34981,-0.28018 0.55629,-0.0348 2.36473,0.21315 2.91812,0.28122 1.76376,0.41066 3.21443,1.35264 4.73767,2.26716 0,0 -17.72794,11.49036 -17.72794,11.49036 l 0,0 c -1.28902,-0.74462 -2.58524,-1.40065 -4.11234,-1.45728 -1.15276,0.0403 -1.38515,-0.0485 -2.46082,0.35606 -0.39563,0.14878 -1.50255,0.7726 -1.13976,0.55573 32.77268,-19.59112 19.92685,-12.91173 14.8285,-8.45131 -1.58186,2.68393 -1.64324,5.67339 -1.02397,8.68019 0.72796,3.36388 1.73162,6.69298 4.28646,9.15094 1.63083,1.2862 3.52571,1.10334 5.23191,-0.0337 -5.73928,3.37462 -11.5047,6.70516 -17.21784,10.12385 -0.29142,0.17439 0.65186,-0.21069 0.94319,-0.38523 1.43787,-0.86146 1.46331,-2.56529 1.71475,-4.0386 -0.15971,-3.27124 -0.38873,-6.5756 -1.56925,-9.66769 -1.18994,-2.55147 -2.8399,-4.33148 -5.56357,-5.28372 0,0 17.60082,-11.79157 17.60082,-11.79157 z"
           inkscape:connector-curvature="0" />
      </g>
      <g
         transform="matrix(1.1575689,0,0,1.1575689,-86.070427,-83.985322)"
         style="fill:#0e8c07;fill-opacity:1;stroke:none"
         id="g3833">
        <path
           style="fill:#0e8c07;fill-opacity:1;stroke:none"
           id="path3011"
           d="m 536.92755,246.71525 c -0.64381,4.53532 0.85031,9.16741 2.07111,13.5004 2.05456,5.59505 3.38526,11.39915 4.69606,17.20108 1.91814,6.39728 2.32495,13.00964 2.57355,19.63825 0.71534,11.09026 -0.1919,22.07979 -1.46805,33.08433 -1.28705,8.86069 -3.30509,17.5349 -7.04837,25.68089 -2.08207,4.81077 -5.3256,8.80681 -8.7025,12.74263 0,0 -18.82505,7.93961 -18.82505,7.93961 l 0,0 c 3.41589,-3.79266 6.84385,-7.51901 8.95757,-12.24772 4.0187,-7.95756 6.21743,-16.55059 7.79327,-25.30525 1.40549,-10.87976 2.16472,-21.62257 1.25758,-32.59266 -0.39684,-6.45402 -0.95478,-12.9067 -2.77978,-19.14379 -1.22816,-5.77639 -2.42726,-11.57801 -4.57858,-17.09957 -1.40984,-4.60176 -2.78374,-9.31764 -3.02111,-14.14897 0,0 19.0743,-9.24923 19.0743,-9.24923 z"
           inkscape:connector-curvature="0" />
        <path
           style="fill:#0e8c07;fill-opacity:1;stroke:none"
           id="path3013"
           d="m 521.14582,331.22041 c 1.73706,-4.5182 4.00608,-8.80932 6.35668,-13.0332 3.12813,-6.11158 7.53196,-11.35525 11.76894,-16.70154 3.29059,-4.38354 6.38081,-8.88909 9.01497,-13.69504 2.22782,-4.10622 3.69651,-8.58144 4.76188,-13.11598 1.21362,-4.62819 2.47976,-9.23375 3.51674,-13.90891 0.15422,-0.7495 0.30845,-1.499 0.46267,-2.24849 0,0 18.73851,-9.06057 18.73851,-9.06057 l 0,0 c -0.16705,0.76849 -0.33411,1.53698 -0.50116,2.30547 -1.0943,4.63053 -2.0032,9.29838 -3.43812,13.84033 -0.92779,4.72059 -2.52267,9.36006 -4.58614,13.69521 -0.78651,1.44526 -1.45868,2.95283 -2.28834,4.37376 -2.00814,3.43931 -4.76113,6.42275 -6.90421,9.77262 -4.13605,5.30924 -8.58895,10.39675 -11.76619,16.37787 -2.34639,3.94768 -4.43332,8.15722 -5.90749,12.50546 0,0 -19.22874,8.89301 -19.22874,8.89301 z"
           inkscape:connector-curvature="0" />
        <path
           style="fill:#0e8c07;fill-opacity:1;stroke:none"
           id="path3015"
           d="m 555.6834,300.311 c 5.1316,1.71806 9.73803,4.40637 14.10198,7.56936 4.56356,2.97119 8.28324,6.88691 11.29626,11.38693 2.71219,4.89853 4.52351,10.20999 6.38754,15.46799 1.69831,4.45929 3.3052,8.90312 4.42118,13.54592 0.59154,3.06492 0.74303,6.18318 0.81068,9.29597 0.003,0.4281 0.006,0.85621 0.009,1.28432 0,0 -18.79069,9.57871 -18.79069,9.57871 l 0,0 c 10e-4,-0.42358 0.003,-0.84715 0.004,-1.27072 0.003,-3.00313 -0.0158,-6.01981 -0.49457,-8.99304 -0.83931,-4.63533 -2.43908,-9.01001 -4.02087,-13.43617 -1.86241,-5.07232 -3.59512,-10.22309 -6.23059,-14.9637 -2.90802,-4.23939 -6.48008,-7.94356 -10.72874,-10.87133 -4.27076,-2.98784 -8.98425,-5.50119 -14.15773,-6.475 0,0 17.39256,-12.11924 17.39256,-12.11924 z"
           inkscape:connector-curvature="0" />
      </g>
      <path
         inkscape:connector-curvature="0"
         d="m 611.95755,258.31838 c 5.21129,0.14063 10.42576,0.11066 15.63855,0.11541 5.2607,-0.0254 10.52135,-0.005 15.78222,-0.0378 2.36267,-0.35695 4.95026,-0.56519 7.20744,-1.42111 0.72264,-0.27402 2.7058,-1.4949 2.03407,-1.11272 -20.10778,11.44033 -24.85874,14.52475 -17.05262,9.53091 3.31543,-2.05809 6.10268,-4.64327 8.19903,-7.92996 1.66113,-3.26248 2.05446,-6.89727 2.27422,-10.49577 -0.0242,-3.37439 -0.51693,-6.85428 -2.75869,-9.48215 -2.95884,-2.38542 -6.92533,-2.68905 -10.53708,-3.41942 -3.80148,-0.76915 -7.66876,-0.98302 -11.53519,-1.08384 -3.87868,-0.14799 -7.68975,-0.25751 -11.48103,0.61989 -7.53074,3.58272 -17.78147,9.66171 16.51427,-9.59015 0.44632,-0.25054 -0.8615,0.55392 -1.27549,0.85489 -1.02684,0.74652 -1.31728,1.04598 -2.23224,1.86613 -2.81703,2.76848 -3.46648,6.86798 -4.07573,10.60385 -0.51337,4.04465 -0.53937,8.12755 -0.55162,12.19795 -0.0241,4.03536 -0.0249,8.07004 -0.0133,12.1055 -0.13118,4.49699 -0.0348,8.92428 0.94394,13.32437 1.04619,5.11149 3.5453,9.7068 5.33511,14.55982 1.14029,4.25618 3.52406,7.61475 6.15924,11.03775 2.9934,3.3115 6.08174,6.50254 9.41225,9.47755 3.01209,2.24267 6.32932,3.55819 9.99876,4.1975 3.53967,1.2117 7.22054,1.61921 10.92889,1.86049 7.00481,0.49129 13.9029,-0.48761 20.56492,-2.60959 7.75745,-3.42965 20.74471,-11.01848 -13.12691,7.98324 -0.7766,0.43566 1.52696,-0.9197 2.25367,-1.4343 1.91087,-1.35311 2.45061,-1.96333 4.15845,-3.55518 3.65191,-3.47888 6.64449,-7.54048 9.9746,-11.30956 2.61875,-3.09561 5.14661,-6.17131 6.65119,-9.96244 1.03475,-3.21048 1.0255,-6.61244 1.04876,-9.94966 3.2e-4,-0.48226 6.6e-4,-0.96451 10e-4,-1.44678 0,0 21.75776,-11.087 21.75776,-11.087 l 0,0 c 6.4e-4,0.49071 10e-4,0.98142 0.002,1.47214 -0.0426,3.56732 -0.11642,7.15798 -0.74286,10.67882 -1.31732,4.35599 -3.56738,7.46752 -6.49792,10.90402 -3.28274,3.86821 -6.47123,7.80465 -9.94391,11.50902 -9.40249,9.69632 -21.80943,16.20812 -34.47195,20.78606 -6.93714,1.80215 -14.08099,2.45156 -21.24686,2.08242 -3.85981,-0.24705 -7.59464,-0.94593 -11.30788,-2.04241 -3.90534,-1.0223 -7.507,-2.72716 -10.62615,-5.33437 -3.2968,-3.18841 -6.62731,-6.36437 -9.63112,-9.83196 -2.7295,-3.63577 -5.30352,-7.2294 -6.49604,-11.70371 -1.70502,-4.96146 -4.12556,-9.6668 -5.33951,-14.80322 -1.31635,-4.51047 -1.54477,-9.10258 -1.36472,-13.78899 -0.005,-4.0303 -0.0392,-8.05976 -0.0586,-12.08982 0.0345,-4.18404 0.10812,-8.37314 0.52515,-12.53993 0.46756,-4.13201 1.19852,-8.29334 3.17686,-12.00308 7.98613,-7.94285 18.1258,-14.36721 29.07055,-17.09005 3.89832,-0.4668 7.82508,-0.20556 11.74184,-0.17031 3.92313,0.20379 7.82822,0.59068 11.66221,1.48824 4.17614,0.89495 8.47903,1.45109 11.56607,4.7188 2.53091,3.18818 3.28615,7.04652 3.60197,11.05391 -0.13194,3.89454 -0.50804,7.79882 -1.88121,11.48203 -1.63699,3.79307 -4.33614,6.74786 -7.75276,9.06326 -10.56924,7.25417 -21.22596,15.73062 -34.32122,16.03897 -5.22609,-0.0331 -10.45198,-0.0124 -15.6779,-0.0379 -5.31875,0.005 -10.63898,-0.0223 -15.95637,0.11541 0,0 19.77195,-14.36516 19.77195,-14.36516 z"
         id="path3017"
         style="fill:#e01000;fill-opacity:1;stroke:none" />
      <g
         transform="matrix(1.1575689,0,0,1.1575689,-86.070427,-83.985322)"
         style="fill:#00da00;fill-opacity:1;stroke:none"
         id="g3846">
        <g
           id="g3842"
           style="fill:#00da00;fill-opacity:1;stroke:none">
          <path
             inkscape:connector-curvature="0"
             d="m 397.07935,253.48529 c 1.3214,5.1191 2.57691,10.25647 3.94796,15.36417 1.94075,8.83247 4.44029,17.49804 7.27259,26.08058 2.80684,7.75934 3.48651,15.93109 3.81652,24.1022 0.26317,10.03082 0.10862,20.06586 0.1833,30.09917 0.0215,3.47592 0.12916,6.95025 0.21416,10.42492 0,0 -18.43398,9.3856 -18.43398,9.3856 l 0,0 c 0.10576,-3.55594 0.23425,-7.11145 0.27105,-10.66907 0.10801,-9.98727 0.0868,-19.97638 -0.24476,-29.95994 -0.4094,-7.9846 -1.05859,-15.98436 -3.55558,-23.63875 -2.6536,-8.64528 -5.46006,-17.23651 -7.41015,-26.08042 -1.50726,-5.06103 -2.96177,-10.1451 -4.75549,-15.11359 0,0 18.69438,-9.99487 18.69438,-9.99487 z"
             id="path3003"
             style="fill:#00da00;fill-opacity:1;stroke:none" />
          <path
             inkscape:connector-curvature="0"
             d="m 371.38205,273.78376 c 3.21535,-3.77547 6.25623,-7.69451 9.77282,-11.19738 9.27765,-7.61906 20.22428,-13.16927 31.30773,-17.74081 4.39067,-1.4301 9.06093,-1.7165 13.64637,-1.92967 5.25467,-0.40203 9.3675,3.13339 13.55682,5.75915 4.59407,2.73525 7.57222,7.04642 9.92368,11.72834 2.18139,4.50396 2.81477,9.24085 2.36248,14.17259 -0.86025,5.06787 -3.44384,9.61733 -6.16473,13.90595 -2.47788,3.84445 -5.87127,6.77066 -9.58066,9.36725 -8.86226,5.98286 -17.96298,11.79678 -28.00516,15.5096 -0.74709,-0.24642 -1.60893,1.19323 -2.44618,0.94289 -0.35738,-0.10686 -1.04523,-0.60326 -0.74967,-0.83081 5.78331,-4.45248 11.92878,-8.41694 18.00797,-12.45608 0.27744,-0.18434 0.66643,-0.069 0.98578,-0.16377 0.3989,-0.11834 0.77052,-0.31437 1.15578,-0.47155 4.58637,-2.01757 9.72869,-2.28179 14.65878,-2.72097 5.5157,-0.26558 11.07313,-0.67857 16.58597,-0.22395 4.80583,0.61555 8.85734,2.56597 12.64764,5.50231 3.35108,2.33527 5.74484,5.65393 8.18001,8.86527 2.51092,3.44233 3.19901,7.77527 4.00738,11.86603 0.99831,5.82391 0.98769,11.75611 1.17019,17.64553 0.0767,6.40807 -1.41976,12.52409 -4.16437,18.2712 -6.32354,12.11145 -12.20223,12.42239 -26.46828,20.73679 -4.19122,1.81772 -8.3252,3.52799 -12.82195,4.40113 -3.92618,1.6294 -8.06312,2.5143 -12.27399,2.94941 -5.65501,0.38366 -11.2972,0.38336 -16.93815,-0.12689 -4.60241,-0.488 -8.9711,-1.63924 -13.14509,-3.59809 -2.74369,-1.46144 -4.66322,-3.93975 -6.41788,-6.43322 -0.92062,-1.13849 -1.45777,-2.50613 -2.04706,-3.82892 0,0 18.37078,-10.31689 18.37078,-10.31689 l 0,0 c 0.49984,1.22067 0.99806,2.43807 1.84745,3.46996 1.4926,2.25595 3.298,4.33132 5.78361,5.51452 3.91834,1.86507 8.11834,2.80819 12.44366,3.16624 5.60244,0.39426 11.22687,0.38579 16.80969,-0.31837 4.18305,-0.65831 8.19348,-1.87435 12.22616,-3.14365 4.31767,-1.07594 8.40387,-2.83688 12.38815,-4.8048 -31.80172,18.84849 -17.17271,11.65783 -12.77206,6.78652 1.62931,-1.80356 2.92523,-3.89955 4.19513,-5.95811 2.93834,-5.37941 4.68709,-11.17827 4.62733,-17.36529 -0.0617,-5.75394 -0.19609,-11.53844 -1.18801,-17.22096 -0.77188,-3.77592 -1.32759,-7.80563 -3.62609,-11.00241 -2.32285,-3.07016 -4.60631,-6.18724 -7.8091,-8.42223 -3.55323,-2.63163 -7.4972,-4.11982 -11.92175,-4.5281 -5.42654,-0.26257 -10.87059,0.008 -16.28407,0.41856 -5.03515,0.52074 -10.04204,1.25989 -14.69141,3.38205 -8.15893,2.47193 -7.30549,6.01611 14.59783,-11.28177 0.26321,-0.20787 -0.70648,-0.42809 -0.65925,-0.76015 0.11144,-0.78358 2.54028,0.25663 2.21135,-0.86465 1.32881,-0.53366 2.00283,-0.77219 3.26737,-1.40017 0.54256,-0.26944 2.12702,-1.16002 1.60371,-0.85488 -29.32291,17.09848 -18.81286,11.24856 -12.74048,7.23731 3.80297,-2.31183 7.25005,-4.98586 9.89653,-8.61488 2.88455,-3.90595 5.36238,-8.31158 6.6405,-13.01033 0.62582,-4.53119 0.0937,-8.90431 -1.80148,-13.11095 -2.18753,-4.36432 -4.98597,-8.26705 -9.2645,-10.80293 -4.07169,-2.54183 -7.96592,-5.26974 -13.01952,-4.58657 -4.46163,0.25881 -8.97513,0.67361 -13.13066,2.45165 -1.81834,0.79268 -2.584,1.11043 -4.41179,1.97634 -0.80395,0.38086 -3.16081,1.62889 -2.3985,1.17033 28.01187,-16.85009 16.89753,-10.21104 11.01786,-6.18443 -3.59316,3.20687 -6.60026,6.94979 -9.51487,10.77229 0,0 -19.4398,8.30542 -19.4398,8.30542 z"
             id="path3005"
             style="fill:#00da00;fill-opacity:1;stroke:none" />
        </g>
        <path
           style="fill:#00da00;fill-opacity:1;stroke:none"
           id="path3807"
           d="m 388.5842,374.80985 c 1.57432,-2.17889 3.41127,-4.15161 5.02007,-6.30275 0.86962,-1.4631 1.79567,-2.91782 2.37331,-4.52643 0.33476,-1.72698 0.9899,-3.35831 1.52491,-5.02653 0.0816,-0.29856 0.16329,-0.59713 0.24493,-0.89569 0,0 13.52192,-6.44884 13.52192,-6.44884 l 0,0 c -0.0823,0.31223 -0.16466,0.62446 -0.24698,0.93669 -0.4518,1.67469 -1.17577,3.26339 -1.48592,4.97207 -0.37087,1.85448 -1.38984,3.36396 -2.24338,5.02471 -1.43453,2.25124 -3.32944,4.15593 -4.97131,6.25613 0,0 -13.73755,6.01064 -13.73755,6.01064 z"
           inkscape:connector-curvature="0" />
      </g>
    </g>
    <g
       id="g3115">
      <path
         inkscape:connector-curvature="0"
         d="m 64.702539,144.848 c -3.513775,-2.537 -2.630527,-6.53535 -1.024695,-9.90485 5.645357,-7.92762 22.096522,-13.51899 26.507095,-15.55622 1.919341,-0.88653 8.331925,1.33208 10.327761,1.88954 7.64925,3.46722 9.89069,10.84618 11.5228,18.45396 1.26274,7.82326 -0.78382,15.55952 -5.41838,21.98141 -0.95851,1.32814 -2.13027,2.48851 -3.1954,3.73277 -10.637794,7.92856 -22.01458,17.16844 -35.643809,17.74321 -6.779037,0.28587 -12.336007,-1.27886 -18.596264,-3.5335 -8.033932,-3.94243 -13.274209,-10.08941 -13.089662,-19.43459 0.03418,-1.73102 0.434971,-3.43528 0.652457,-5.15293 1.272087,-4.16035 1.412999,-5.55162 3.618461,-9.25868 5.94515,-9.99292 21.305331,-16.00758 29.455549,-20.01341 1.38805,-0.68223 3.086968,-0.19791 4.630446,-0.29685 1.81743,0.39038 3.693858,0.56835 5.452288,1.17115 11.247801,3.85584 18.812534,13.02065 25.101764,22.58609 2.7828,6.09197 6.42098,12.368 0.21627,17.47442 -7.660607,4.09883 -15.147544,8.54022 -22.981798,12.2965 -2.216847,1.06291 -5.306153,-4.06654 -2.190241,-5.89169 7.764804,-4.54823 15.867422,-8.49348 23.801129,-12.74021 7.92759,-0.42341 15.56513,2.75267 20.77707,8.81366 1.07244,1.24714 1.89418,2.68963 2.84126,4.03445 1.9984,3.8091 6.34746,11.21585 3.56156,15.6254 -0.91244,1.44422 -2.24337,2.67077 -3.72686,3.51787 -8.66702,4.94906 -17.71891,9.19138 -26.57836,13.78706 -12.279159,2.14245 -26.822311,4.79244 -39.0363,0.92224 -1.877596,-0.59494 -3.60623,-1.58506 -5.409339,-2.37759 -8.656392,-4.99101 -10.998776,-13.88507 -12.575865,-23.07238 -0.207172,-3.73296 -0.722755,-9.13942 3.213478,-11.40007 23.618846,-13.56469 16.059712,-11.88459 29.928898,-13.89527 7.101898,-0.22137 19.039399,-1.31447 24.763508,3.91899 1.19556,1.09309 1.95286,2.58515 2.9293,3.87772 2.99271,7.18864 4.02377,14.05052 -4.12905,18.44894 -27.505954,14.83941 -18.72694,13.32432 -37.718246,13.6883 -9.223477,-1.10527 -18.565449,-3.20974 -25.861115,-9.39966 -6.459498,-5.48047 -8.571941,-11.33641 -10.969332,-19.02622 -0.934449,-5.37604 -1.168627,-10.67562 1.389112,-15.67841 5.080804,-9.93776 26.896651,-18.2373 31.445798,-20.74018 16.340802,-3.59762 32.832344,0.64821 48.369853,5.72891 7.63426,3.04186 15.7064,6.49796 21.22979,12.87557 2.44513,2.82328 2.88691,4.30093 4.44372,7.57759 2.06955,5.35743 1.30146,8.81854 -1.21076,13.73038 0,0 -22.10872,9.818 -22.10872,9.818 l 0,0 c 2.83096,-4.14659 4.07984,-6.66296 2.43699,-11.75228 -1.34649,-3.06334 -1.63244,-4.27123 -3.8298,-6.92313 -5.09229,-6.1457 -12.65682,-9.57699 -19.866861,-12.48716 -15.473545,-5.11134 -32.047337,-8.98044 -48.057552,-3.85536 5.236948,-3.23659 10.46686,-6.48457 15.710839,-9.70976 1.31963,-0.81162 -2.746856,1.47799 -3.937711,2.46895 -5.445706,4.53166 -6.326125,11.12472 -5.502191,17.77068 1.38895,5.46671 1.382299,7.34314 4.752605,12.23273 6.851295,9.93976 18.217665,13.2279 29.692985,14.05861 16.114744,-1.31925 9.971108,-2.56551 -2.20711,8.25405 -1.43931,1.27874 3.577672,-1.60401 4.984204,-2.91873 3.645929,-3.40789 1.9185,-8.07518 0.426667,-11.9265 -0.834922,-1.01658 -1.491972,-2.21024 -2.504768,-3.04976 -5.508808,-4.5663 -17.046411,-3.28739 -23.576454,-2.71726 -11.739397,2.59945 -5.554344,1.8323 11.507057,-9.35699 0.797223,-0.52283 -1.831527,0.66174 -2.558318,1.27874 -2.236849,1.89899 -1.766965,5.32291 -1.85887,7.85939 0.95244,8.49873 2.917746,16.66372 10.854496,21.26401 1.657232,0.70291 3.249621,1.58438 4.971696,2.10874 12.192082,3.71236 26.192256,0.96969 38.218096,-1.91007 -4.63295,3.09439 -9.39499,6.00373 -13.89885,9.28318 -1.20303,0.87598 2.84445,-1.07208 3.96578,-2.0505 4.00019,-3.49036 -0.64678,-10.3527 -2.18314,-13.75404 -0.86142,-1.21052 -1.60017,-2.51845 -2.58425,-3.63153 -4.990521,-5.64469 -12.41846,-8.05137 -19.72362,-6.43761 6.096713,-3.66196 12.384122,-7.02368 18.29014,-10.98585 0.74732,-0.50136 -1.79969,-0.027 -2.69959,-0.0276 -0.50983,-2.8e-4 1.95594,-0.40816 1.52317,-0.13866 -6.380401,3.97344 -12.956806,7.62313 -19.435215,11.43469 0.913817,-0.36547 2.836782,-1.02724 3.559997,-1.75588 3.273175,-3.29773 0.05038,-9.41581 -1.143967,-12.7274 -5.780772,-9.42171 -12.762639,-18.14452 -24.16201,-20.80459 -1.706341,-0.39819 -3.49084,-0.3076 -5.23626,-0.4614 -10.283522,2.39218 -7.243617,2.14592 12.669144,-9.19974 1.124234,-0.64055 -2.160292,1.44354 -3.112183,2.31996 -3.449785,3.17629 -5.540312,7.23891 -6.847118,11.69138 -0.283899,1.55793 -0.737266,3.09435 -0.851709,4.67379 -0.5878,8.11222 4.482628,13.9354 11.497495,17.1734 6.04225,2.08463 11.236006,3.42108 17.750911,2.63241 2.066586,-0.25017 7.649368,-2.78337 6.083305,-1.41197 -4.524081,3.96174 -10.239846,6.30872 -15.330579,9.50982 -1.409653,0.8864 2.857719,-1.71016 4.286578,-2.56525 1.125275,-1.11725 2.362047,-2.13243 3.375812,-3.35174 4.738449,-5.69924 7.016761,-12.88255 6.033273,-20.2177 -1.376232,-6.71995 -3.236166,-13.43153 -10.260303,-16.09708 -2.326802,-0.5541 -4.241689,-1.16253 -6.664862,-1.13724 -1.025899,0.0105 -3.893531,0.99682 -3.050051,0.41277 5.882134,-4.07292 12.343663,-7.24203 18.404231,-11.04435 0.568091,-0.35641 -1.307659,0.3553 -1.891835,0.68469 -0.499331,0.28156 -0.870822,0.74571 -1.306233,1.11856 -1.598701,2.09228 -3.484527,4.90357 -0.481644,6.60593 0,0 -20.947588,13.24917 -20.947588,13.24917 z"
         id="path2993"
         style="fill:#000000;fill-opacity:1;stroke:none" />
      <g
         id="g3824"
         style="fill:#000000;fill-opacity:1;stroke:none">
        <path
           style="fill:#000000;fill-opacity:1;stroke:none"
           id="path2997"
           d="m 90.424428,242.12322 c -4.457553,7.00303 -6.55361,15.1184 -8.583502,23.07589 -2.05914,8.54294 -2.606481,17.32893 -2.825314,26.08233 -0.489196,7.5618 0.06464,14.97786 1.417076,22.41189 1.710911,8.18973 4.25422,16.25826 7.471682,23.98233 3.969667,8.31945 9.954812,15.40438 16.02802,22.2485 7.77976,8.25641 16.59679,15.42657 25.87726,21.91306 10.82022,7.02509 22.04118,13.31763 33.74066,18.74258 10.44499,4.66525 21.3917,8.05225 32.61044,10.22512 9.03679,1.77709 18.18351,3.01684 27.33916,4.00244 8.06962,1.27939 15.79089,-0.5282 23.4434,-2.90585 1.28269,-0.45957 2.57356,-0.89693 3.84809,-1.37868 1.3839,-0.52309 6.14263,-2.43234 7.48324,-3.09684 1.15781,-0.57392 4.49482,-2.55244 3.37135,-1.91393 -18.67754,10.61521 -22.99864,13.84901 -14.33076,7.68725 5.52926,-4.42883 9.96673,-9.9887 14.78644,-15.14023 4.76384,-5.29821 8.77483,-11.28514 12.45557,-17.37527 4.77331,-7.78955 8.55528,-16.13927 12.23433,-24.48637 4.42587,-9.67244 8.1303,-19.6701 11.74964,-29.66937 2.82168,-7.75524 5.17612,-15.67496 7.09369,-23.69965 1.61418,-7.46607 2.04187,-15.10158 2.26488,-22.71385 0.11398,-6.45643 0.15354,-12.91939 0.0433,-19.37651 -0.0396,-4.92112 -0.0271,-9.843 -0.14478,-14.76314 -10e-4,-0.63311 -0.002,-1.26622 -0.004,-1.89934 0,0 21.87166,-11.14626 21.87166,-11.14626 l 0,0 c -4e-5,0.6333 -7e-5,1.26659 -1.1e-4,1.89988 -0.10474,4.95853 -0.0775,9.91835 -0.087,14.87767 -0.0777,6.50657 0.0187,13.01455 -0.14555,19.52076 -0.26274,7.77082 -0.72691,15.5419 -2.19849,23.19436 -1.75983,8.19902 -4.23435,16.22395 -7.18247,24.07388 -3.65777,10.01676 -7.47145,20.00476 -11.68419,29.79591 -3.57182,8.39638 -7.22997,16.82063 -11.93296,24.65452 -3.46869,6.25371 -7.47632,12.28145 -12.02122,17.79617 -4.94657,5.18344 -9.50031,10.72755 -14.78412,15.57687 -12.334,9.83791 -26.69215,17.32641 -41.66837,22.22778 -7.86015,2.22879 -15.78637,3.49773 -23.95031,2.08043 -9.14463,-1.1212 -18.30337,-2.29885 -27.30794,-4.28247 -11.23649,-2.45678 -22.17023,-6.11193 -32.64844,-10.87386 -11.73094,-5.62037 -23.06226,-11.96495 -33.9822,-19.04364 -9.52,-6.50601 -18.452784,-13.75994 -26.17201,-22.37815 -6.340727,-7.00017 -13.096629,-13.85104 -16.95239,-22.62905 -3.306667,-7.87822 -5.646632,-16.16983 -7.581591,-24.48239 -0.0082,-0.0422 -1.699806,-8.29682 -1.72723,-8.49135 -0.668658,-4.74277 0.09691,-9.58175 -0.05015,-14.34016 0.382993,-8.91866 0.779395,-17.88471 2.766549,-26.623 2.001264,-7.97547 4.109922,-15.94099 7.466948,-23.4717 0,0 22.600682,-9.88856 22.600682,-9.88856 z"
           inkscape:connector-curvature="0" />
        <path
           style="fill:#000000;fill-opacity:1;stroke:none"
           id="path2999"
           d="m 256.46152,412.8379 c 1.3966,3.62699 4.49516,6.00417 6.80167,8.97307 2.48316,3.68137 5.88201,6.49121 9.49184,8.99551 3.94508,2.65988 8.21967,4.37447 12.71159,5.84249 5.22487,2.14784 10.61056,3.83724 16.16112,4.88314 5.41136,0.96723 10.80849,1.83376 16.29562,2.24709 4.37418,0.2875 8.75826,0.299 13.1397,0.30624 3.60179,-0.35044 6.98095,-1.54199 10.46696,-2.40068 3.36675,-1.11187 6.58264,-2.28852 9.57191,-4.21658 -36.65235,20.892 -19.03047,13.25483 -13.5963,5.32482 1.8151,-2.79323 2.77035,-5.88003 3.29155,-9.13725 0.55087,-4.42801 0.50105,-8.89806 0.48027,-13.35121 0.0957,-4.73 -0.4519,-9.38645 -2.13969,-13.80875 -1.90876,-4.72546 -4.5671,-9.09277 -7.27521,-13.39278 -2.59214,-3.97525 -5.69368,-7.58653 -8.69095,-11.25742 -3.01329,-4.16324 -6.90631,-7.48363 -10.53329,-11.06615 -2.67413,-3.09036 -5.96924,-5.16087 -9.80339,-6.47082 -2.54413,-1.31088 -5.171,-2.42997 -7.90755,-3.25992 0,0 20.28969,-13.75533 20.28969,-13.75533 l 0,0 c 2.70805,1.00123 5.30422,2.24784 7.97289,3.34921 3.93605,1.7029 7.53703,4.01046 10.2886,7.35957 3.65629,3.67039 7.44543,7.18891 10.60005,11.33209 3.03223,3.78256 6.41006,7.31574 8.87517,11.52189 2.66032,4.49049 5.57706,8.87043 7.45836,13.76894 1.90286,4.65007 2.73452,9.54843 2.63696,14.58802 -0.0267,4.5207 0.0609,9.05161 -0.17891,13.56493 -0.38613,3.48527 -1.05046,6.9344 -2.88015,9.98776 -4.93998,10.38754 -20.41977,14.9717 -27.95622,20.1373 -3.18908,1.62832 -6.57544,2.7694 -10.02118,3.7327 -3.53844,0.96409 -7.11928,1.85468 -10.81471,1.86229 -4.35321,-0.0508 -8.71019,-0.18458 -13.0452,-0.60912 -5.54066,-0.52354 -11.02187,-1.39381 -16.48255,-2.47134 -5.56611,-1.25729 -10.98931,-3.04814 -16.31077,-5.10432 -4.70372,-1.52168 -9.15854,-3.53571 -13.23127,-6.37557 -3.74887,-2.68477 -7.18927,-5.76982 -9.88267,-9.54413 -2.6057,-3.0547 -5.54621,-5.86005 -7.40658,-9.48105 0,0 21.62264,-12.07464 21.62264,-12.07464 z"
           inkscape:connector-curvature="0" />
        <path
           style="fill:#000000;fill-opacity:1;stroke:none"
           id="path3001"
           d="m 293.27648,381.32432 c 3.90179,1.96527 7.37262,4.52012 10.76337,7.24215 3.28326,2.5305 5.88478,5.74587 8.51699,8.91193 1.80191,2.44017 3.30584,5.09612 5.19266,7.47014 0,0 -21.18412,12.61136 -21.18412,12.61136 l 0,0 c -1.80869,-2.40444 -3.42518,-4.9389 -5.09898,-7.43617 -2.49556,-3.0621 -4.93277,-6.17968 -8.13549,-8.55856 -3.23269,-2.61109 -6.70385,-5.00966 -10.6295,-6.45672 0,0 20.57507,-13.78413 20.57507,-13.78413 z"
           inkscape:connector-curvature="0" />
        <path
           style="fill:#000000;fill-opacity:1;stroke:none"
           id="path3793"
           d="m 212.01003,413.03814 c 4.53556,0.082 9.07258,0.0829 13.60861,0.0427 2.98955,-0.0304 5.9793,-0.027 8.96889,-0.045 2.26392,-0.4234 4.52775,-0.80494 6.81579,-1.06665 2.14223,-1.09342 4.37279,-2.08852 6.66791,-2.82632 2.10609,-0.50702 4.03909,-1.55254 6.08839,-2.25425 2.43403,-1.04461 4.8543,-2.06545 7.24958,-3.19112 2.57709,-1.20099 5.11016,-2.49262 7.57584,-3.90634 2.34137,-0.8986 4.44946,-2.25256 6.70724,-3.32273 -0.76771,0.4604 2.60969,-1.53028 1.95396,-1.1534 -47.21192,27.13537 34.98906,-20.03991 -11.97771,6.9045 0,0 16.32843,-6.29117 16.32843,-6.29117 l 0,0 c -53.01576,30.55205 34.69926,-20.32555 -17.96641,10.4096 -0.68396,0.39915 -1.29677,0.70639 -2.00261,1.07384 -2.17588,1.17962 -4.43216,2.18335 -6.62321,3.33113 -2.52911,1.33708 -5.06354,2.66161 -7.67187,3.8402 -2.40981,1.13324 -4.91096,2.06337 -7.36246,3.10133 -1.99872,0.81851 -4.01146,1.59623 -6.08146,2.21702 -2.28756,0.91259 -4.52539,2.08748 -6.95513,2.54841 -2.2991,0.28852 -4.57404,0.80803 -6.89697,0.86703 -2.94826,-0.0181 -5.89668,-0.0144 -8.8449,-0.045 -4.57521,-0.0415 -9.15135,-0.0368 -13.72611,0.0427 0,0 14.1442,-10.27637 14.1442,-10.27637 z"
           inkscape:connector-curvature="0" />
        <path
           style="fill:#000000;fill-opacity:1;stroke:none"
           id="path3799"
           d="m 194.0354,411.8423 c 2.93862,0.066 5.8782,0.016 8.8172,0.0185 2.62958,-0.0125 5.25912,0.0105 7.88874,-0.002 2.39462,0.23403 4.68281,-0.30957 7.03029,-0.63752 2.59467,-0.22659 5.14327,-0.45894 7.69429,-0.97028 2.51738,-0.9802 5.20704,-1.43504 7.65212,-2.59036 1.90705,-1.17791 4.17536,-1.18589 6.2258,-1.89271 1.32892,-1.04638 3.04286,-1.03391 4.5525,-1.56898 0.89293,-0.31651 1.69996,-0.83735 2.5615,-1.23135 4.58213,-2.57618 15.31726,-8.61613 -12.38738,7.10724 -0.38201,0.21681 0.74546,-0.46487 1.11468,-0.70283 0.75328,-0.48547 1.47102,-1.02803 2.24787,-1.47483 5.36991,-3.08857 10.76397,-6.13495 16.14597,-9.20242 2.29066,-1.0537 4.48656,-2.23726 6.75109,-3.33386 6.11922,-2.6318 15.73804,-8.44427 -10.00327,6.16649 2.18997,-1.17372 4.01975,-2.8003 5.79911,-4.51 1.95281,-1.94828 4.22953,-3.51642 6.25438,-5.37867 1.9005,-1.85479 3.65768,-3.84756 5.54832,-5.71176 1.48363,-1.40945 3.05816,-2.72293 4.50632,-4.16846 1.22309,-1.16049 2.46743,-2.30732 3.61654,-3.54262 0.69173,-0.60216 1.3598,-1.21482 1.98366,-1.88641 0,0 16.16366,-6.84843 16.16366,-6.84843 l 0,0 c -0.57991,0.74153 -1.097,1.54915 -1.8934,2.08309 -1.33755,1.03694 -2.40172,2.40694 -3.61391,3.5808 -1.63015,1.25869 -2.99069,2.85957 -4.5691,4.19008 -2.08165,1.64365 -3.72089,3.76632 -5.59275,5.63675 -1.93517,2.00418 -4.19068,3.54879 -6.24059,5.42891 -1.85374,1.63351 -3.3999,3.62559 -5.62029,4.78624 -6.72868,3.86195 -13.02076,7.95766 -20.00057,11.10247 -2.22524,1.14924 -4.49767,2.20677 -6.74574,3.31113 4.5995,-2.68415 9.18893,-5.38563 13.7985,-8.05243 0.37247,-0.21548 -0.7246,0.46438 -1.08606,0.69785 -0.77413,0.50001 -1.50027,1.07513 -2.29544,1.54096 -5.38964,3.15739 -10.7954,6.28755 -16.22181,9.38132 -0.42952,0.24489 -0.8945,0.4215 -1.34174,0.63225 -2.39545,1.00938 -4.91863,1.69007 -7.33358,2.64835 -2.09957,0.44246 -4.10166,1.10933 -6.05301,2.01173 -2.59302,0.872 -5.21461,1.69425 -7.87631,2.32508 -2.55909,0.43948 -5.15939,0.48489 -7.72152,0.91635 -2.38941,0.38738 -4.7701,0.55203 -7.19269,0.432 -2.62698,-0.0141 -5.25387,0.009 -7.88082,-0.002 -2.95593,0.002 -5.91243,-0.0472 -8.86804,0.0185 0,0 14.18548,-10.30634 14.18548,-10.30634 z"
           inkscape:connector-curvature="0" />
        <path
           style="fill:#000000;fill-opacity:1;stroke:none"
           id="path3801"
           d="m 245.91828,404.51636 c 3.16238,-0.31031 6.13607,-1.47338 9.15533,-2.37876 2.16197,-0.84933 4.53715,-0.5548 6.72736,-1.15965 6.22925,-1.59866 16.9947,-8.72115 -9.14585,6.05326 0,0 16.26405,-6.35431 16.26405,-6.35431 l 0,0 c -6.59315,3.8159 -13.27374,9.36379 -21.09967,10.86485 -2.21942,0.24764 -4.42777,0.53602 -6.55399,1.26442 -3.07632,0.94802 -6.17706,1.82789 -9.38358,2.2157 0,0 14.03635,-10.50551 14.03635,-10.50551 z"
           inkscape:connector-curvature="0" />
        <path
           style="fill:#000000;fill-opacity:1;stroke:none"
           id="path3803"
           d="m 264.95812,393.19162 c 3.23063,0.70672 6.12144,2.08314 8.94146,3.76646 1.43635,0.90342 0.78069,0.35901 1.9549,1.64769 0,0 -14.94956,9.11754 -14.94956,9.11754 l 0,0 c -0.93999,-0.91165 -0.40173,-0.47059 -1.64657,-1.28344 -2.67466,-1.58248 -5.52457,-2.73552 -8.62903,-3.14527 0,0 14.3288,-10.10298 14.3288,-10.10298 z"
           inkscape:connector-curvature="0" />
      </g>
      <path
         style="fill:#000000;fill-opacity:1;stroke:none"
         id="path3820"
         d="m 288.134,167.40709 c -3.56838,-7.75303 -1.13041,-16.35153 1.67977,-23.93927 2.36413,-4.47037 5.13898,-9.7222 9.66414,-12.44946 22.9885,-13.85485 15.00808,-11.82279 27.26897,-14.3475 7.23869,0.0431 15.74996,2.92951 20.9945,8.09434 1.26327,1.24408 2.18061,2.79631 3.27091,4.19446 4.40747,8.45646 6.98243,18.31858 6.19265,27.92875 -0.14415,1.75398 -0.5583,3.47523 -0.83744,5.21285 -2.50294,8.14398 -6.04799,16.5627 -12.84408,22.12169 -2.11067,1.72646 -4.47418,3.14205 -6.88018,4.4253 -9.3013,4.96092 -18.80768,9.5274 -28.21151,14.29109 -3.47822,0.41895 -6.93132,1.23843 -10.43463,1.25685 -3.92606,0.0207 -7.83806,-0.57325 -11.72301,-1.14035 -10.62166,-1.55047 -21.27292,-4.20643 -30.18286,-10.48034 -2.38503,-1.67941 -4.37161,-3.86315 -6.55742,-5.79473 -1.40724,-2.15046 -3.16241,-4.10989 -4.22172,-6.45141 -3.28785,-7.26748 -2.81883,-18.82321 0.88384,-25.91984 0.96695,-1.85327 2.42452,-3.4059 3.63678,-5.10885 14.89185,-12.13102 32.87059,-21.93175 52.45946,-20.97248 9.72825,0.4764 13.4793,2.17263 22.81639,4.88462 11.9244,4.18119 23.53575,9.7231 32.87676,18.39811 1.45124,1.34777 2.91276,2.71714 4.09041,4.30956 0.98186,1.3277 1.5532,2.91461 2.3298,4.37192 0.0669,1.5616 0.55844,3.16328 0.20057,4.68478 -0.95134,4.0446 -3.93529,6.11081 -7.41227,7.93532 -9.07555,4.76227 -18.08286,9.74291 -27.58958,13.57263 -1.98212,0.79849 -16.96555,1.91174 -18.84452,2.07168 -3.36093,-0.14813 -6.74276,-0.0417 -10.08278,-0.44438 -12.56926,-1.51513 -27.68223,-6.12965 -38.56645,-12.69686 -2.14132,-1.29201 -4.08941,-2.8801 -6.13411,-4.32015 -3.18742,-2.99247 -10.07935,-9.17877 -6.5655,-14.45549 0.75987,-1.14109 1.88496,-2.06327 3.09383,-2.7099 8.6018,-4.60119 17.48741,-8.65087 26.23112,-12.97631 12.82517,-1.15199 25.96828,0.82819 37.67316,6.37138 1.92795,0.91303 3.70671,2.11255 5.56006,3.16883 6.31296,4.51736 11.49049,10.35933 13.0051,18.10622 0.2535,3.18472 -0.79548,5.91743 -2.68021,8.41494 0,0 -22.76246,9.52753 -22.76246,9.52753 l 0,0 c 2.08063,-1.80775 3.4792,-3.70514 3.82673,-6.54055 -0.56877,-7.13196 -5.52128,-12.59953 -11.02125,-16.75104 -1.73157,-1.00001 -3.38862,-2.14193 -5.19471,-3.00005 -11.55044,-5.48787 -24.49491,-7.20116 -37.05477,-5.00558 4.94591,-3.33211 10.09159,-6.38538 14.83774,-9.99636 0.58358,-0.444 -4.14729,0.62644 -4.91218,3.22015 -1.1738,3.98024 3.36901,7.84115 5.48927,10.23655 1.88492,1.41904 3.66529,2.98879 5.65473,4.25713 11.05557,7.04832 24.69257,10.88266 37.67909,12.03949 3.32096,0.29583 6.66736,0.10696 10.00105,0.16046 3.20108,-0.32779 6.41823,-0.52502 9.60324,-0.98338 3.13137,-0.45064 10.60419,-4.6369 9.3298,-1.74128 -2.06046,4.68168 -8.63298,5.55562 -12.4881,8.91743 -2.01303,1.75544 6.26534,-2.05929 7.96222,-5.57215 0.54333,-1.12481 0.29664,-2.48066 0.44497,-3.72097 -0.57905,-1.31804 -0.94971,-2.74893 -1.73715,-3.95412 -1.02089,-1.5625 -2.32389,-2.93013 -3.63118,-4.26226 -8.62534,-8.78942 -19.76511,-14.27 -31.28558,-18.23294 -3.7948,-0.99532 -7.52245,-2.29563 -11.3844,-2.98595 -7.63241,-1.3643 -14.08692,-1.4368 -21.69362,-0.14773 -3.15571,0.53477 -10.73209,5.27149 -9.29429,2.4119 2.22563,-4.42645 8.26173,-5.47507 12.28691,-8.36378 1.78621,-1.28188 -3.7102,2.35996 -5.56529,3.53995 -1.28493,1.48282 -2.80784,2.78903 -3.85478,4.44846 -3.96666,6.28727 -5.04942,17.32079 -2.2577,24.18781 0.88742,2.18284 2.43216,4.03656 3.64823,6.05484 2.01619,1.84657 3.8279,3.94488 6.04856,5.53971 10.6803,7.67032 27.89974,11.29917 40.8445,10.54707 3.52815,-0.20498 6.95996,-1.23224 10.43994,-1.84835 -3.67018,2.63513 -7.79497,4.73141 -11.01055,7.9054 -1.85782,1.83379 4.7296,-2.27348 6.8489,-3.79758 6.87703,-4.94567 10.38892,-12.87723 12.97406,-20.63768 0.34721,-1.63802 0.8215,-3.25416 1.04163,-4.91404 1.20312,-9.07233 -1.1702,-18.46438 -5.46025,-26.41705 -0.99935,-1.20492 -1.85182,-2.54861 -2.99806,-3.61474 -5.2781,-4.90923 -13.00354,-7.0817 -20.02154,-6.1593 -9.49397,3.33084 -5.38654,2.13119 14.24778,-9.25015 1.02511,-0.59422 -2.04964,1.20833 -2.96514,1.96056 -3.11644,2.56065 -5.53745,5.97802 -7.53353,9.43285 -2.90675,6.58876 -5.67697,14.72757 -1.83632,21.49467 0,0 -21.40645,12.40707 -21.40645,12.40707 z"
         inkscape:connector-curvature="0" />
      <path
         transform="matrix(1.4836838,0,0,1.0844985,-140.34146,-37.596815)"
         d="m 261.62951,277.5752 a 35.355339,35.355339 0 1 1 -70.71068,0 35.355339,35.355339 0 1 1 70.71068,0 z"
         sodipodi:ry="35.355339"
         sodipodi:rx="35.355339"
         sodipodi:cy="277.5752"
         sodipodi:cx="226.27417"
         id="path3822"
         style="fill:#e01200;fill-opacity:1;stroke:none"
         sodipodi:type="arc" />
    </g>
    <g
       id="g4045"
       inkscape:export-filename="/Users/Vincent/Desktop/bike-friend/new-android/art/map-marker-bg-450.png"
       inkscape:export-xdpi="90.965439"
       inkscape:export-ydpi="90.965439"
       transform="translate(-711.14739,-501.03566)">
      <rect
         ry="64.444405"
         y="537.87073"
         x="154.28572"
         height="404.49146"
         width="430.54346"
         id="rect4015"
         style="fill:#ffffff;fill-opacity:1;stroke:#808080;stroke-width:15;stroke-linecap:round;stroke-linejoin:round;stroke-miterlimit:4;stroke-opacity:1;stroke-dasharray:none;stroke-dashoffset:0" />
      <g
         transform="matrix(0.82802546,0,0,0.82802546,208.11642,519.40519)"
         id="g3165">
        <path
           inkscape:connector-curvature="0"
           d="m 64.702539,144.848 c -3.513775,-2.537 -2.630527,-6.53535 -1.024695,-9.90485 5.645357,-7.92762 22.096522,-13.51899 26.507095,-15.55622 1.919341,-0.88653 8.331925,1.33208 10.327761,1.88954 7.64925,3.46722 9.89069,10.84618 11.5228,18.45396 1.26274,7.82326 -0.78382,15.55952 -5.41838,21.98141 -0.95851,1.32814 -2.13027,2.48851 -3.1954,3.73277 -10.637794,7.92856 -22.01458,17.16844 -35.643809,17.74321 -6.779037,0.28587 -12.336007,-1.27886 -18.596264,-3.5335 -8.033932,-3.94243 -13.274209,-10.08941 -13.089662,-19.43459 0.03418,-1.73102 0.434971,-3.43528 0.652457,-5.15293 1.272087,-4.16035 1.412999,-5.55162 3.618461,-9.25868 5.94515,-9.99292 21.305331,-16.00758 29.455549,-20.01341 1.38805,-0.68223 3.086968,-0.19791 4.630446,-0.29685 1.81743,0.39038 3.693858,0.56835 5.452288,1.17115 11.247801,3.85584 18.812534,13.02065 25.101764,22.58609 2.7828,6.09197 6.42098,12.368 0.21627,17.47442 -7.660607,4.09883 -15.147544,8.54022 -22.981798,12.2965 -2.216847,1.06291 -5.306153,-4.06654 -2.190241,-5.89169 7.764804,-4.54823 15.867422,-8.49348 23.801129,-12.74021 7.92759,-0.42341 15.56513,2.75267 20.77707,8.81366 1.07244,1.24714 1.89418,2.68963 2.84126,4.03445 1.9984,3.8091 6.34746,11.21585 3.56156,15.6254 -0.91244,1.44422 -2.24337,2.67077 -3.72686,3.51787 -8.66702,4.94906 -17.71891,9.19138 -26.57836,13.78706 -12.279159,2.14245 -26.822311,4.79244 -39.0363,0.92224 -1.877596,-0.59494 -3.60623,-1.58506 -5.409339,-2.37759 -8.656392,-4.99101 -10.998776,-13.88507 -12.575865,-23.07238 -0.207172,-3.73296 -0.722755,-9.13942 3.213478,-11.40007 23.618846,-13.56469 16.059712,-11.88459 29.928898,-13.89527 7.101898,-0.22137 19.039399,-1.31447 24.763508,3.91899 1.19556,1.09309 1.95286,2.58515 2.9293,3.87772 2.99271,7.18864 4.02377,14.05052 -4.12905,18.44894 -27.505954,14.83941 -18.72694,13.32432 -37.718246,13.6883 -9.223477,-1.10527 -18.565449,-3.20974 -25.861115,-9.39966 -6.459498,-5.48047 -8.571941,-11.33641 -10.969332,-19.02622 -0.934449,-5.37604 -1.168627,-10.67562 1.389112,-15.67841 5.080804,-9.93776 26.896651,-18.2373 31.445798,-20.74018 16.340802,-3.59762 32.832344,0.64821 48.369853,5.72891 7.63426,3.04186 15.7064,6.49796 21.22979,12.87557 2.44513,2.82328 2.88691,4.30093 4.44372,7.57759 2.06955,5.35743 1.30146,8.81854 -1.21076,13.73038 0,0 -22.10872,9.818 -22.10872,9.818 l 0,0 c 2.83096,-4.14659 4.07984,-6.66296 2.43699,-11.75228 -1.34649,-3.06334 -1.63244,-4.27123 -3.8298,-6.92313 -5.09229,-6.1457 -12.65682,-9.57699 -19.866861,-12.48716 -15.473545,-5.11134 -32.047337,-8.98044 -48.057552,-3.85536 5.236948,-3.23659 10.46686,-6.48457 15.710839,-9.70976 1.31963,-0.81162 -2.746856,1.47799 -3.937711,2.46895 -5.445706,4.53166 -6.326125,11.12472 -5.502191,17.77068 1.38895,5.46671 1.382299,7.34314 4.752605,12.23273 6.851295,9.93976 18.217665,13.2279 29.692985,14.05861 16.114744,-1.31925 9.971108,-2.56551 -2.20711,8.25405 -1.43931,1.27874 3.577672,-1.60401 4.984204,-2.91873 3.645929,-3.40789 1.9185,-8.07518 0.426667,-11.9265 -0.834922,-1.01658 -1.491972,-2.21024 -2.504768,-3.04976 -5.508808,-4.5663 -17.046411,-3.28739 -23.576454,-2.71726 -11.739397,2.59945 -5.554344,1.8323 11.507057,-9.35699 0.797223,-0.52283 -1.831527,0.66174 -2.558318,1.27874 -2.236849,1.89899 -1.766965,5.32291 -1.85887,7.85939 0.95244,8.49873 2.917746,16.66372 10.854496,21.26401 1.657232,0.70291 3.249621,1.58438 4.971696,2.10874 12.192082,3.71236 26.192256,0.96969 38.218096,-1.91007 -4.63295,3.09439 -9.39499,6.00373 -13.89885,9.28318 -1.20303,0.87598 2.84445,-1.07208 3.96578,-2.0505 4.00019,-3.49036 -0.64678,-10.3527 -2.18314,-13.75404 -0.86142,-1.21052 -1.60017,-2.51845 -2.58425,-3.63153 -4.990521,-5.64469 -12.41846,-8.05137 -19.72362,-6.43761 6.096713,-3.66196 12.384122,-7.02368 18.29014,-10.98585 0.74732,-0.50136 -1.79969,-0.027 -2.69959,-0.0276 -0.50983,-2.8e-4 1.95594,-0.40816 1.52317,-0.13866 -6.380401,3.97344 -12.956806,7.62313 -19.435215,11.43469 0.913817,-0.36547 2.836782,-1.02724 3.559997,-1.75588 3.273175,-3.29773 0.05038,-9.41581 -1.143967,-12.7274 -5.780772,-9.42171 -12.762639,-18.14452 -24.16201,-20.80459 -1.706341,-0.39819 -3.49084,-0.3076 -5.23626,-0.4614 -10.283522,2.39218 -7.243617,2.14592 12.669144,-9.19974 1.124234,-0.64055 -2.160292,1.44354 -3.112183,2.31996 -3.449785,3.17629 -5.540312,7.23891 -6.847118,11.69138 -0.283899,1.55793 -0.737266,3.09435 -0.851709,4.67379 -0.5878,8.11222 4.482628,13.9354 11.497495,17.1734 6.04225,2.08463 11.236006,3.42108 17.750911,2.63241 2.066586,-0.25017 7.649368,-2.78337 6.083305,-1.41197 -4.524081,3.96174 -10.239846,6.30872 -15.330579,9.50982 -1.409653,0.8864 2.857719,-1.71016 4.286578,-2.56525 1.125275,-1.11725 2.362047,-2.13243 3.375812,-3.35174 4.738449,-5.69924 7.016761,-12.88255 6.033273,-20.2177 -1.376232,-6.71995 -3.236166,-13.43153 -10.260303,-16.09708 -2.326802,-0.5541 -4.241689,-1.16253 -6.664862,-1.13724 -1.025899,0.0105 -3.893531,0.99682 -3.050051,0.41277 5.882134,-4.07292 12.343663,-7.24203 18.404231,-11.04435 0.568091,-0.35641 -1.307659,0.3553 -1.891835,0.68469 -0.499331,0.28156 -0.870822,0.74571 -1.306233,1.11856 -1.598701,2.09228 -3.484527,4.90357 -0.481644,6.60593 0,0 -20.947588,13.24917 -20.947588,13.24917 z"
           id="path3167"
           style="fill:#000000;fill-opacity:1;stroke:none" />
        <g
           id="g3169"
           style="fill:#000000;fill-opacity:1;stroke:none">
          <path
             style="fill:#000000;fill-opacity:1;stroke:none"
             id="path3171"
             d="m 90.424428,242.12322 c -4.457553,7.00303 -6.55361,15.1184 -8.583502,23.07589 -2.05914,8.54294 -2.606481,17.32893 -2.825314,26.08233 -0.489196,7.5618 0.06464,14.97786 1.417076,22.41189 1.710911,8.18973 4.25422,16.25826 7.471682,23.98233 3.969667,8.31945 9.954812,15.40438 16.02802,22.2485 7.77976,8.25641 16.59679,15.42657 25.87726,21.91306 10.82022,7.02509 22.04118,13.31763 33.74066,18.74258 10.44499,4.66525 21.3917,8.05225 32.61044,10.22512 9.03679,1.77709 18.18351,3.01684 27.33916,4.00244 8.06962,1.27939 15.79089,-0.5282 23.4434,-2.90585 1.28269,-0.45957 2.57356,-0.89693 3.84809,-1.37868 1.3839,-0.52309 6.14263,-2.43234 7.48324,-3.09684 1.15781,-0.57392 4.49482,-2.55244 3.37135,-1.91393 -18.67754,10.61521 -22.99864,13.84901 -14.33076,7.68725 5.52926,-4.42883 9.96673,-9.9887 14.78644,-15.14023 4.76384,-5.29821 8.77483,-11.28514 12.45557,-17.37527 4.77331,-7.78955 8.55528,-16.13927 12.23433,-24.48637 4.42587,-9.67244 8.1303,-19.6701 11.74964,-29.66937 2.82168,-7.75524 5.17612,-15.67496 7.09369,-23.69965 1.61418,-7.46607 2.04187,-15.10158 2.26488,-22.71385 0.11398,-6.45643 0.15354,-12.91939 0.0433,-19.37651 -0.0396,-4.92112 -0.0271,-9.843 -0.14478,-14.76314 -10e-4,-0.63311 -0.002,-1.26622 -0.004,-1.89934 0,0 21.87166,-11.14626 21.87166,-11.14626 l 0,0 c -4e-5,0.6333 -7e-5,1.26659 -1.1e-4,1.89988 -0.10474,4.95853 -0.0775,9.91835 -0.087,14.87767 -0.0777,6.50657 0.0187,13.01455 -0.14555,19.52076 -0.26274,7.77082 -0.72691,15.5419 -2.19849,23.19436 -1.75983,8.19902 -4.23435,16.22395 -7.18247,24.07388 -3.65777,10.01676 -7.47145,20.00476 -11.68419,29.79591 -3.57182,8.39638 -7.22997,16.82063 -11.93296,24.65452 -3.46869,6.25371 -7.47632,12.28145 -12.02122,17.79617 -4.94657,5.18344 -9.50031,10.72755 -14.78412,15.57687 -12.334,9.83791 -26.69215,17.32641 -41.66837,22.22778 -7.86015,2.22879 -15.78637,3.49773 -23.95031,2.08043 -9.14463,-1.1212 -18.30337,-2.29885 -27.30794,-4.28247 -11.23649,-2.45678 -22.17023,-6.11193 -32.64844,-10.87386 -11.73094,-5.62037 -23.06226,-11.96495 -33.9822,-19.04364 -9.52,-6.50601 -18.452784,-13.75994 -26.17201,-22.37815 -6.340727,-7.00017 -13.096629,-13.85104 -16.95239,-22.62905 -3.306667,-7.87822 -5.646632,-16.16983 -7.581591,-24.48239 -0.0082,-0.0422 -1.699806,-8.29682 -1.72723,-8.49135 -0.668658,-4.74277 0.09691,-9.58175 -0.05015,-14.34016 0.382993,-8.91866 0.779395,-17.88471 2.766549,-26.623 2.001264,-7.97547 4.109922,-15.94099 7.466948,-23.4717 0,0 22.600682,-9.88856 22.600682,-9.88856 z"
             inkscape:connector-curvature="0" />
          <path
             style="fill:#000000;fill-opacity:1;stroke:none"
             id="path3173"
             d="m 256.46152,412.8379 c 1.3966,3.62699 4.49516,6.00417 6.80167,8.97307 2.48316,3.68137 5.88201,6.49121 9.49184,8.99551 3.94508,2.65988 8.21967,4.37447 12.71159,5.84249 5.22487,2.14784 10.61056,3.83724 16.16112,4.88314 5.41136,0.96723 10.80849,1.83376 16.29562,2.24709 4.37418,0.2875 8.75826,0.299 13.1397,0.30624 3.60179,-0.35044 6.98095,-1.54199 10.46696,-2.40068 3.36675,-1.11187 6.58264,-2.28852 9.57191,-4.21658 -36.65235,20.892 -19.03047,13.25483 -13.5963,5.32482 1.8151,-2.79323 2.77035,-5.88003 3.29155,-9.13725 0.55087,-4.42801 0.50105,-8.89806 0.48027,-13.35121 0.0957,-4.73 -0.4519,-9.38645 -2.13969,-13.80875 -1.90876,-4.72546 -4.5671,-9.09277 -7.27521,-13.39278 -2.59214,-3.97525 -5.69368,-7.58653 -8.69095,-11.25742 -3.01329,-4.16324 -6.90631,-7.48363 -10.53329,-11.06615 -2.67413,-3.09036 -5.96924,-5.16087 -9.80339,-6.47082 -2.54413,-1.31088 -5.171,-2.42997 -7.90755,-3.25992 0,0 20.28969,-13.75533 20.28969,-13.75533 l 0,0 c 2.70805,1.00123 5.30422,2.24784 7.97289,3.34921 3.93605,1.7029 7.53703,4.01046 10.2886,7.35957 3.65629,3.67039 7.44543,7.18891 10.60005,11.33209 3.03223,3.78256 6.41006,7.31574 8.87517,11.52189 2.66032,4.49049 5.57706,8.87043 7.45836,13.76894 1.90286,4.65007 2.73452,9.54843 2.63696,14.58802 -0.0267,4.5207 0.0609,9.05161 -0.17891,13.56493 -0.38613,3.48527 -1.05046,6.9344 -2.88015,9.98776 -4.93998,10.38754 -20.41977,14.9717 -27.95622,20.1373 -3.18908,1.62832 -6.57544,2.7694 -10.02118,3.7327 -3.53844,0.96409 -7.11928,1.85468 -10.81471,1.86229 -4.35321,-0.0508 -8.71019,-0.18458 -13.0452,-0.60912 -5.54066,-0.52354 -11.02187,-1.39381 -16.48255,-2.47134 -5.56611,-1.25729 -10.98931,-3.04814 -16.31077,-5.10432 -4.70372,-1.52168 -9.15854,-3.53571 -13.23127,-6.37557 -3.74887,-2.68477 -7.18927,-5.76982 -9.88267,-9.54413 -2.6057,-3.0547 -5.54621,-5.86005 -7.40658,-9.48105 0,0 21.62264,-12.07464 21.62264,-12.07464 z"
             inkscape:connector-curvature="0" />
          <path
             style="fill:#000000;fill-opacity:1;stroke:none"
             id="path3175"
             d="m 293.27648,381.32432 c 3.90179,1.96527 7.37262,4.52012 10.76337,7.24215 3.28326,2.5305 5.88478,5.74587 8.51699,8.91193 1.80191,2.44017 3.30584,5.09612 5.19266,7.47014 0,0 -21.18412,12.61136 -21.18412,12.61136 l 0,0 c -1.80869,-2.40444 -3.42518,-4.9389 -5.09898,-7.43617 -2.49556,-3.0621 -4.93277,-6.17968 -8.13549,-8.55856 -3.23269,-2.61109 -6.70385,-5.00966 -10.6295,-6.45672 0,0 20.57507,-13.78413 20.57507,-13.78413 z"
             inkscape:connector-curvature="0" />
          <path
             style="fill:#000000;fill-opacity:1;stroke:none"
             id="path3177"
             d="m 212.01003,413.03814 c 4.53556,0.082 9.07258,0.0829 13.60861,0.0427 2.98955,-0.0304 5.9793,-0.027 8.96889,-0.045 2.26392,-0.4234 4.52775,-0.80494 6.81579,-1.06665 2.14223,-1.09342 4.37279,-2.08852 6.66791,-2.82632 2.10609,-0.50702 4.03909,-1.55254 6.08839,-2.25425 2.43403,-1.04461 4.8543,-2.06545 7.24958,-3.19112 2.57709,-1.20099 5.11016,-2.49262 7.57584,-3.90634 2.34137,-0.8986 4.44946,-2.25256 6.70724,-3.32273 -0.76771,0.4604 2.60969,-1.53028 1.95396,-1.1534 -47.21192,27.13537 34.98906,-20.03991 -11.97771,6.9045 0,0 16.32843,-6.29117 16.32843,-6.29117 l 0,0 c -53.01576,30.55205 34.69926,-20.32555 -17.96641,10.4096 -0.68396,0.39915 -1.29677,0.70639 -2.00261,1.07384 -2.17588,1.17962 -4.43216,2.18335 -6.62321,3.33113 -2.52911,1.33708 -5.06354,2.66161 -7.67187,3.8402 -2.40981,1.13324 -4.91096,2.06337 -7.36246,3.10133 -1.99872,0.81851 -4.01146,1.59623 -6.08146,2.21702 -2.28756,0.91259 -4.52539,2.08748 -6.95513,2.54841 -2.2991,0.28852 -4.57404,0.80803 -6.89697,0.86703 -2.94826,-0.0181 -5.89668,-0.0144 -8.8449,-0.045 -4.57521,-0.0415 -9.15135,-0.0368 -13.72611,0.0427 0,0 14.1442,-10.27637 14.1442,-10.27637 z"
             inkscape:connector-curvature="0" />
          <path
             style="fill:#000000;fill-opacity:1;stroke:none"
             id="path3179"
             d="m 194.0354,411.8423 c 2.93862,0.066 5.8782,0.016 8.8172,0.0185 2.62958,-0.0125 5.25912,0.0105 7.88874,-0.002 2.39462,0.23403 4.68281,-0.30957 7.03029,-0.63752 2.59467,-0.22659 5.14327,-0.45894 7.69429,-0.97028 2.51738,-0.9802 5.20704,-1.43504 7.65212,-2.59036 1.90705,-1.17791 4.17536,-1.18589 6.2258,-1.89271 1.32892,-1.04638 3.04286,-1.03391 4.5525,-1.56898 0.89293,-0.31651 1.69996,-0.83735 2.5615,-1.23135 4.58213,-2.57618 15.31726,-8.61613 -12.38738,7.10724 -0.38201,0.21681 0.74546,-0.46487 1.11468,-0.70283 0.75328,-0.48547 1.47102,-1.02803 2.24787,-1.47483 5.36991,-3.08857 10.76397,-6.13495 16.14597,-9.20242 2.29066,-1.0537 4.48656,-2.23726 6.75109,-3.33386 6.11922,-2.6318 15.73804,-8.44427 -10.00327,6.16649 2.18997,-1.17372 4.01975,-2.8003 5.79911,-4.51 1.95281,-1.94828 4.22953,-3.51642 6.25438,-5.37867 1.9005,-1.85479 3.65768,-3.84756 5.54832,-5.71176 1.48363,-1.40945 3.05816,-2.72293 4.50632,-4.16846 1.22309,-1.16049 2.46743,-2.30732 3.61654,-3.54262 0.69173,-0.60216 1.3598,-1.21482 1.98366,-1.88641 0,0 16.16366,-6.84843 16.16366,-6.84843 l 0,0 c -0.57991,0.74153 -1.097,1.54915 -1.8934,2.08309 -1.33755,1.03694 -2.40172,2.40694 -3.61391,3.5808 -1.63015,1.25869 -2.99069,2.85957 -4.5691,4.19008 -2.08165,1.64365 -3.72089,3.76632 -5.59275,5.63675 -1.93517,2.00418 -4.19068,3.54879 -6.24059,5.42891 -1.85374,1.63351 -3.3999,3.62559 -5.62029,4.78624 -6.72868,3.86195 -13.02076,7.95766 -20.00057,11.10247 -2.22524,1.14924 -4.49767,2.20677 -6.74574,3.31113 4.5995,-2.68415 9.18893,-5.38563 13.7985,-8.05243 0.37247,-0.21548 -0.7246,0.46438 -1.08606,0.69785 -0.77413,0.50001 -1.50027,1.07513 -2.29544,1.54096 -5.38964,3.15739 -10.7954,6.28755 -16.22181,9.38132 -0.42952,0.24489 -0.8945,0.4215 -1.34174,0.63225 -2.39545,1.00938 -4.91863,1.69007 -7.33358,2.64835 -2.09957,0.44246 -4.10166,1.10933 -6.05301,2.01173 -2.59302,0.872 -5.21461,1.69425 -7.87631,2.32508 -2.55909,0.43948 -5.15939,0.48489 -7.72152,0.91635 -2.38941,0.38738 -4.7701,0.55203 -7.19269,0.432 -2.62698,-0.0141 -5.25387,0.009 -7.88082,-0.002 -2.95593,0.002 -5.91243,-0.0472 -8.86804,0.0185 0,0 14.18548,-10.30634 14.18548,-10.30634 z"
             inkscape:connector-curvature="0" />
          <path
             style="fill:#000000;fill-opacity:1;stroke:none"
             id="path3181"
             d="m 245.91828,404.51636 c 3.16238,-0.31031 6.13607,-1.47338 9.15533,-2.37876 2.16197,-0.84933 4.53715,-0.5548 6.72736,-1.15965 6.22925,-1.59866 16.9947,-8.72115 -9.14585,6.05326 0,0 16.26405,-6.35431 16.26405,-6.35431 l 0,0 c -6.59315,3.8159 -13.27374,9.36379 -21.09967,10.86485 -2.21942,0.24764 -4.42777,0.53602 -6.55399,1.26442 -3.07632,0.94802 -6.17706,1.82789 -9.38358,2.2157 0,0 14.03635,-10.50551 14.03635,-10.50551 z"
             inkscape:connector-curvature="0" />
          <path
             style="fill:#000000;fill-opacity:1;stroke:none"
             id="path3183"
             d="m 264.95812,393.19162 c 3.23063,0.70672 6.12144,2.08314 8.94146,3.76646 1.43635,0.90342 0.78069,0.35901 1.9549,1.64769 0,0 -14.94956,9.11754 -14.94956,9.11754 l 0,0 c -0.93999,-0.91165 -0.40173,-0.47059 -1.64657,-1.28344 -2.67466,-1.58248 -5.52457,-2.73552 -8.62903,-3.14527 0,0 14.3288,-10.10298 14.3288,-10.10298 z"
             inkscape:connector-curvature="0" />
        </g>
        <path
           style="fill:#000000;fill-opacity:1;stroke:none"
           id="path3185"
           d="m 288.134,167.40709 c -3.56838,-7.75303 -1.13041,-16.35153 1.67977,-23.93927 2.36413,-4.47037 5.13898,-9.7222 9.66414,-12.44946 22.9885,-13.85485 15.00808,-11.82279 27.26897,-14.3475 7.23869,0.0431 15.74996,2.92951 20.9945,8.09434 1.26327,1.24408 2.18061,2.79631 3.27091,4.19446 4.40747,8.45646 6.98243,18.31858 6.19265,27.92875 -0.14415,1.75398 -0.5583,3.47523 -0.83744,5.21285 -2.50294,8.14398 -6.04799,16.5627 -12.84408,22.12169 -2.11067,1.72646 -4.47418,3.14205 -6.88018,4.4253 -9.3013,4.96092 -18.80768,9.5274 -28.21151,14.29109 -3.47822,0.41895 -6.93132,1.23843 -10.43463,1.25685 -3.92606,0.0207 -7.83806,-0.57325 -11.72301,-1.14035 -10.62166,-1.55047 -21.27292,-4.20643 -30.18286,-10.48034 -2.38503,-1.67941 -4.37161,-3.86315 -6.55742,-5.79473 -1.40724,-2.15046 -3.16241,-4.10989 -4.22172,-6.45141 -3.28785,-7.26748 -2.81883,-18.82321 0.88384,-25.91984 0.96695,-1.85327 2.42452,-3.4059 3.63678,-5.10885 14.89185,-12.13102 32.87059,-21.93175 52.45946,-20.97248 9.72825,0.4764 13.4793,2.17263 22.81639,4.88462 11.9244,4.18119 23.53575,9.7231 32.87676,18.39811 1.45124,1.34777 2.91276,2.71714 4.09041,4.30956 0.98186,1.3277 1.5532,2.91461 2.3298,4.37192 0.0669,1.5616 0.55844,3.16328 0.20057,4.68478 -0.95134,4.0446 -3.93529,6.11081 -7.41227,7.93532 -9.07555,4.76227 -18.08286,9.74291 -27.58958,13.57263 -1.98212,0.79849 -16.96555,1.91174 -18.84452,2.07168 -3.36093,-0.14813 -6.74276,-0.0417 -10.08278,-0.44438 -12.56926,-1.51513 -27.68223,-6.12965 -38.56645,-12.69686 -2.14132,-1.29201 -4.08941,-2.8801 -6.13411,-4.32015 -3.18742,-2.99247 -10.07935,-9.17877 -6.5655,-14.45549 0.75987,-1.14109 1.88496,-2.06327 3.09383,-2.7099 8.6018,-4.60119 17.48741,-8.65087 26.23112,-12.97631 12.82517,-1.15199 25.96828,0.82819 37.67316,6.37138 1.92795,0.91303 3.70671,2.11255 5.56006,3.16883 6.31296,4.51736 11.49049,10.35933 13.0051,18.10622 0.2535,3.18472 -0.79548,5.91743 -2.68021,8.41494 0,0 -22.76246,9.52753 -22.76246,9.52753 l 0,0 c 2.08063,-1.80775 3.4792,-3.70514 3.82673,-6.54055 -0.56877,-7.13196 -5.52128,-12.59953 -11.02125,-16.75104 -1.73157,-1.00001 -3.38862,-2.14193 -5.19471,-3.00005 -11.55044,-5.48787 -24.49491,-7.20116 -37.05477,-5.00558 4.94591,-3.33211 10.09159,-6.38538 14.83774,-9.99636 0.58358,-0.444 -4.14729,0.62644 -4.91218,3.22015 -1.1738,3.98024 3.36901,7.84115 5.48927,10.23655 1.88492,1.41904 3.66529,2.98879 5.65473,4.25713 11.05557,7.04832 24.69257,10.88266 37.67909,12.03949 3.32096,0.29583 6.66736,0.10696 10.00105,0.16046 3.20108,-0.32779 6.41823,-0.52502 9.60324,-0.98338 3.13137,-0.45064 10.60419,-4.6369 9.3298,-1.74128 -2.06046,4.68168 -8.63298,5.55562 -12.4881,8.91743 -2.01303,1.75544 6.26534,-2.05929 7.96222,-5.57215 0.54333,-1.12481 0.29664,-2.48066 0.44497,-3.72097 -0.57905,-1.31804 -0.94971,-2.74893 -1.73715,-3.95412 -1.02089,-1.5625 -2.32389,-2.93013 -3.63118,-4.26226 -8.62534,-8.78942 -19.76511,-14.27 -31.28558,-18.23294 -3.7948,-0.99532 -7.52245,-2.29563 -11.3844,-2.98595 -7.63241,-1.3643 -14.08692,-1.4368 -21.69362,-0.14773 -3.15571,0.53477 -10.73209,5.27149 -9.29429,2.4119 2.22563,-4.42645 8.26173,-5.47507 12.28691,-8.36378 1.78621,-1.28188 -3.7102,2.35996 -5.56529,3.53995 -1.28493,1.48282 -2.80784,2.78903 -3.85478,4.44846 -3.96666,6.28727 -5.04942,17.32079 -2.2577,24.18781 0.88742,2.18284 2.43216,4.03656 3.64823,6.05484 2.01619,1.84657 3.8279,3.94488 6.04856,5.53971 10.6803,7.67032 27.89974,11.29917 40.8445,10.54707 3.52815,-0.20498 6.95996,-1.23224 10.43994,-1.84835 -3.67018,2.63513 -7.79497,4.73141 -11.01055,7.9054 -1.85782,1.83379 4.7296,-2.27348 6.8489,-3.79758 6.87703,-4.94567 10.38892,-12.87723 12.97406,-20.63768 0.34721,-1.63802 0.8215,-3.25416 1.04163,-4.91404 1.20312,-9.07233 -1.1702,-18.46438 -5.46025,-26.41705 -0.99935,-1.20492 -1.85182,-2.54861 -2.99806,-3.61474 -5.2781,-4.90923 -13.00354,-7.0817 -20.02154,-6.1593 -9.49397,3.33084 -5.38654,2.13119 14.24778,-9.25015 1.02511,-0.59422 -2.04964,1.20833 -2.96514,1.96056 -3.11644,2.56065 -5.53745,5.97802 -7.53353,9.43285 -2.90675,6.58876 -5.67697,14.72757 -1.83632,21.49467 0,0 -21.40645,12.40707 -21.40645,12.40707 z"
           inkscape:connector-curvature="0" />
        <path
           transform="matrix(1.4836838,0,0,1.0844985,-140.34146,-37.596815)"
           d="m 261.62951,277.5752 c 0,19.52621 -15.82913,35.35533 -35.35534,35.35533 -19.52621,0 -35.35534,-15.82912 -35.35534,-35.35533 0,-19.52622 15.82913,-35.35534 35.35534,-35.35534 19.52621,0 35.35534,15.82912 35.35534,35.35534 z"
           sodipodi:ry="35.355339"
           sodipodi:rx="35.355339"
           sodipodi:cy="277.5752"
           sodipodi:cx="226.27417"
           id="path3187"
           style="fill:#e01200;fill-opacity:1;stroke:none"
           sodipodi:type="arc" />
      </g>
    </g>
    <g
       id="g5057"
       transform="translate(941.46214,965.70583)"
       inkscape:export-filename="/Users/Vincent/Desktop/bike-friend/new-android/art/map_marker_green.png"
       inkscape:export-xdpi="102.83"
       inkscape:export-ydpi="102.83">
      <path
         id="path4042"
         d="m -1123.6348,-441.58617 c -119.5981,0 -216.5528,96.95466 -216.5528,216.55276 0,61.38979 25.5589,116.79173 66.5993,156.19904 l 299.90695,0 c 41.04311,-39.40758 66.59928,-94.8069 66.59928,-156.19904 0,-119.5981 -96.95463,-216.55276 -216.55273,-216.55276 z"
         style="fill:url(#radialGradient5069);fill-opacity:1;stroke:#37cd3a;stroke-width:15;stroke-linejoin:round;stroke-miterlimit:4;stroke-opacity:1;stroke-dasharray:none"
         inkscape:connector-curvature="0" />
      <path
         inkscape:connector-curvature="0"
         id="rect4845"
         d="m -1165.8623,-36.096908 42.2277,30.8326404 42.2278,-30.8326404 -84.4555,0 z"
         style="fill:#000000;fill-opacity:1;stroke:#000000;stroke-width:10;stroke-linecap:round;stroke-linejoin:round;stroke-miterlimit:4;stroke-opacity:1;stroke-dasharray:none;stroke-dashoffset:0" />
    </g>
    <g
       id="g5061"
       transform="translate(932.89074,965.70583)"
       inkscape:export-filename="/Users/Vincent/Desktop/bike-friend/new-android/art/map_marker_yellow.png"
       inkscape:export-xdpi="102.83"
       inkscape:export-ydpi="102.83">
      <path
         inkscape:connector-curvature="0"
         style="fill:url(#radialGradient5071);fill-opacity:1;stroke:#c8cd37;stroke-width:15;stroke-linejoin:round;stroke-miterlimit:4;stroke-opacity:1;stroke-dasharray:none"
         d="m -572.20626,-441.58617 c -119.5981,0 -216.55276,96.95466 -216.55276,216.55276 0,61.38979 25.55892,116.79173 66.59928,156.19904 l 299.90696,0 c 41.04311,-39.40758 66.59928,-94.8069 66.59928,-156.19904 0,-119.5981 -96.95466,-216.55276 -216.55276,-216.55276 z"
         id="path4938" />
      <path
         style="fill:#000000;fill-opacity:1;stroke:#000000;stroke-width:10;stroke-linecap:round;stroke-linejoin:round;stroke-miterlimit:4;stroke-opacity:1;stroke-dasharray:none;stroke-dashoffset:0"
         d="m -614.43378,-36.096908 42.2278,30.8326404 42.22776,-30.8326404 -84.45556,0 z"
         id="path4940"
         inkscape:connector-curvature="0" />
    </g>
    <g
       id="g5065"
       transform="translate(941.46221,965.70583)"
       inkscape:export-filename="/Users/Vincent/Desktop/bike-friend/new-android/art/map_marker_red.png"
       inkscape:export-xdpi="102.83"
       inkscape:export-ydpi="102.83">
      <path
         id="path4946"
         d="m -37.92055,-441.58617 c -119.5981,0 -216.55276,96.95466 -216.55276,216.55276 0,61.38979 25.55892,116.79173 66.59928,156.19904 l 299.90696,0 c 41.04311,-39.40758 66.59928,-94.8069 66.59928,-156.19904 0,-119.5981 -96.95466,-216.55276 -216.55276,-216.55276 z"
         style="fill:url(#radialGradient5073);fill-opacity:1;stroke:#cd3737;stroke-width:15;stroke-linejoin:round;stroke-miterlimit:4;stroke-opacity:1;stroke-dasharray:none"
         inkscape:connector-curvature="0" />
      <path
         inkscape:connector-curvature="0"
         id="path4948"
         d="m -80.14807,-36.096908 42.2278,30.8326404 42.22776,-30.8326404 -84.45556,0 z"
         style="fill:#000000;fill-opacity:1;stroke:#000000;stroke-width:10;stroke-linecap:round;stroke-linejoin:round;stroke-miterlimit:4;stroke-opacity:1;stroke-dasharray:none;stroke-dashoffset:0" />
    </g>
  </g>
</svg>
