<?xml version="1.0" encoding="UTF-8" standalone="no"?>
<!-- Created with Inkscape (http://www.inkscape.org/) -->

<svg
   xmlns:dc="http://purl.org/dc/elements/1.1/"
   xmlns:cc="http://creativecommons.org/ns#"
   xmlns:rdf="http://www.w3.org/1999/02/22-rdf-syntax-ns#"
   xmlns:svg="http://www.w3.org/2000/svg"
   xmlns="http://www.w3.org/2000/svg"
   xmlns:sodipodi="http://sodipodi.sourceforge.net/DTD/sodipodi-0.dtd"
   xmlns:inkscape="http://www.inkscape.org/namespaces/inkscape"
   inkscape:version="0.48.5 r10040"
   version="1.1"
   id="svg2"
   height="1052.3622047"
   width="744.09448819"
   sodipodi:docname="New document 1">
  <defs
     id="defs4" />
  <sodipodi:namedview
     id="base"
     pagecolor="#ffffff"
     bordercolor="#666666"
     borderopacity="1.0"
     inkscape:pageopacity="0.0"
     inkscape:pageshadow="2"
     inkscape:zoom="0.35"
     inkscape:cx="315.61867"
     inkscape:cy="763.4699"
     inkscape:document-units="px"
     inkscape:current-layer="layer1"
     showgrid="false"
     inkscape:window-width="1436"
     inkscape:window-height="856"
     inkscape:window-x="4"
     inkscape:window-y="0"
     inkscape:window-maximized="1" />
  <metadata
     id="metadata7">
    <rdf:RDF>
      <cc:Work
         rdf:about="">
        <dc:format>image/svg+xml</dc:format>
        <dc:type
           rdf:resource="http://purl.org/dc/dcmitype/StillImage" />
        <dc:title></dc:title>
      </cc:Work>
    </rdf:RDF>
  </metadata>
  <g
     inkscape:label="Layer 1"
     inkscape:groupmode="layer"
     id="layer1">
    <g
       id="g4263"
       inkscape:export-filename="/Users/Vincent/Desktop/bike-friend/new-android/art/new_taipei_logo.png"
       inkscape:export-xdpi="130.92"
       inkscape:export-ydpi="130.92">
      <g
         id="g4253">
        <path
           style="fill:#ffffff;fill-opacity:1;stroke:none"
           d="m 393.375,157.34375 c -61.32766,0.19392 -119.55494,47.12743 -130.6875,107.78125 -0.59106,14.31494 13.52024,25.38166 27.19878,25.0426 35.76105,6.99419 71.31131,17.08204 107.67622,20.42615 12.54231,-1.95838 18.18872,-15.75158 18.83004,-27.07853 6.31709,-35.81449 17.38438,-70.90785 19.88871,-107.29647 -3.6017,-14.01592 -19.81255,-19.63729 -32.96875,-18.78125 -3.31291,0.0275 -6.62475,-0.21279 -9.9375,-0.0937 z"
           id="path4173"
           inkscape:connector-curvature="0" />
        <path
           style="fill:#ffffff;fill-opacity:1;stroke:none"
           d="m 436.59375,164.125 c -14.2774,0.89541 -22.24114,16.14697 -22.90625,29.03125 -6.24288,35.60735 -17.23155,70.52248 -19.59375,106.71875 3.50106,12.96744 18.43266,17.34732 30.375,18.1875 34.94996,6.3115 69.33306,17.38487 104.96875,19.0625 13.39126,-3.80318 18.23653,-19.40704 17.71875,-31.96875 4.58618,-62.27791 -39.2505,-125.07784 -100.41008,-139.42007 -3.29791,-0.69465 -6.71772,-1.72326 -10.15242,-1.61118 z"
           id="path4175"
           inkscape:connector-curvature="0" />
        <path
           style="fill:#ffffff;fill-opacity:1;stroke:none"
           d="m 276.5,268 c -13.96306,2.08873 -20.94859,17.98192 -19.875,30.9375 -5.92122,65.16353 42.1767,130.95773 106.875,142.625 14.7859,0.90703 26.20904,-13.73493 25.96097,-27.70247 C 396.07976,377.92885 406.80232,342.54198 409.5625,306 406.14751,293.01403 391.44521,288.43148 379.53125,287.53125 345.20078,281.09145 311.36112,271.44003 276.5,268 z"
           id="path4177"
           inkscape:connector-curvature="0" />
        <path
           style="fill:#ffffff;fill-opacity:1;stroke:none"
           d="m 406.875,294.625 c -12.99125,1.95218 -19.35113,16.10819 -19.875,27.96875 -6.22176,35.7075 -17.44415,70.67935 -19.59375,107 3.6784,14.31948 20.33569,19.23542 33.59375,18.84375 63.18805,3.61282 125.56235,-42.10648 139.21875,-104.03125 3.37586,-14.32251 -9.55239,-28.40788 -23.73266,-28.68541 C 479.88622,309.10767 443.84729,298.93587 406.875,294.625 z"
           id="path4179"
           inkscape:connector-curvature="0" />
        <path
           style="fill:#fccf00;fill-opacity:1;stroke:none"
           d="m 412.37854,176.47179 c -57.91814,-8.16542 -113.13452,27.37511 -129.93134,83.09759 -2.81471,9.87333 -3.33763,10.21513 8.77202,12.71737 l 94.25876,19.47687 c 11.60591,2.39816 10.24704,3.15855 12.65208,-8.48066 l 19.69367,-95.30803 c 2.07654,-10.04944 0.66336,-10.14763 -5.44519,-11.50314 z m -34.93454,89.3218 c 0,0 -43.82188,-10.55096 -52.20289,-23.78748 -8.38101,-13.23652 7.16911,-34.07388 25.21033,-17.95811 -9.2456,-22.15235 18.62234,-27.87514 27.00131,-14.68227 8.37898,13.19287 -0.009,56.42786 -0.009,56.42786 z"
           id="path3773"
           inkscape:connector-curvature="0"
           sodipodi:nodetypes="cccccccczczc" />
        <path
           sodipodi:nodetypes="cccccccczczc"
           inkscape:connector-curvature="0"
           id="path3825"
           d="m 442.13511,182.62044 c 56.41112,15.45866 93.01928,69.97307 86.35537,127.78932 -1.329,10.18033 -0.98437,10.7014 -13.09403,8.19915 l -94.25877,-19.47686 c -11.6059,-2.39815 -10.6597,-1.16144 -8.25467,-12.80066 l 19.69368,-95.30803 c 2.07654,-10.04943 3.41289,-9.57948 9.55842,-8.40292 z m -3.32841,95.85265 c 0,0 44.4148,7.68153 57.3556,-1.1492 12.94083,-8.83076 6.92291,-34.12475 -16.02813,-26.4793 17.2683,-16.67373 -6.04916,-32.97305 -18.97081,-24.18156 -12.92163,8.79148 -22.35666,51.81007 -22.35666,51.81007 z"
           style="fill:#e50012;fill-opacity:1;stroke:none" />
        <path
           sodipodi:nodetypes="cccccccczczc"
           inkscape:connector-curvature="0"
           id="path3827"
           d="m 361.43633,423.00785 c -56.41112,-15.45866 -93.01927,-69.97307 -86.35537,-127.78932 1.32901,-10.18033 0.98437,-10.7014 13.09403,-8.19915 l 94.25877,19.47686 c 11.6059,2.39815 10.6597,1.16144 8.25467,12.80066 l -19.69368,95.30803 c -2.07654,10.04943 -3.41289,9.57948 -9.55842,8.40292 z m 3.32841,-95.85265 c 0,0 -44.4148,-7.68153 -57.3556,1.1492 -12.94082,8.83076 -6.92291,34.12475 16.02813,26.4793 -17.2683,16.67373 6.04917,32.97305 18.97081,24.18156 12.92163,-8.79148 22.35666,-51.81007 22.35666,-51.81007 z"
           style="fill:#1eaa39;fill-opacity:1;stroke:none" />
        <path
           style="fill:#0068b6;fill-opacity:1;stroke:none"
           d="m 391.1929,429.1565 c 57.91814,8.16542 113.13452,-27.37511 129.93134,-83.09759 2.81471,-9.87333 3.33763,-10.21513 -8.77202,-12.71737 l -94.25876,-19.47687 c -11.6059,-2.39815 -10.24704,-3.15855 -12.65208,8.48066 l -19.69367,95.30803 c -2.07654,10.04944 -0.66336,10.14763 5.44519,11.50314 z m 34.93454,-89.3218 c 0,0 43.82188,10.55096 52.20289,23.78748 8.38101,13.23652 -7.16911,34.07388 -25.21033,17.95811 9.2456,22.15235 -18.62233,27.87514 -27.00131,14.68227 -8.37897,-13.19287 0.009,-56.42786 0.009,-56.42786 z"
           id="path3829"
           inkscape:connector-curvature="0"
           sodipodi:nodetypes="cccccccczczc" />
      </g>
      <g
         id="g4163">
        <path
           style="fill:#ffffff;fill-opacity:1;stroke:none"
           d="m 227.09375,413.96875 c 29.53474,29.03575 55.72861,63.72472 94.1875,81.34375 24.7733,7.88399 52.14578,6.86443 76.875,-0.40625 8.04751,-5.86948 5.40714,-17.98925 0.0312,-24.78125 -12.06484,-26.0951 -37.64751,-46.33562 -66.7454,-48.78321 -35.57588,-7.02733 -71.91671,-8.26179 -108.0046,-11.15429 1.21875,1.26042 2.4375,2.52083 3.65625,3.78125 z"
           id="path4127"
           inkscape:connector-curvature="0" />
        <path
           style="fill:#b4b4b4;fill-opacity:1;stroke:none"
           d="m 352.53493,441.53194 c 24.03667,10.50046 36.62551,42.24127 36.62551,42.24127 0,0 -42.46532,7.69031 -65.88171,-2.53918 -23.4164,-10.22951 -64.58201,-54.45414 -64.58201,-54.45414 0,0 69.80154,4.25158 93.83821,14.75205 z"
           id="path3831"
           inkscape:connector-curvature="0"
           sodipodi:nodetypes="zczcz" />
      </g>
      <g
         transform="matrix(-1,0,0,1,798.83262,0)"
         id="g4167">
        <path
           inkscape:connector-curvature="0"
           id="path4169"
           d="m 227.09375,413.96875 c 29.53474,29.03575 55.72861,63.72472 94.1875,81.34375 24.7733,7.88399 52.14578,6.86443 76.875,-0.40625 8.04751,-5.86948 5.40714,-17.98925 0.0312,-24.78125 -12.06484,-26.0951 -37.64751,-46.33562 -66.7454,-48.78321 -35.57588,-7.02733 -71.91671,-8.26179 -108.0046,-11.15429 1.21875,1.26042 2.4375,2.52083 3.65625,3.78125 z"
           style="fill:#ffffff;fill-opacity:1;stroke:none" />
        <path
           sodipodi:nodetypes="zczcz"
           inkscape:connector-curvature="0"
           id="path4171"
           d="m 352.53493,441.53194 c 24.03667,10.50046 36.62551,42.24127 36.62551,42.24127 0,0 -42.46532,7.69031 -65.88171,-2.53918 -23.4164,-10.22951 -64.58201,-54.45414 -64.58201,-54.45414 0,0 69.80154,4.25158 93.83821,14.75205 z"
           style="fill:#b4b4b4;fill-opacity:1;stroke:none" />
      </g>
    </g>
  </g>
</svg>
