<?xml version="1.0" encoding="UTF-8" standalone="no"?>
<!-- Created with Inkscape (http://www.inkscape.org/) -->

<svg
   xmlns:osb="http://www.openswatchbook.org/uri/2009/osb"
   xmlns:dc="http://purl.org/dc/elements/1.1/"
   xmlns:cc="http://creativecommons.org/ns#"
   xmlns:rdf="http://www.w3.org/1999/02/22-rdf-syntax-ns#"
   xmlns:svg="http://www.w3.org/2000/svg"
   xmlns="http://www.w3.org/2000/svg"
   xmlns:sodipodi="http://sodipodi.sourceforge.net/DTD/sodipodi-0.dtd"
   xmlns:inkscape="http://www.inkscape.org/namespaces/inkscape"
   width="744.09448819"
   height="1052.3622047"
   id="svg2"
   version="1.1"
   inkscape:version="0.48.5 r10040"
   sodipodi:docname="New document 1">
  <defs
     id="defs4">
    <linearGradient
       osb:paint="solid"
       id="linearGradient3759">
      <stop
         id="stop3761"
         offset="0"
         style="stop-color:#000000;stop-opacity:1;" />
    </linearGradient>
  </defs>
  <sodipodi:namedview
     id="base"
     pagecolor="#ffffff"
     bordercolor="#666666"
     borderopacity="1.0"
     inkscape:pageopacity="0.0"
     inkscape:pageshadow="2"
     inkscape:zoom="0.35"
     inkscape:cx="230.36654"
     inkscape:cy="990.56305"
     inkscape:document-units="px"
     inkscape:current-layer="layer1"
     showgrid="false"
     inkscape:window-width="1436"
     inkscape:window-height="856"
     inkscape:window-x="4"
     inkscape:window-y="0"
     inkscape:window-maximized="1" />
  <metadata
     id="metadata7">
    <rdf:RDF>
      <cc:Work
         rdf:about="">
        <dc:format>image/svg+xml</dc:format>
        <dc:type
           rdf:resource="http://purl.org/dc/dcmitype/StillImage" />
        <dc:title></dc:title>
      </cc:Work>
    </rdf:RDF>
  </metadata>
  <g
     inkscape:label="Layer 1"
     inkscape:groupmode="layer"
     id="layer1">
    <path
       style="fill:#000000;fill-opacity:1;stroke:none"
       d="m 109.96429,65.223214 c -13.430994,0 -24.250004,10.81901 -24.250004,24.25 l 0,115.781246 c 0,13.43099 10.81901,24.25 24.250004,24.25 l 115.78125,0 c 13.43099,0 24.25,-10.81901 24.25,-24.25 l 0,-115.781246 c 0,-13.43099 -10.81901,-24.25 -24.25,-24.25 l -115.78125,0 z m 13.5625,16.875 38.375,0 c 33.51715,1.3e-4 50.28115,13.48654 50.28125,40.437496 -1e-4,27.52457 -15.40204,41.2813 -46.21875,41.28125 l -17.875,0 0,48.8125 -24.5625,0 0,-130.531246 z m 24.5625,17.625 0,46.468746 12.15625,0 c 17.94992,7e-5 26.90618,-7.88693 26.90625,-23.65625 -7e-5,-15.19572 -9.19853,-22.812386 -27.625,-22.812496 l -11.4375,0 z"
       id="rect2985"
       inkscape:connector-curvature="0"
       inkscape:export-filename="/Users/Vincent/Desktop/bike-friend/new-android/art/ic_action_parking.png"
       inkscape:export-xdpi="280.48999"
       inkscape:export-ydpi="280.48999" />
    <path
       style="fill:#000000;fill-opacity:1;stroke:none"
       d="M 348.53125 63.78125 C 335.10026 63.78125 324.28125 74.600261 324.28125 88.03125 L 324.28125 99.375 C 327.52654 99.719311 330.87053 100.45176 333.90625 101.1875 C 339.04327 102.43251 343.15625 103.8125 343.15625 103.8125 L 345.34375 104.53125 L 345.5 106.8125 C 345.5 106.8125 345.67566 108.71292 345.34375 110.84375 C 345.18069 111.89055 344.91775 113.04265 344.15625 114.28125 L 397.53125 105.4375 L 393.9375 94.71875 C 393.59972 93.705398 393.67979 92.439757 394.0625 91.5 C 394.35259 90.78766 394.78033 90.384431 395.1875 89.96875 C 394.65672 90.107176 394.27012 90.211816 393.71875 90.34375 C 391.50743 90.872885 389.19041 91.3506 386.9375 91.4375 C 384.68459 91.524398 382.22402 91.423919 380.15625 89.4375 C 379.29582 88.610818 378.87993 87.936146 378.4375 86.875 C 378.21628 86.344427 377.91194 85.797714 378.03125 84.5625 C 378.0909 83.944893 378.33996 83.046879 379.03125 82.3125 C 379.72254 81.578121 380.72434 81.22516 381.4375 81.15625 L 399.28125 79.40625 L 399.3125 79.40625 L 399.34375 79.40625 C 399.34375 79.40625 399.61908 79.362405 400.0625 79.34375 C 400.50592 79.325095 401.11743 79.33163 401.78125 79.375 C 403.10888 79.46174 404.79454 79.288058 406.75 81.1875 C 409.60926 83.964844 410.16627 87.826132 408.90625 91.3125 C 408.30795 92.967971 407.0742 93.769281 406.21875 94.21875 C 405.7509 94.464566 405.46283 94.547125 405.09375 94.6875 L 413.625 121.21875 C 418.59754 119.4963 423.90571 118.46875 429.46875 118.46875 C 456.35561 118.46875 478.15625 140.37075 478.15625 167.25 C 478.15625 194.12928 456.35561 216.03125 429.46875 216.03125 C 402.58189 216.03125 380.6875 194.13687 380.6875 167.25 C 380.6875 158.71641 382.97328 150.761 386.84375 143.78125 L 358.40625 172.03125 L 357.40625 173 L 356 173 L 331.59375 173 C 330.70548 180.48469 328.13011 187.46408 324.28125 193.53125 L 324.28125 203.84375 C 324.28125 217.27474 335.10026 228.0625 348.53125 228.0625 L 464.3125 228.0625 C 477.74349 228.0625 488.5625 217.27474 488.5625 203.84375 L 488.5625 88.03125 C 488.5625 74.600261 477.74349 63.78125 464.3125 63.78125 L 348.53125 63.78125 z M 400.03125 115.28125 L 335.84375 125.90625 L 346.3125 162 L 352.28125 162 L 400.03125 115.28125 z M 326.84375 130.96875 L 324.28125 133.5625 L 324.28125 141 C 328.26393 147.18374 330.88171 154.29579 331.71875 162 L 335.84375 162 L 326.84375 130.96875 z M 429.46875 133.40625 C 425.49695 133.40625 421.76272 134.29038 418.21875 135.5625 L 423.40625 151.8125 L 431.9375 162.25 C 434.02704 163.04791 435.625 165.02121 435.625 167.4375 C 435.625 170.58222 433.11343 173.09375 429.96875 173.09375 C 427.42593 173.09375 425.42341 171.31416 424.71875 169.0625 L 414.25 156.625 L 413.84375 156.125 L 413.65625 155.5625 L 413.0625 153.875 L 412.875 153.34375 L 412.875 153.1875 L 408.8125 140.46875 C 400.78622 146.6557 395.625 156.32553 395.625 167.25 C 395.625 185.96153 410.748 201.03125 429.46875 201.03125 C 448.18952 201.03125 463.21875 185.97077 463.21875 167.25 C 463.21875 148.52925 448.18028 133.40625 429.46875 133.40625 z "
       id="rect3761"
       inkscape:export-filename="/Users/Vincent/Desktop/bike-friend/new-android/art/ic_action_bicycle.png"
       inkscape:export-xdpi="280.48999"
       inkscape:export-ydpi="280.48999" />
    <rect
       style="fill:#2964bc;fill-opacity:1;stroke:none"
       id="rect4239"
       width="164.28572"
       height="164.28572"
       x="324.28571"
       y="-131.20924"
       ry="24.243662" />
    <path
       id="path4241"
       d="m 400.0625,-115.65625 c -0.44342,0.0186 -0.71875,0.0625 -0.71875,0.0625 l -0.0312,0 -0.0312,0 -17.84375,1.75 c -0.71316,0.0689 -1.71496,0.42187 -2.40625,1.15625 -0.69129,0.73438 -0.94035,1.63239 -1,2.25 -0.11931,1.23521 0.18503,1.78193 0.40625,2.3125 0.44243,1.06115 0.85832,1.73582 1.71875,2.5625 2.06777,1.98642 4.52834,2.0869 6.78125,2 2.25291,-0.0869 4.56993,-0.56462 6.78125,-1.09375 0.55137,-0.13193 0.93797,-0.23657 1.46875,-0.375 -0.40717,0.41568 -0.83491,0.81891 -1.125,1.53125 -0.38271,0.93976 -0.46278,2.2054 -0.125,3.21875 l 3.59375,10.71875 -53.375,8.84375 c 0.7615,-1.2386 1.02444,-2.3907 1.1875,-3.4375 0.33191,-2.13083 0.15625,-4.03125 0.15625,-4.03125 l -0.15625,-2.28125 -2.1875,-0.71875 c 0,0 -4.11298,-1.37999 -9.25,-2.625 -5.13702,-1.24501 -11.13976,-2.475917 -16.09375,-1.84375 -2.09387,0.267188 -3.49659,1.26281 -4.8125,2.375 -1.31591,1.11219 -2.46515,2.45505 -3.40625,3.84375 -0.9411,1.3887 -1.73791,2.72072 -1.96875,4.59375 -0.11542,0.93651 -0.0849,2.20239 0.71875,3.40625 0.80362,1.20386 2.31044,1.87741 3.46875,2 3.0549,0.32331 8.28462,0.48005 10.75,0.5625 l 1.25,4.3125 -9.28125,9.375 c -8.43209,-7.0012 -19.16866,-11.34375 -30.96875,-11.34375 -26.88689,0 -48.78125,21.89441 -48.78125,48.78125 0,26.88686979 21.89436,48.78125 48.78125,48.78125 24.9166,0 45.16508,-18.8804802 48.03125,-43.03125 L 356,-22 l 1.40625,0 1,-0.96875 28.4375,-28.25 c -3.87047,6.97975 -6.15625,14.93516 -6.15625,23.46875 0,26.88686979 21.89439,48.78125 48.78125,48.78125 26.88686,0 48.6875,-21.90197021 48.6875,-48.78125 0,-26.87925 -21.80064,-48.78125 -48.6875,-48.78125 -5.56304,0 -10.87121,1.02755 -15.84375,2.75 l -8.53125,-26.53125 c 0.36908,-0.14038 0.65715,-0.22293 1.125,-0.46875 0.85545,-0.44947 2.0892,-1.25078 2.6875,-2.90625 1.26002,-3.48637 0.70301,-7.34766 -2.15625,-10.125 -1.95546,-1.89944 -3.64112,-1.72576 -4.96875,-1.8125 -0.66382,-0.0434 -1.27533,-0.0499 -1.71875,-0.0312 z m -0.0312,35.9375 -47.75,46.71875 -5.96875,0 -10.46875,-36.09375 64.1875,-10.625 z m -73.1875,15.6875 9,31.03125 -4.125,0 c -1.03868,-9.56013 -4.78794,-18.22751 -10.53125,-25.3125 l 5.65625,-5.71875 z m -43.28125,2.4375 c 7.71413,0 14.69832,2.71119 20.375,7.0625 l -21.15625,21.5 c -0.19181,-0.0205 -0.37526,-0.125 -0.5625,-0.125 -3.17902,0 -5.59375,2.6347 -5.59375,5.65625 0,3.02155 2.57222,5.59375 5.59375,5.59375 1.00047,0 0.83971,-0.07675 0.65625,-0.09375 l 33.78125,0 c -2.73371,15.9199798 -16.35263,28.0312498 -33.09375,28.0312498 -18.72078,0 -33.84375,-15.06972 -33.84375,-33.7812498 0,-18.71151 15.13221,-33.84375 33.84375,-33.84375 z m 145.90625,0 c 18.71153,0 33.75,15.123 33.75,33.84375 0,18.7207698 -15.02923,33.7812498 -33.75,33.7812498 -18.72075,0 -33.84375,-15.06972 -33.84375,-33.7812498 0,-10.92447 5.16122,-20.5943 13.1875,-26.78125 l 4.0625,12.71875 0,0.15625 0.1875,0.53125 0.59375,1.6875 0.1875,0.5625 0.40625,0.5 10.46875,12.4375 c 0.70466,2.25166 2.70718,4.03125 5.25,4.03125 3.14468,0 5.65625,-2.51153 5.65625,-5.65625 0,-2.41629 -1.59796,-4.38959 -3.6875,-5.1875 l -8.53125,-10.4375 -5.1875,-16.25 c 3.54397,-1.27212 7.2782,-2.15625 11.25,-2.15625 z m -118.8125,13.9375 c 3.12081,4.2494 5.24174,9.21479 6.09375,14.65625 l -20.5625,0 14.46875,-14.65625 z"
       style="fill:#db0000;fill-opacity:1;fill-rule:evenodd;stroke:none"
       inkscape:connector-curvature="0" />
  </g>
</svg>
